# Blender v3.5.0 OBJ File: 'uploads_files_3064243_LowPolyPack.blend'
# www.blender.org
mtllib bow.mtl
o bow_v:116_f:74_Куб.010
v -0.282210 -0.027184 -0.077805
v -0.282210 0.027184 -0.077805
v -0.321812 -0.021721 -0.191046
v -0.321812 0.021721 -0.191046
v -0.371132 -0.020201 -0.323950
v -0.371132 0.020201 -0.323950
v -0.330730 -0.020201 -0.323950
v -0.330730 0.020201 -0.323950
v -0.363734 -0.020201 -0.428191
v -0.363734 0.020201 -0.428191
v -0.323332 -0.020201 -0.428191
v -0.323332 0.020201 -0.428191
v -0.338755 -0.020201 -0.553089
v -0.338755 0.020201 -0.553089
v -0.298353 -0.020201 -0.553089
v -0.298353 0.020201 -0.553089
v -0.292639 -0.020201 -0.671261
v -0.292639 0.020201 -0.671261
v -0.252237 -0.020201 -0.671261
v -0.252237 0.020201 -0.671261
v -0.110096 -0.020201 -1.011367
v -0.110096 0.020201 -1.011367
v -0.069694 -0.020201 -1.011367
v -0.069694 0.020201 -1.011367
v -0.076470 -0.020201 -1.105521
v -0.076470 0.020201 -1.105521
v -0.036068 -0.020201 -1.105521
v -0.036068 0.020201 -1.105521
v -0.059731 -0.015952 -1.222732
v -0.059731 0.015952 -1.222732
v -0.027827 -0.015952 -1.222732
v -0.027827 0.015952 -1.222732
v -0.080559 -0.013722 -1.331297
v -0.080559 0.013722 -1.331297
v -0.053115 -0.013722 -1.331297
v -0.053115 0.013722 -1.331297
v -0.153576 -0.013722 -1.443705
v -0.153576 0.013722 -1.443705
v -0.126133 -0.013722 -1.443705
v -0.126133 0.013722 -1.443705
v -0.282210 -0.027184 0.065428
v -0.282210 0.027184 0.065428
v -0.321812 -0.021721 0.178669
v -0.321812 0.021721 0.178669
v -0.371132 -0.020201 0.311573
v -0.371132 0.020201 0.311573
v -0.330730 -0.020201 0.311573
v -0.330730 0.020201 0.311573
v -0.363734 -0.020201 0.415814
v -0.363734 0.020201 0.415814
v -0.323332 -0.020201 0.415814
v -0.323332 0.020201 0.415814
v -0.338755 -0.020201 0.540712
v -0.338755 0.020201 0.540712
v -0.298353 -0.020201 0.540712
v -0.298353 0.020201 0.540712
v -0.292639 -0.020201 0.658884
v -0.292639 0.020201 0.658884
v -0.252237 -0.020201 0.658884
v -0.252237 0.020201 0.658884
v -0.110096 -0.020201 0.998990
v -0.110096 0.020201 0.998990
v -0.069694 -0.020201 0.998990
v -0.069694 0.020201 0.998990
v -0.076470 -0.020201 1.093143
v -0.076470 0.020201 1.093143
v -0.036068 -0.020201 1.093143
v -0.036068 0.020201 1.093143
v -0.059731 -0.015952 1.210355
v -0.059731 0.015952 1.210355
v -0.027827 -0.015952 1.210355
v -0.027827 0.015952 1.210355
v -0.080559 -0.013722 1.318920
v -0.080559 0.013722 1.318920
v -0.053115 -0.013722 1.318920
v -0.053115 0.013722 1.318920
v -0.153576 -0.013722 1.431328
v -0.153576 0.013722 1.431328
v -0.126133 -0.013722 1.431328
v -0.126133 0.013722 1.431328
v -0.042422 0.004504 1.201775
v -0.042422 0.004504 -1.174270
v -0.038522 0.002252 1.201775
v -0.038522 0.002252 -1.174270
v -0.038522 -0.002252 1.201775
v -0.038522 -0.002252 -1.174270
v -0.042422 -0.004504 1.201775
v -0.042422 -0.004504 -1.174270
v -0.046322 -0.002252 1.201775
v -0.046322 -0.002252 -1.174270
v -0.046322 0.002252 1.201775
v -0.046322 0.002252 -1.174270
v -0.042422 0.004504 0.726566
v -0.042422 0.004504 0.251357
v -0.042422 0.004504 -0.223852
v -0.042422 0.004504 -0.699061
v -0.038522 0.002252 -0.699061
v -0.038522 0.002252 -0.223852
v -0.038522 0.002252 0.251357
v -0.038522 0.002252 0.726566
v -0.038522 -0.002252 -0.699061
v -0.038522 -0.002252 -0.223852
v -0.038522 -0.002252 0.251357
v -0.038522 -0.002252 0.726566
v -0.042422 -0.004504 -0.699061
v -0.042422 -0.004504 -0.223852
v -0.042422 -0.004504 0.251357
v -0.042422 -0.004504 0.726566
v -0.046322 -0.002252 -0.699061
v -0.046322 -0.002252 -0.223852
v -0.046322 -0.002252 0.251357
v -0.046322 -0.002252 0.726566
v -0.046322 0.002252 -0.699061
v -0.046322 0.002252 -0.223852
v -0.046322 0.002252 0.251357
v -0.046322 0.002252 0.726566
vt 0.255300 0.849623
vt 0.241247 0.731327
vt 0.255300 0.731327
vt 0.238818 0.475090
vt 0.255828 0.435703
vt 0.257729 0.475090
vt 0.025314 0.309776
vt 0.016626 0.353218
vt 0.011262 0.309776
vt 0.240718 0.435703
vt 0.255300 0.389476
vt 0.224765 0.389476
vt 0.222192 0.353218
vt 0.236245 0.353218
vt 0.241247 0.353218
vt 0.255300 0.309776
vt 0.255300 0.353218
vt 0.273987 0.610524
vt 0.259934 0.646782
vt 0.259934 0.610524
vt 0.241247 0.389476
vt 0.273987 0.646782
vt 0.259934 0.690224
vt 0.273987 0.690224
vt 0.259934 0.731327
vt 0.241247 0.309776
vt 0.255300 0.268673
vt 0.241247 0.150377
vt 0.241247 0.268673
vt 0.273987 0.849623
vt 0.259934 0.882372
vt 0.259934 0.849623
vt 0.241247 0.117628
vt 0.253822 0.076859
vt 0.255300 0.117628
vt 0.255300 0.150377
vt 0.273987 0.882372
vt 0.261412 0.923141
vt 0.243501 0.039098
vt 0.253046 0.000000
vt 0.253046 0.039098
vt 0.272509 0.923141
vt 0.262188 0.960902
vt 0.242725 0.076859
vt 0.284752 0.009545
vt 0.294298 0.000000
vt 0.294298 0.009545
vt 0.271733 0.960902
vt 0.262188 1.000000
vt 0.257729 0.524910
vt 0.238818 0.524910
vt 0.255828 0.564297
vt 0.241247 0.610524
vt 0.240718 0.564297
vt 0.255300 0.690224
vt 0.241247 0.646782
vt 0.255300 0.646782
vt 0.259934 0.353218
vt 0.273987 0.389476
vt 0.259934 0.389476
vt 0.255300 0.610524
vt 0.259934 0.309776
vt 0.273987 0.353218
vt 0.259934 0.268673
vt 0.273987 0.309776
vt 0.241247 0.690224
vt 0.273987 0.731327
vt 0.259934 0.150377
vt 0.273987 0.268673
vt 0.259934 0.117628
vt 0.273987 0.150377
vt 0.253822 0.923141
vt 0.241247 0.882372
vt 0.255300 0.882372
vt 0.241247 0.849623
vt 0.261412 0.076859
vt 0.273987 0.117628
vt 0.253046 1.000000
vt 0.243501 0.960902
vt 0.253046 0.960902
vt 0.262188 0.039098
vt 0.272509 0.076859
vt 0.242725 0.923141
vt 0.294298 0.019091
vt 0.284752 0.009545
vt 0.294298 0.009545
vt 0.262188 0.000000
vt 0.271733 0.039098
vt 0.116543 0.882372
vt 0.119409 0.923141
vt 0.108312 0.923141
vt 0.110613 0.960902
vt 0.085216 1.000000
vt 0.101068 0.960902
vt 0.075671 1.000000
vt 0.104847 0.849623
vt 0.102490 0.882372
vt 0.090794 0.849623
vt 0.027302 0.731327
vt 0.041354 0.731327
vt 0.011262 0.690224
vt 0.025314 0.690224
vt 0.002573 0.646782
vt 0.016626 0.646782
vt 0.000000 0.610524
vt 0.014053 0.610524
vt 0.000000 0.389476
vt 0.017154 0.564297
vt 0.002573 0.353218
vt 0.014053 0.389476
vt 0.027302 0.268673
vt 0.090794 0.150377
vt 0.041354 0.268673
vt 0.101068 0.039098
vt 0.075671 0.000000
vt 0.085216 0.000000
vt 0.110613 0.039098
vt 0.119409 0.076859
vt 0.108312 0.076859
vt 0.116543 0.117628
vt 0.104847 0.150377
vt 0.102490 0.117628
vt 0.017155 0.435703
vt 0.030929 0.475090
vt 0.030929 0.524910
vt 0.137750 0.960902
vt 0.163147 1.000000
vt 0.153602 1.000000
vt 0.128205 0.960902
vt 0.119409 0.923141
vt 0.130506 0.923141
vt 0.122275 0.882372
vt 0.133971 0.849623
vt 0.136328 0.882372
vt 0.221664 0.564297
vt 0.207889 0.524910
vt 0.207889 0.475090
vt 0.221664 0.435703
vt 0.224765 0.610524
vt 0.238818 0.610524
vt 0.238818 0.389476
vt 0.197464 0.268673
vt 0.133971 0.150377
vt 0.148024 0.150377
vt 0.122275 0.117628
vt 0.136328 0.117628
vt 0.119409 0.076859
vt 0.130506 0.076859
vt 0.128205 0.039098
vt 0.153602 0.000000
vt 0.137750 0.039098
vt 0.163147 0.000000
vt 0.148024 0.849623
vt 0.227557 0.690224
vt 0.211516 0.731327
vt 0.213504 0.690224
vt 0.197464 0.731327
vt 0.236245 0.646782
vt 0.222192 0.646782
vt 0.211516 0.268673
vt 0.227557 0.309776
vt 0.213504 0.309776
vt 0.243501 0.000000
vt 0.284752 0.000000
vt 0.271733 1.000000
vt 0.243501 1.000000
vt 0.284752 0.019091
vt 0.271733 0.000000
vt 0.280263 0.165288
vt 0.281619 0.000000
vt 0.280263 0.000000
vt 0.284753 0.165288
vt 0.283186 0.000000
vt 0.283186 0.165288
vt 0.277549 0.165288
vt 0.276193 0.000000
vt 0.276193 0.165288
vt 0.278906 0.165288
vt 0.277549 0.000000
vt 0.286109 0.025357
vt 0.287466 0.024573
vt 0.287466 0.023007
vt 0.283186 0.165288
vt 0.281619 0.000000
vt 0.281619 0.165288
vt 0.278906 0.000000
vt 0.278906 0.165288
vt 0.287466 0.021440
vt 0.287466 0.019874
vt 0.284752 0.019874
vt 0.280263 0.826441
vt 0.278906 0.661153
vt 0.278906 0.826441
vt 0.280263 0.661153
vt 0.278906 0.495865
vt 0.280263 0.495865
vt 0.278906 0.330576
vt 0.280263 0.330576
vt 0.283186 0.826441
vt 0.281619 0.661153
vt 0.281619 0.826441
vt 0.283186 0.661153
vt 0.281619 0.495865
vt 0.283186 0.495865
vt 0.281619 0.330576
vt 0.283186 0.330576
vt 0.278906 0.826441
vt 0.277549 0.661153
vt 0.277549 0.826441
vt 0.278906 0.661153
vt 0.277549 0.495865
vt 0.278906 0.495865
vt 0.277549 0.330576
vt 0.278906 0.330576
vt 0.276193 0.661153
vt 0.276193 0.826441
vt 0.276193 0.495865
vt 0.276193 0.330576
vt 0.284752 0.826441
vt 0.283186 0.661153
vt 0.283186 0.826441
vt 0.284752 0.661153
vt 0.283186 0.495865
vt 0.284752 0.495865
vt 0.283186 0.330576
vt 0.284752 0.330576
vt 0.281619 0.661153
vt 0.281619 0.495865
vt 0.281619 0.330576
vt 0.281619 0.165288
vt 0.284753 0.000000
vt 0.278906 0.000000
vt 0.286109 0.022224
vt 0.284752 0.023007
vt 0.284752 0.024573
vt 0.283186 0.000000
vt 0.286109 0.019091
vt 0.284752 0.021440
vt 0.286109 0.022224
vt 0.281619 0.826441
vn 0.8811 0.0000 -0.4729
vn 0.9439 0.0000 -0.3301
vn 0.0000 -1.0000 -0.0000
vn 0.9978 0.0000 -0.0669
vn 0.0000 1.0000 -0.0000
vn 0.9806 0.0000 0.1961
vn -0.9975 0.0000 -0.0708
vn 0.9975 0.0000 0.0708
vn -0.9806 0.0000 -0.1961
vn -0.9316 0.0000 -0.3635
vn 0.9316 0.0000 0.3635
vn 0.8811 0.0000 0.4729
vn -0.9417 0.0000 -0.3363
vn 0.9975 0.0000 0.0701
vn 0.9417 0.0000 0.3363
vn -0.9900 0.0000 -0.1414
vn 0.8386 0.0000 -0.5447
vn -0.9821 0.0000 0.1884
vn 0.9739 0.0000 -0.2269
vn 0.0000 0.0000 -1.0000
vn -0.8386 0.0000 0.5447
vn 1.0000 0.0000 0.0000
vn 0.9439 0.0000 0.3301
vn 0.9978 0.0000 0.0669
vn 0.9806 0.0000 -0.1961
vn -0.9975 0.0000 0.0708
vn 0.9975 0.0000 -0.0708
vn -0.9806 0.0000 0.1961
vn -0.9316 0.0000 0.3635
vn 0.9316 0.0000 -0.3635
vn -0.8811 0.0000 -0.4729
vn -0.8811 0.0000 0.4729
vn -0.9417 0.0000 0.3363
vn 0.9975 0.0000 -0.0701
vn 0.9417 0.0000 -0.3363
vn -0.9900 0.0000 0.1414
vn 0.8386 0.0000 0.5447
vn -0.9821 0.0000 -0.1884
vn 0.9739 0.0000 0.2269
vn 0.0000 0.0000 1.0000
vn -0.8386 0.0000 -0.5447
vn -1.0000 0.0000 0.0000
vn 0.0000 -0.9993 0.0362
vn 0.0000 -0.9998 0.0205
vn -0.0308 -0.9995 0.0000
vn 0.0000 -0.9999 0.0114
vn 0.0000 -0.9998 -0.0205
vn 0.0000 -0.9993 -0.0362
vn -0.1367 -0.9906 0.0000
vn 0.0000 -0.9999 -0.0114
vn 0.0000 0.9998 0.0205
vn 0.0000 0.9993 0.0362
vn -0.1367 0.9906 0.0000
vn 0.0000 0.9999 0.0114
vn -0.0308 0.9995 0.0000
vn 0.0000 0.9999 -0.0114
vn 0.0000 0.9993 -0.0362
vn 0.0000 0.9998 -0.0205
vn 0.5000 0.8660 0.0000
vn 0.5000 -0.8660 0.0000
vn -0.5000 -0.8660 0.0000
vn -0.5000 0.8660 -0.0000
vn 0.0001 0.0000 1.0000
usemtl dark_wood
s off
f 64/1/1 59/2/1 60/3/1
f 1/4/2 4/5/2 2/6/2
f 15/7/3 11/8/3 13/9/3
f 3/10/4 8/11/4 4/5/4
f 8/12/5 12/13/5 10/14/5
f 11/15/6 16/16/6 12/17/6
f 6/18/7 9/19/7 5/20/7
f 7/21/8 12/17/8 8/11/8
f 10/22/9 13/23/9 9/19/9
f 14/24/10 17/25/10 13/23/10
f 15/26/11 20/27/11 16/16/11
f 23/28/12 20/27/12 19/29/12
f 22/30/13 25/31/13 21/32/13
f 27/33/14 32/34/14 28/35/14
f 23/28/15 28/35/15 24/36/15
f 26/37/16 29/38/16 25/31/16
f 35/39/17 40/40/17 36/41/17
f 30/42/18 33/43/18 29/38/18
f 31/44/19 36/41/19 32/34/19
f 38/45/20 39/46/20 37/47/20
f 34/48/21 37/49/21 33/43/21
f 1/4/22 42/50/22 41/51/22
f 44/52/23 41/51/23 42/50/23
f 44/52/24 47/53/24 43/54/24
f 56/55/25 51/56/25 52/57/25
f 49/58/26 46/59/26 45/60/26
f 52/57/27 47/53/27 48/61/27
f 53/62/28 50/63/28 49/58/28
f 57/64/29 54/65/29 53/62/29
f 60/3/30 55/66/30 56/55/30
f 22/30/31 17/25/31 18/67/31
f 61/68/32 58/69/32 57/64/32
f 65/70/33 62/71/33 61/68/33
f 72/72/34 67/73/34 68/74/34
f 68/74/35 63/75/35 64/1/35
f 69/76/36 66/77/36 65/70/36
f 80/78/37 75/79/37 76/80/37
f 73/81/38 70/82/38 69/76/38
f 76/80/39 71/83/39 72/72/39
f 79/84/40 78/85/40 77/86/40
f 77/87/41 74/88/41 73/81/41
f 45/60/42 6/18/42 5/20/42
f 64/1/1 63/75/1 59/2/1
f 1/4/2 3/10/2 4/5/2
f 67/89/43 71/90/43 69/91/43
f 71/90/44 75/92/44 69/91/44
f 75/92/3 79/93/3 73/94/3
f 79/93/3 77/95/3 73/94/3
f 63/96/3 67/89/3 65/97/3
f 75/92/44 73/94/44 69/91/44
f 67/89/43 69/91/43 65/97/43
f 61/98/3 57/99/3 59/100/3
f 57/99/3 53/101/3 55/102/3
f 59/100/3 57/99/3 55/102/3
f 63/96/3 65/97/3 61/98/3
f 59/100/3 63/96/3 61/98/3
f 53/101/3 49/103/3 51/104/3
f 49/103/3 45/105/3 47/106/3
f 45/105/45 5/107/45 43/108/45
f 5/107/3 9/109/3 7/110/3
f 9/109/3 13/9/3 11/8/3
f 7/110/3 9/109/3 11/8/3
f 13/9/3 17/111/3 15/7/3
f 17/111/3 21/112/3 19/113/3
f 45/105/46 43/108/46 47/106/46
f 55/102/3 53/101/3 51/104/3
f 33/114/3 37/115/3 39/116/3
f 39/116/3 35/117/3 33/114/3
f 35/117/47 31/118/47 29/119/47
f 33/114/47 35/117/47 29/119/47
f 31/118/48 27/120/48 29/119/48
f 27/120/3 23/121/3 25/122/3
f 3/123/49 1/124/49 41/125/49
f 3/123/49 41/125/49 43/108/49
f 7/110/50 3/123/50 5/107/50
f 3/123/45 43/108/45 5/107/45
f 25/122/48 29/119/48 27/120/48
f 47/106/3 51/104/3 49/103/3
f 21/112/3 25/122/3 23/121/3
f 21/112/3 23/121/3 19/113/3
f 17/111/3 19/113/3 15/7/3
f 3/10/4 7/21/4 8/11/4
f 74/126/5 78/127/5 80/128/5
f 80/128/5 76/129/5 74/126/5
f 76/129/51 72/130/51 70/131/51
f 74/126/51 76/129/51 70/131/51
f 72/130/52 68/132/52 70/131/52
f 68/132/5 64/133/5 66/134/5
f 70/131/52 68/132/52 66/134/52
f 44/135/53 42/136/53 2/137/53
f 44/135/53 2/137/53 4/138/53
f 48/139/54 44/135/54 46/140/54
f 44/135/55 4/138/55 46/140/55
f 4/138/56 8/12/56 6/141/56
f 6/141/5 8/12/5 10/14/5
f 20/142/5 24/143/5 22/144/5
f 24/143/5 28/145/5 26/146/5
f 22/144/5 24/143/5 26/146/5
f 28/145/57 32/147/57 30/148/57
f 32/147/58 36/149/58 30/148/58
f 36/149/5 40/150/5 34/151/5
f 40/150/5 38/152/5 34/151/5
f 62/153/5 66/134/5 64/133/5
f 54/154/5 58/155/5 56/156/5
f 58/155/5 62/153/5 60/157/5
f 46/140/5 50/158/5 48/139/5
f 50/158/5 54/154/5 52/159/5
f 48/139/5 50/158/5 52/159/5
f 6/141/55 46/140/55 4/138/55
f 18/160/5 14/161/5 16/162/5
f 14/161/5 10/14/5 12/13/5
f 16/162/5 14/161/5 12/13/5
f 22/144/5 18/160/5 20/142/5
f 20/142/5 18/160/5 16/162/5
f 58/155/5 60/157/5 56/156/5
f 62/153/5 64/133/5 60/157/5
f 36/149/58 34/151/58 30/148/58
f 28/145/57 30/148/57 26/146/57
f 54/154/5 56/156/5 52/159/5
f 11/15/6 15/26/6 16/16/6
f 6/18/7 10/22/7 9/19/7
f 7/21/8 11/15/8 12/17/8
f 10/22/9 14/24/9 13/23/9
f 14/24/10 18/67/10 17/25/10
f 15/26/11 19/29/11 20/27/11
f 23/28/12 24/36/12 20/27/12
f 22/30/13 26/37/13 25/31/13
f 27/33/14 31/44/14 32/34/14
f 23/28/15 27/33/15 28/35/15
f 26/37/16 30/42/16 29/38/16
f 35/39/17 39/163/17 40/40/17
f 30/42/18 34/48/18 33/43/18
f 31/44/19 35/39/19 36/41/19
f 38/45/20 40/164/20 39/46/20
f 34/48/21 38/165/21 37/49/21
f 1/4/22 2/6/22 42/50/22
f 44/52/23 43/54/23 41/51/23
f 44/52/24 48/61/24 47/53/24
f 56/55/25 55/66/25 51/56/25
f 49/58/26 50/63/26 46/59/26
f 52/57/27 51/56/27 47/53/27
f 53/62/28 54/65/28 50/63/28
f 57/64/29 58/69/29 54/65/29
f 60/3/30 59/2/30 55/66/30
f 22/30/31 21/32/31 17/25/31
f 61/68/32 62/71/32 58/69/32
f 65/70/33 66/77/33 62/71/33
f 72/72/34 71/83/34 67/73/34
f 68/74/35 67/73/35 63/75/35
f 69/76/36 70/82/36 66/77/36
f 80/78/37 79/166/37 75/79/37
f 73/81/38 74/88/38 70/82/38
f 76/80/39 75/79/39 71/83/39
f 79/84/40 80/167/40 78/85/40
f 77/87/41 78/168/41 74/88/41
f 45/60/42 46/59/42 6/18/42
usemtl cloth
f 96/169/59 84/170/59 82/171/59
f 101/172/22 84/173/22 97/174/22
f 105/175/60 86/176/60 101/177/60
f 109/178/61 88/179/61 105/175/61
f 90/180/20 92/181/20 82/182/20
f 113/183/42 90/184/42 109/185/42
f 96/169/62 92/186/62 113/187/62
f 85/188/40 83/189/40 91/190/40
f 81/191/62 116/192/62 91/193/62
f 93/194/62 115/195/62 116/192/62
f 94/196/62 114/197/62 115/195/62
f 95/198/62 113/187/62 114/197/62
f 91/199/42 112/200/42 89/201/42
f 116/202/42 111/203/42 112/200/42
f 115/204/42 110/205/42 111/203/42
f 114/206/42 109/185/42 110/205/42
f 89/207/61 108/208/61 87/209/61
f 112/210/61 107/211/61 108/208/61
f 111/212/61 106/213/61 107/211/61
f 110/214/61 105/175/61 106/213/61
f 87/209/60 104/215/60 85/216/60
f 108/208/60 103/217/60 104/215/60
f 107/211/60 102/218/60 103/217/60
f 106/213/60 101/177/60 102/218/60
f 85/219/22 100/220/22 83/221/22
f 104/222/22 99/223/22 100/220/22
f 103/224/22 98/225/22 99/223/22
f 102/226/22 97/174/22 98/225/22
f 81/191/59 100/227/59 93/194/59
f 93/194/59 99/228/59 94/196/59
f 94/196/59 98/229/59 95/198/59
f 95/198/59 97/230/59 96/169/59
f 96/169/59 97/230/59 84/170/59
f 101/172/22 86/231/22 84/173/22
f 105/175/60 88/179/60 86/176/60
f 109/178/61 90/232/61 88/179/61
f 82/182/20 84/233/20 90/180/20
f 84/233/20 86/234/20 90/180/20
f 86/234/20 88/235/20 90/180/20
f 113/183/42 92/236/42 90/184/42
f 96/169/62 82/171/62 92/186/62
f 83/189/40 81/237/40 91/190/40
f 91/190/63 89/238/63 87/239/63
f 87/239/40 85/188/40 91/190/40
f 81/191/62 93/194/62 116/192/62
f 93/194/62 94/196/62 115/195/62
f 94/196/62 95/198/62 114/197/62
f 95/198/62 96/169/62 113/187/62
f 91/199/42 116/202/42 112/200/42
f 116/202/42 115/204/42 111/203/42
f 115/204/42 114/206/42 110/205/42
f 114/206/42 113/183/42 109/185/42
f 89/207/61 112/210/61 108/208/61
f 112/210/61 111/212/61 107/211/61
f 111/212/61 110/214/61 106/213/61
f 110/214/61 109/178/61 105/175/61
f 87/209/60 108/208/60 104/215/60
f 108/208/60 107/211/60 103/217/60
f 107/211/60 106/213/60 102/218/60
f 106/213/60 105/175/60 101/177/60
f 85/219/22 104/222/22 100/220/22
f 104/222/22 103/224/22 99/223/22
f 103/224/22 102/226/22 98/225/22
f 102/226/22 101/172/22 97/174/22
f 81/191/59 83/240/59 100/227/59
f 93/194/59 100/227/59 99/228/59
f 94/196/59 99/228/59 98/229/59
f 95/198/59 98/229/59 97/230/59
o arrow_v:34_f:35_Цилиндр.009
v 0.160001 0.000000 -0.940681
v 0.152365 0.013267 0.533848
v 0.167672 0.013247 0.533848
v 0.175308 -0.000021 0.533848
v 0.167637 -0.013267 0.533848
v 0.152329 -0.013247 0.533848
v 0.144693 0.000020 0.533848
v 0.144843 0.026335 -0.762518
v 0.175228 0.026294 -0.762518
v 0.190386 -0.000041 -0.762518
v 0.175158 -0.026335 -0.762518
v 0.144772 -0.026295 -0.762518
v 0.129614 0.000040 -0.762518
v 0.155219 0.008308 -0.723292
v 0.164804 0.008295 -0.723292
v 0.169586 -0.000013 -0.723292
v 0.164782 -0.008308 -0.723292
v 0.155197 -0.008295 -0.723292
v 0.150416 0.000013 -0.723292
v 0.155219 0.008308 0.282590
v 0.162409 0.009075 0.282590
v 0.169586 -0.000013 0.282590
v 0.166655 -0.006623 0.282590
v 0.155197 -0.008295 0.282590
v 0.150938 -0.002451 0.282590
v 0.160073 0.053617 0.533848
v 0.206399 -0.026870 0.533848
v 0.113531 -0.026746 0.533848
v 0.163969 0.006852 0.565664
v 0.156051 0.006863 0.546356
v 0.167919 -0.000011 0.565664
v 0.163951 -0.006862 0.546356
v 0.156033 -0.006852 0.565664
v 0.152083 0.000011 0.565664
vt 0.176808 0.143966
vt 0.178565 0.812280
vt 0.170420 0.144034
vt 0.108152 0.143757
vt 0.088813 0.811748
vt 0.104358 0.144104
vt 0.036008 0.978585
vt 0.025809 0.978337
vt 0.031739 0.811801
vt 0.138691 0.850699
vt 0.132993 0.187513
vt 0.145001 0.850745
vt 0.096671 0.978331
vt 0.086536 0.977991
vt 0.092075 0.811525
vt 0.133436 0.022260
vt 0.139847 0.021016
vt 0.138665 0.186672
vt 0.183361 0.812270
vt 0.047891 0.143832
vt 0.054277 0.143987
vt 0.039368 0.812078
vt 0.128341 0.187403
vt 0.114498 0.143970
vt 0.099533 0.811871
vt 0.149015 0.849967
vt 0.131537 0.013375
vt 0.134655 0.000000
vt 0.114179 0.000000
vt 0.123359 0.117177
vt 0.103241 0.116503
vt 0.172254 0.000000
vt 0.183361 0.116894
vt 0.163112 0.117107
vt 0.144942 0.993270
vt 0.150386 0.878402
vt 0.163112 0.875935
vt 0.130384 0.878254
vt 0.054557 0.000000
vt 0.061875 0.117130
vt 0.041629 0.116639
vt 0.091215 0.117601
vt 0.211319 0.210626
vt 0.203408 0.197428
vt 0.213962 0.197428
vt 0.027746 0.999872
vt 0.080477 0.978544
vt 0.088303 0.986726
vt 0.084861 0.999830
vt 0.203841 0.021473
vt 0.211556 0.000000
vt 0.214042 0.021473
vt 0.123359 0.022185
vt 0.192854 0.197428
vt 0.200803 0.210615
vt 0.195526 0.210615
vt 0.206042 0.210626
vt 0.033022 1.000000
vt 0.206279 0.000000
vt 0.126126 0.000604
vt 0.093237 0.999720
vt 0.183361 0.171951
vt 0.193385 0.170050
vt 0.193385 0.197428
vt 0.183361 0.165601
vt 0.203841 0.000000
vt 0.203841 0.170050
vt 0.137426 0.186019
vt 0.193385 0.171951
vt 0.203408 0.170050
vt 0.203408 0.197428
vt 0.061875 0.978477
vt 0.213431 0.197428
vt 0.203408 0.195527
vt 0.213431 0.170050
vt 0.123359 0.978452
vt 0.028884 0.812049
vt 0.163112 0.018579
vt 0.000000 0.976975
vt 0.061875 0.976391
vn -0.8667 -0.4988 -0.0008
vn 0.0013 1.0000 -0.0008
vn 0.8665 0.4987 -0.0197
vn 0.8654 -0.5011 -0.0008
vn -0.8652 0.5011 -0.0197
vn -0.0013 -0.9998 -0.0197
vn -0.8081 -0.5890 0.0000
vn -0.1061 0.9944 0.0000
vn 0.8667 0.4988 -0.0000
vn 0.7848 0.6198 0.0014
vn 0.7845 0.6195 -0.0267
vn 0.9142 -0.4053 -0.0000
vn -0.8654 0.5011 0.0000
vn -0.9291 0.3697 0.0014
vn -0.9288 0.3696 -0.0267
vn -0.0013 -1.0000 0.0000
vn 0.1444 -0.9895 0.0014
vn 0.1443 -0.9892 -0.0267
vn 0.3520 -0.9247 0.1449
vn -0.8561 0.4958 -0.1461
vn -0.8574 -0.4935 -0.1461
vn -0.0013 -0.9893 -0.1461
vn 0.8561 -0.4958 -0.1461
vn 0.8574 0.4935 -0.1461
vn 0.0013 0.9893 -0.1461
vn -0.7864 0.4554 0.4173
vn -0.7876 -0.4533 0.4173
vn -0.0012 -0.9088 0.4173
vn 0.7864 -0.4554 0.4173
vn 0.7876 0.4533 0.4173
vn 0.0012 0.9088 0.4173
vn 0.8167 0.4701 0.3347
vn 0.8497 0.4890 0.1972
vn -0.3520 0.9247 0.1449
vn -0.8497 -0.4890 0.1972
vn 0.7704 -0.4461 0.4555
vn -0.7704 0.4462 0.4555
vn -0.8167 -0.4701 0.3347
vn -0.0012 -0.8902 0.4555
vn 0.0012 0.8902 0.4555
vn 0.6227 -0.7689 0.1449
vn -0.6227 0.7689 0.1449
vn 0.0000 0.0000 1.0000
vn -0.3310 -0.9433 -0.0237
vn -0.8079 -0.5889 -0.0208
vn 0.9825 0.1849 -0.0236
vn -0.6514 0.7584 -0.0237
vn 0.9140 -0.4052 -0.0208
vn -0.1060 0.9941 -0.0208
vn 0.3283 -0.9436 -0.0424
vn 0.6530 0.7562 -0.0424
vn -0.9814 0.1875 -0.0424
usemtl dark_wood
s off
f 134/241/64 141/242/64 135/243/64
f 130/244/65 137/245/65 131/246/65
f 119/247/66 120/248/66 138/249/66
f 132/250/67 139/251/67 133/252/67
f 123/253/68 118/254/68 136/255/68
f 121/256/69 122/257/69 140/258/69
f 134/241/70 140/259/70 141/242/70
f 130/244/71 136/255/71 137/245/71
f 132/260/72 131/261/72 138/249/72
f 131/261/73 137/262/73 138/249/73
f 137/262/74 119/247/74 138/249/74
f 132/250/75 138/263/75 139/251/75
f 130/244/76 135/264/76 136/255/76
f 135/264/77 141/265/77 136/255/77
f 141/265/78 123/253/78 136/255/78
f 134/266/79 133/252/79 140/258/79
f 133/252/80 139/251/80 140/258/80
f 139/251/81 121/256/81 140/258/81
usemtl silver
f 122/257/82 148/267/82 149/268/82
f 117/269/83 129/270/83 124/271/83
f 117/272/84 128/273/84 129/274/84
f 117/275/85 127/276/85 128/277/85
f 117/275/86 126/278/86 127/276/86
f 117/279/87 125/280/87 126/281/87
f 117/269/88 124/271/88 125/282/88
f 135/264/89 124/271/89 129/270/89
f 134/241/90 129/274/90 128/273/90
f 127/276/91 134/266/91 128/277/91
f 126/278/92 133/252/92 127/276/92
f 131/261/93 126/281/93 125/280/93
f 130/244/94 125/282/94 124/271/94
f 150/283/95 148/284/95 146/285/95
f 119/247/96 147/286/96 120/248/96
f 119/287/97 146/288/97 145/289/97
f 122/290/98 150/291/98 123/292/98
f 120/293/99 148/267/99 121/256/99
f 123/253/100 146/288/100 118/254/100
f 146/294/101 147/295/101 145/296/101
f 122/257/102 121/256/102 148/267/102
f 135/264/89 130/244/89 124/271/89
f 134/241/90 135/243/90 129/274/90
f 127/276/91 133/252/91 134/266/91
f 126/278/92 132/250/92 133/252/92
f 131/261/93 132/260/93 126/281/93
f 130/244/94 131/246/94 125/282/94
f 150/283/95 149/297/95 148/284/95
f 119/247/96 145/298/96 147/286/96
f 119/287/103 118/254/103 146/288/103
f 122/290/98 149/299/98 150/291/98
f 120/293/104 147/300/104 148/267/104
f 123/253/105 150/301/105 146/288/105
f 146/294/101 148/284/101 147/295/101
usemtl feather
f 122/302/106 123/303/106 144/304/106
f 121/305/107 139/306/107 143/307/107
f 122/257/108 141/308/108 140/258/108
f 120/309/106 121/310/106 143/311/106
f 119/247/109 137/262/109 142/312/109
f 118/313/106 119/314/106 142/315/106
f 123/253/110 141/265/110 144/316/110
f 120/248/111 139/317/111 138/249/111
f 118/254/112 137/245/112 136/255/112
f 122/257/113 144/318/113 141/308/113
f 120/248/114 143/319/114 139/317/114
f 118/254/115 142/320/115 137/245/115
