# Blender v3.5.1 OBJ File: 'tree-open.blend'
# www.blender.org
mtllib tree_open_btn.mtl
o trunk_Cube
v 0.086143 -0.049828 0.367154
v -0.161881 -0.065508 0.270642
v -0.296818 -0.057372 -0.090465
v -0.107274 -0.042594 -0.351276
v 0.169107 3.334772 0.100879
v 0.916834 4.308806 0.349103
v -0.256774 3.184929 -0.008048
v -0.691167 4.172950 -0.429883
v -0.738786 3.513175 0.432985
v -0.106772 0.405169 0.330531
v -0.624716 4.967634 -0.337826
v -0.619719 5.582576 -0.378209
v -1.509389 6.590605 -0.796983
v -1.460105 6.370770 -0.756747
v -0.469217 6.375253 -0.293165
v -0.673395 5.633116 -0.570788
v -0.464809 6.130395 -0.474888
v -0.704888 7.247352 0.013392
v -0.947251 8.273505 -0.380194
v 0.004642 7.647254 -0.184829
v -0.462022 6.102841 -0.362655
v 0.254143 0.679333 -0.244101
v -0.326709 0.044526 -0.164148
v 0.156487 -0.074011 0.209212
v -0.273028 1.799644 -0.055553
v 0.224167 3.275625 -0.068123
v 0.364579 3.502747 -0.087645
v -0.126508 2.448958 -0.461211
v 0.832717 4.433976 0.345435
v -0.677288 4.255715 -0.204562
v 0.943195 4.357598 0.219764
v -0.603444 3.454673 0.535500
v -0.089508 2.419851 0.044064
v -0.291220 2.887399 0.075117
v -0.227740 2.427711 0.022324
v 0.023262 3.111856 0.068944
v 0.358783 -0.035424 0.068422
v -0.274596 3.148877 0.083072
v -0.796723 3.924670 0.550388
v 0.051748 3.754398 0.054247
v -0.020797 3.752940 -0.240213
v -0.655962 3.324707 0.520461
v 0.890360 4.046485 0.100131
v 0.792731 4.463458 0.322477
v -0.217005 1.942801 0.010159
v -0.929100 5.703631 -0.630809
v -0.554006 6.614159 -0.458241
v -0.806977 6.022881 -0.580559
v -0.396426 6.874851 -0.247102
v -0.560978 6.949146 -0.216753
v -1.556704 6.533006 -0.688145
v -0.686347 5.187422 -0.579452
v -0.884073 7.976994 -0.419747
v -0.865988 5.522877 -0.637542
v -0.240930 6.111261 -1.103332
v -0.676608 6.120960 -0.554808
v -0.719182 6.095002 -0.450952
v -0.602424 5.658820 -0.890545
v -0.377382 5.743530 -1.089277
v -0.200407 6.060352 -1.092973
v -0.411562 7.183163 -0.345816
v -0.900159 8.419309 -0.367269
v -0.688088 7.170663 0.027815
v -0.748339 7.836009 -0.430294
v 0.067294 0.711489 -0.345750
v -0.175042 0.767419 -0.314909
v 0.162724 2.567622 -0.018738
v -0.305635 3.279741 -0.084630
v 0.085571 3.265725 -0.258551
v -0.263433 3.940117 -0.035760
v -0.104662 2.042202 0.053186
v 0.225273 0.435976 0.274779
v -0.891255 5.655392 -0.438921
v -0.689146 5.873466 -0.368549
v -0.852277 5.291721 -0.620791
v -0.735874 5.276666 -0.661334
v -0.581426 6.537007 -0.322369
v -0.348424 7.435536 -0.220064
v -0.608526 7.302645 -0.285595
v -0.222439 4.025963 -0.247334
v 0.687120 4.223999 0.041180
v -0.251419 6.092231 -1.148183
v -0.853773 7.877011 -0.319943
v -0.331400 7.227029 -0.236970
v 0.180628 3.056201 -0.097850
v -1.305601 6.376441 -0.707940
v 0.066302 0.163542 0.364698
v -0.279118 -0.018634 0.279269
v -0.305282 1.001835 -0.168706
v -0.299966 2.286834 -0.293582
v -0.348819 3.037316 -0.190984
v 0.216181 1.883647 -0.284386
v 0.221044 3.328496 0.023216
v 0.108685 2.929933 0.022472
v 0.066785 2.209797 -0.412284
v -0.257611 2.511551 -0.426112
v -0.016051 3.463468 0.086360
v -0.377460 3.423282 -0.369535
v -0.434519 3.442210 -0.287136
v 0.431282 4.009804 0.025588
v 0.143928 3.822997 -0.035265
v 0.301283 3.822881 -0.189393
v -0.695092 4.807482 -0.258917
v -0.606103 4.752316 -0.474554
v 0.746009 4.444196 0.192360
v -0.139123 3.182840 0.065913
v -0.300352 3.257849 0.274844
v -0.481628 3.338486 0.288927
v -0.764858 3.894990 0.610178
v -0.864213 3.872114 0.586871
v 0.240279 0.013472 -0.293021
v 0.094522 -0.064491 -0.334335
v 0.328260 0.026220 0.196054
v 0.360174 -0.005836 -0.068157
v -0.368777 0.017645 -0.008061
v -0.095467 3.871788 -0.074070
v -0.339947 3.489231 -0.396178
v -0.652741 3.635865 0.475489
v -0.745811 3.366387 0.493982
v 0.942431 4.222843 0.161009
v 0.755481 4.104877 -0.023144
v 0.641670 4.235488 0.131145
v 0.506127 3.958262 0.210927
v 0.087141 2.158073 0.038087
v -0.953760 5.694229 -0.561521
v -0.833943 4.695174 -0.374393
v -0.758425 5.641805 -0.635576
v -0.580599 5.797180 -0.378970
v -1.448521 6.616838 -0.733095
v -1.110986 6.184426 -0.560688
v -0.968116 6.054841 -0.627112
v -0.670447 4.016969 -0.319408
v -0.863144 5.037795 -0.548244
v -0.517258 6.898966 -0.197851
v -0.527638 5.695114 -0.825581
v -0.347656 5.841343 -0.988702
v -0.340788 5.900148 -1.078418
v -0.250753 5.780412 -1.043619
v -0.262445 5.755891 -1.093936
v -1.450953 6.314882 -0.625320
v -1.301167 6.262251 -0.540893
v -0.389051 7.292335 -0.195091
v -0.460709 7.389546 -0.350829
v -0.567679 7.206699 -0.389451
v 0.000385 7.772332 -0.112110
v -0.073056 7.607613 -0.134348
v -0.330263 7.446071 -0.320737
v -0.566867 7.485758 -0.261777
v -0.906562 8.386512 -0.421862
v -0.407517 7.080119 -0.208262
v -0.765311 7.245538 0.000310
v -0.457895 7.421089 -0.273361
v -0.836839 7.266790 0.108770
v -0.877415 7.264948 0.080072
v -0.752706 7.987468 -0.358928
v -0.105646 7.599282 -0.264743
v -0.217804 3.870007 -0.338816
v 0.213576 2.261129 -0.067613
v -0.502573 4.532507 -0.258420
v -0.653041 5.554658 -0.633593
v -0.960052 7.485233 0.113044
v 0.012461 7.793336 -0.180300
v -0.207597 0.005301 -0.310328
v 0.849053 4.115868 0.299927
v 0.809157 4.393695 0.101132
v -0.224762 2.673434 0.104898
v -0.627946 5.718751 -0.526323
v -0.847713 6.001498 -0.444394
v -1.461921 6.618838 -0.674007
v -0.643253 5.349654 -0.678139
v -0.200296 6.107401 -1.141775
v -0.416779 6.456827 -0.421030
v -0.548067 7.149940 -0.226244
v -0.025815 7.796887 -0.146053
vn -0.5252 -0.7381 -0.4235
vn 0.5478 -0.6945 0.4664
vn 0.2749 -0.0045 -0.9615
vn 0.0824 -0.0118 -0.9965
vn -0.9979 -0.0628 -0.0156
vn -0.9885 0.0187 0.1501
vn 0.9055 0.0933 -0.4140
vn 0.7463 0.0829 -0.6604
vn 0.8277 0.0600 0.5579
vn 0.0973 -0.2032 0.9743
vn 0.9194 -0.2025 0.3372
vn -0.2550 0.0081 -0.9669
vn 0.3675 0.1330 -0.9205
vn 0.3872 0.1261 -0.9133
vn -0.1440 -0.0960 0.9849
vn -0.8165 -0.2912 -0.4985
vn -0.2307 -0.0468 0.9719
vn 0.9167 0.3982 -0.0342
vn -0.4867 0.3833 0.7850
vn -0.8396 -0.0539 -0.5405
vn 0.4054 0.9140 -0.0153
vn -0.4786 -0.6751 0.5614
vn -0.3078 0.7767 0.5496
vn 0.0522 0.7659 0.6408
vn 0.8574 0.4696 -0.2105
vn -0.3049 -0.2025 -0.9306
vn -0.8007 -0.3728 -0.4688
vn -0.1930 0.4393 -0.8773
vn 0.7327 0.3852 0.5611
vn -0.8968 -0.1325 -0.4220
vn 0.8682 -0.3848 0.3131
vn 0.8878 -0.3608 0.2857
vn -0.7502 0.4935 0.4402
vn 0.5551 0.1568 0.8169
vn 0.9954 0.0274 0.0923
vn 0.9977 -0.0125 -0.0669
vn -0.7324 0.0020 0.6809
vn 0.8594 -0.1584 -0.4861
vn -0.4174 0.0953 0.9037
vn 0.3715 0.2071 -0.9050
vn 0.4003 0.0915 -0.9118
vn 0.3476 0.0968 -0.9326
vn -0.3470 -0.2439 -0.9056
vn 0.5712 0.1882 0.7990
vn 0.0455 -0.6938 -0.7188
vn -0.9023 0.4302 0.0285
vn 0.9286 -0.3544 -0.1101
vn -0.8252 0.0952 0.5568
vn -0.8714 0.4382 0.2205
vn -0.8755 -0.4637 -0.1362
vn 0.3781 0.8638 0.3330
vn -0.4376 0.2735 0.8566
vn -0.4528 0.6801 -0.5766
vn -0.9468 0.3126 -0.0767
vn -0.1443 -0.0816 -0.9862
vn -0.3516 -0.7605 0.5459
vn 0.4401 0.6264 0.6433
vn -0.9197 -0.3926 0.0010
vn 0.1648 0.5262 -0.8342
vn 0.5897 0.2722 0.7604
vn -0.5883 -0.1006 -0.8024
vn -0.9730 -0.2176 0.0774
vn 0.4723 -0.0389 -0.8806
vn 0.6436 -0.0053 -0.7653
vn -0.5868 -0.7843 0.2016
vn -0.8018 -0.0758 -0.5928
vn 0.8829 0.0161 -0.4694
vn -0.8940 -0.0903 -0.4388
vn 0.9774 0.0735 0.1982
vn 0.5896 -0.2557 -0.7662
vn 0.7233 -0.5597 -0.4046
vn 0.8356 0.1065 0.5390
vn 0.8755 0.0114 -0.4831
vn 0.6614 -0.6556 0.3644
vn 0.8447 0.0553 0.5324
vn 0.8079 -0.0812 -0.5837
vn 0.9480 0.2250 -0.2253
vn 0.7706 0.5283 0.3564
vn 0.0198 0.4838 -0.8749
vn 0.4184 0.8646 -0.2782
vn 0.4172 0.8861 -0.2017
vn -0.1806 0.9660 -0.1851
vn -0.4567 0.8680 0.1949
vn 0.2735 -0.0021 -0.9619
vn 0.3608 -0.2498 0.8986
vn -0.4838 0.5796 -0.6557
vn -0.7448 0.5015 -0.4403
vn 0.6768 0.2910 -0.6762
vn 0.7095 0.5971 0.3742
vn 0.1838 0.1017 0.9777
vn -0.8144 -0.1760 0.5530
vn -0.8200 -0.1245 -0.5586
vn -0.4728 -0.0721 0.8782
vn 0.4177 0.8562 0.3041
vn 0.9335 0.3123 0.1762
vn 0.0690 -0.1422 0.9874
vn -0.1834 -0.1869 0.9651
vn -0.2356 -0.0217 0.9716
vn 0.4255 0.0500 0.9036
vn 0.5794 -0.0110 0.8150
vn -0.5622 0.1299 0.8167
vn 0.2754 0.1525 0.9491
vn -0.7741 -0.5990 0.2049
vn -0.7051 -0.6246 -0.3357
vn 0.7058 -0.0067 -0.7084
vn -0.8864 -0.2962 -0.3557
vn 0.0799 0.1524 -0.9851
vn 0.2808 0.7222 0.6321
vn 0.2980 0.0735 -0.9517
vn 0.6137 0.7688 -0.1799
vn 0.6831 0.7288 0.0475
vn -0.9178 -0.1931 0.3468
vn 0.3504 -0.1365 0.9266
vn -0.3027 0.9477 -0.1007
vn -0.6759 0.7311 0.0931
vn -0.0165 0.0315 -0.9994
vn 0.0232 -0.2303 -0.9729
vn 0.9344 -0.0325 0.3547
vn -0.5892 0.8065 -0.0496
vn 0.1368 0.9715 0.1935
vn 0.4277 -0.2128 0.8785
vn -0.1857 0.3204 0.9289
vn -0.0230 -0.1585 -0.9871
vn 0.1700 -0.1623 -0.9720
vn 0.2135 -0.3868 0.8971
vn 0.6319 -0.5704 0.5247
vn 0.9913 0.0065 -0.1317
vn -0.4499 0.2758 0.8494
vn -0.0729 0.4349 -0.8975
vn 0.6443 -0.3402 -0.6849
vn -0.3786 0.1510 0.9132
vn 0.9242 0.2698 -0.2705
vn 0.2252 -0.5348 0.8144
vn -0.2781 -0.0614 0.9586
vn 0.3018 0.0248 -0.9531
vn -0.3951 0.0463 0.9175
vn -0.6584 -0.0400 -0.7516
vn 0.5886 -0.0064 -0.8084
vn 0.0031 -0.9883 0.1527
vn -0.2247 -0.6888 0.6893
vn -0.3713 -0.9285 -0.0014
vn -0.0965 -0.9873 -0.1261
vn 0.5168 -0.7844 -0.3429
vn 0.0393 -0.9767 -0.2112
vn 0.3772 -0.8755 0.3021
vn -0.9956 0.0514 -0.0786
vn -0.9508 0.0592 0.3042
vn -0.1183 0.0347 -0.9924
vn -0.7822 0.0202 0.6227
vn 0.8212 -0.4813 0.3067
vn -0.8724 -0.0575 0.4854
vn -0.5539 -0.0212 -0.8323
vn -0.1882 0.1510 0.9705
vn 0.4440 -0.0075 -0.8960
vn 0.3073 -0.0009 -0.9516
vn 0.3555 -0.0216 -0.9344
vn -0.3956 0.1913 0.8983
vn -0.6060 0.7443 -0.2807
vn 0.3696 0.4539 0.8108
vn 0.6868 0.4818 0.5443
vn 0.5509 0.0458 0.8333
vn -0.1903 0.9250 0.3288
vn -0.9839 0.0676 -0.1657
vn -0.7205 -0.5325 -0.4442
vn -0.9044 -0.0307 0.4256
vn -0.5698 0.0612 -0.8195
vn 0.8506 0.4798 -0.2151
vn -0.2753 -0.0557 0.9597
vn -0.3218 0.0825 0.9432
vn -0.3310 0.0693 0.9411
vn -0.8544 -0.3711 -0.3638
vn 0.9822 -0.0797 0.1701
vn 0.6077 0.0300 -0.7936
vn -0.1644 -0.1890 0.9681
vn -0.0233 0.1670 0.9857
vn -0.4655 0.1484 0.8725
vn -0.8936 -0.0232 0.4482
vn -0.6641 -0.0932 -0.7418
vn -0.6259 -0.1381 -0.7676
vn -0.4950 0.0693 0.8661
vn 0.7030 0.0409 0.7100
vn 0.1645 0.1000 0.9813
vn -0.9528 0.3029 -0.0203
vn 0.6272 0.2976 -0.7198
vn 0.3800 0.8196 0.4288
vn -0.1287 -0.2819 -0.9508
vn 0.7128 -0.0401 -0.7003
vn -0.2635 -0.1820 -0.9473
vn 0.8386 0.5166 0.1727
vn -0.6904 0.2093 -0.6925
vn 0.5177 0.6125 -0.5973
vn 0.4474 0.5570 0.6997
vn 0.3184 -0.5389 -0.7799
vn -0.3310 0.9331 -0.1403
vn -0.5359 0.8303 0.1531
vn 0.7815 -0.6128 0.1170
vn 0.5737 -0.7832 -0.2398
vn -0.7360 0.0133 -0.6769
vn -0.5951 0.8025 -0.0434
vn -0.2804 -0.0213 0.9596
vn -0.8196 -0.2757 -0.5022
vn -0.4868 0.0155 0.8734
vn 0.2696 0.4411 0.8560
vn 0.7767 0.5451 -0.3157
vn 0.3031 -0.1054 -0.9471
vn -0.9355 -0.0162 -0.3530
vn 0.8231 -0.1361 -0.5513
vn 0.5535 -0.1259 0.8233
vn 0.2837 0.1170 -0.9518
vn -0.6390 0.0455 0.7679
vn -0.7381 0.6718 -0.0628
vn 0.2622 0.2762 0.9247
vn 0.4508 0.8901 -0.0669
vn -0.2910 -0.0746 -0.9538
vn 0.1943 -0.0435 -0.9800
vn 0.0097 -0.6353 0.7722
vn 0.5859 0.3159 0.7462
vn -0.5377 -0.3185 0.7807
vn -0.6916 0.2152 0.6895
vn 0.6780 -0.1648 0.7164
vn -0.9662 0.0204 -0.2569
vn -0.0272 -0.9995 -0.0144
vn 0.9944 0.0576 -0.0884
vn 0.2596 -0.9646 -0.0465
vn -0.9361 -0.0302 -0.3503
vn -0.3736 0.0104 -0.9275
vn 0.4843 0.0541 -0.8732
vn -0.9976 -0.0670 0.0152
vn 0.6142 0.2128 -0.7599
vn -0.8522 0.0975 0.5141
vn 0.8991 -0.2289 0.3731
vn 0.7181 -0.4867 -0.4974
vn 0.7330 -0.6718 -0.1070
vn 0.6087 -0.6469 0.4593
vn -0.5897 0.2016 0.7820
vn -0.8645 -0.0646 0.4984
vn 0.5852 0.8106 0.0218
vn 0.0350 0.4771 -0.8782
vn -0.4246 0.7945 -0.4341
vn -0.5551 0.7160 0.4233
vn -0.5788 0.7193 -0.3843
vn 0.3811 0.2684 0.8847
vn 0.3715 0.0207 -0.9282
vn 0.5817 -0.0058 0.8134
vn -0.8912 0.3676 0.2656
vn -0.1302 0.4122 -0.9017
vn 0.0656 0.0215 0.9976
vn -0.0423 -0.0541 0.9976
vn -0.1212 -0.0626 0.9907
vn 0.6480 -0.0139 0.7615
vn 0.2837 -0.0780 0.9557
vn -0.3864 0.0378 0.9216
vn -0.1649 -0.3124 0.9355
vn -0.1569 -0.0282 0.9872
vn -0.8018 -0.3193 -0.5050
vn -0.7734 -0.2113 -0.5977
vn 0.4008 0.9160 -0.0196
vn -0.2437 0.5788 -0.7782
vn 0.3121 0.8343 -0.4546
vn 0.1549 -0.4565 0.8761
vn -0.9847 -0.1381 -0.1067
vn -0.7484 -0.0920 -0.6568
vn 0.8036 0.5919 -0.0622
vn 0.5934 0.4203 -0.6865
vn 0.2495 0.8372 -0.4867
vn 0.7027 0.3754 -0.6044
vn -0.8918 -0.3500 0.2868
vn -0.8346 -0.2580 0.4867
vn 0.2084 0.6030 -0.7700
vn 0.0694 0.2827 -0.9567
vn -0.5597 0.1535 -0.8143
vn -0.3794 -0.2523 0.8902
vn -0.2040 -0.0077 0.9789
vn -0.9246 -0.0509 0.3775
vn -0.8743 0.4663 0.1348
vn 0.0303 0.1612 0.9865
vn -0.7517 -0.6241 -0.2130
vn 0.9375 -0.0340 0.3463
vn 0.7570 -0.0179 -0.6532
vn -0.9098 0.2852 -0.3017
vn 0.3050 0.1740 -0.9363
vn 0.9606 -0.1759 -0.2151
vn -0.2926 -0.0371 0.9555
vn -0.5374 -0.2265 0.8123
vn -0.9317 -0.2244 -0.2857
vn -0.9557 -0.2438 -0.1649
vn -0.5711 -0.1974 0.7968
vn -0.4972 -0.1922 0.8461
vn 0.2939 -0.5525 -0.7800
vn -0.2010 -0.1208 -0.9721
vn -0.6839 0.6248 -0.3767
vn 0.7389 -0.1092 0.6649
vn 0.3493 0.6328 0.6911
vn -0.3434 -0.4776 -0.8087
vn -0.2294 0.9141 -0.3342
vn 0.5874 0.5820 0.5624
vn 0.8975 -0.3175 -0.3060
vn 0.9287 -0.3543 -0.1098
vn -0.0072 -0.1455 0.9893
vn -0.3765 0.7878 0.4875
vn 0.1726 0.3264 0.9293
vn -0.8575 0.2322 -0.4592
vn 0.9717 -0.1976 -0.1295
vn 0.5191 0.0570 0.8528
vn 0.9628 -0.1956 -0.1864
vn -0.3203 0.2012 0.9257
vn -0.9803 0.0003 -0.1976
vn 0.8359 0.4971 -0.2328
vn 0.7568 -0.5642 -0.3300
vn 0.5103 -0.0974 0.8544
vn 0.2273 0.0226 -0.9736
vn -0.2657 0.0867 0.9601
vn 0.1823 0.0999 -0.9781
vn 0.8126 0.2675 -0.5179
vn -0.9186 -0.3814 -0.1032
vn 0.9358 0.3165 -0.1554
vn 0.6179 -0.1138 0.7780
vn 0.6694 0.2763 0.6896
vn -0.1503 -0.0482 0.9875
vn 0.0475 0.9358 -0.3493
vn -0.7189 0.0134 -0.6950
vn -0.5392 0.2230 -0.8121
vn -0.7381 -0.6707 -0.0733
vn -0.1654 0.9835 0.0731
vn -0.3034 0.8863 -0.3499
vn -0.0941 0.0786 0.9925
vn -0.0878 -0.0100 -0.9961
vn 0.9859 -0.0576 0.1569
vn 0.6318 -0.3734 0.6792
vn 0.9890 -0.1360 -0.0579
vn 0.9855 -0.1038 0.1342
vn 0.9976 0.0392 -0.0563
vn -0.8881 -0.0156 0.4594
vn -0.8320 -0.4640 -0.3041
vn -0.6666 -0.4302 0.6087
vn 0.3516 0.0330 -0.9356
vn -0.7711 0.0291 -0.6361
vn -0.0290 -0.9995 -0.0117
vn 0.9965 0.0791 0.0273
vn 0.6852 0.0485 -0.7267
vn 0.5574 -0.7102 0.4301
vn -0.5941 0.0761 0.8008
vn 0.7484 0.3002 -0.5914
vn 0.2703 0.0082 -0.9627
usemtl tree_bark_dark
s off
f 3/0/1 163/0/1 4/0/1
f 37/0/2 113/0/2 1/0/2
f 65/0/3 111/0/3 112/0/3
f 112/0/4 4/0/4 65/0/4
f 90/0/5 25/0/5 91/0/5
f 89/0/6 25/0/6 90/0/6
f 69/0/7 85/0/7 92/0/7
f 95/0/8 69/0/8 92/0/8
f 85/0/9 94/0/9 67/0/9
f 94/0/10 5/0/10 36/0/10
f 5/0/11 94/0/11 85/0/11
f 28/0/12 96/0/12 117/0/12
f 28/0/13 117/0/13 69/0/13
f 28/0/14 69/0/14 95/0/14
f 97/0/15 5/0/15 123/0/15
f 99/0/16 98/0/16 91/0/16
f 164/0/17 123/0/17 5/0/17
f 104/0/18 159/0/18 157/0/18
f 7/0/19 106/0/19 68/0/19
f 35/0/20 34/0/20 7/0/20
f 106/0/21 108/0/21 107/0/21
f 42/0/22 119/0/22 166/0/22
f 110/0/23 109/0/23 39/0/23
f 40/0/24 101/0/24 116/0/24
f 116/0/25 80/0/25 159/0/25
f 8/0/26 117/0/26 98/0/26
f 98/0/27 99/0/27 8/0/27
f 9/0/28 118/0/28 108/0/28
f 107/0/29 118/0/29 32/0/29
f 9/0/30 119/0/30 110/0/30
f 6/0/31 164/0/31 43/0/31
f 43/0/32 120/0/32 6/0/32
f 122/0/33 100/0/33 123/0/33
f 72/0/34 158/0/34 124/0/34
f 11/0/35 104/0/35 167/0/35
f 11/0/36 167/0/36 12/0/36
f 73/0/37 126/0/37 30/0/37
f 103/0/38 12/0/38 128/0/38
f 103/0/39 74/0/39 73/0/39
f 127/0/40 14/0/40 131/0/40
f 61/0/41 172/0/41 17/0/41
f 17/0/42 56/0/42 61/0/42
f 133/0/43 75/0/43 76/0/43
f 135/0/44 138/0/44 136/0/44
f 59/0/45 139/0/45 76/0/45
f 82/0/46 137/0/46 55/0/46
f 21/0/47 128/0/47 17/0/47
f 74/0/48 77/0/48 57/0/48
f 137/0/49 136/0/49 55/0/49
f 14/0/50 140/0/50 51/0/50
f 145/0/51 162/0/51 174/0/51
f 146/0/52 78/0/52 142/0/52
f 174/0/53 162/0/53 147/0/53
f 62/0/54 149/0/54 19/0/54
f 28/0/55 65/0/55 66/0/55
f 153/0/56 154/0/56 134/0/56
f 142/0/57 152/0/57 148/0/57
f 83/0/58 144/0/58 79/0/58
f 151/0/59 161/0/59 18/0/59
f 63/0/60 18/0/60 153/0/60
f 151/0/61 154/0/61 161/0/61
f 19/0/62 53/0/62 83/0/62
f 22/0/63 65/0/63 95/0/63
f 95/0/64 92/0/64 22/0/64
f 2/0/65 115/0/65 3/0/65
f 96/0/66 66/0/66 89/0/66
f 22/0/67 114/0/67 111/0/67
f 96/0/68 90/0/68 98/0/68
f 158/0/69 113/0/69 37/0/69
f 69/0/70 121/0/70 43/0/70
f 43/0/71 27/0/71 69/0/71
f 113/0/72 158/0/72 72/0/72
f 114/0/73 22/0/73 92/0/73
f 43/0/74 164/0/74 93/0/74
f 67/0/75 158/0/75 85/0/75
f 26/0/76 85/0/76 69/0/76
f 104/0/77 11/0/77 159/0/77
f 6/0/78 31/0/78 29/0/78
f 102/0/79 81/0/79 121/0/79
f 44/0/80 31/0/80 105/0/80
f 31/0/81 165/0/81 105/0/81
f 101/0/82 102/0/82 41/0/82
f 101/0/83 40/0/83 123/0/83
f 133/0/84 104/0/84 117/0/84
f 32/0/85 42/0/85 67/0/85
f 105/0/86 165/0/86 81/0/86
f 81/0/87 122/0/87 105/0/87
f 120/0/88 165/0/88 31/0/88
f 107/0/89 32/0/89 94/0/89
f 33/0/90 124/0/90 67/0/90
f 35/0/91 166/0/91 34/0/91
f 125/0/92 75/0/92 133/0/92
f 30/0/93 68/0/93 97/0/93
f 40/0/94 116/0/94 70/0/94
f 32/0/95 118/0/95 109/0/95
f 42/0/96 32/0/96 109/0/96
f 109/0/97 110/0/97 42/0/97
f 10/0/98 88/0/98 1/0/98
f 72/0/99 87/0/99 1/0/99
f 1/0/100 113/0/100 72/0/100
f 45/0/101 88/0/101 10/0/101
f 72/0/102 124/0/102 87/0/102
f 140/0/103 125/0/103 73/0/103
f 46/0/104 125/0/104 14/0/104
f 16/0/105 167/0/105 52/0/105
f 46/0/106 54/0/106 125/0/106
f 48/0/107 56/0/107 127/0/107
f 141/0/108 74/0/108 168/0/108
f 131/0/109 14/0/109 86/0/109
f 130/0/110 168/0/110 131/0/110
f 131/0/111 86/0/111 130/0/111
f 30/0/112 126/0/112 132/0/112
f 49/0/113 134/0/113 15/0/113
f 169/0/114 129/0/114 13/0/114
f 13/0/115 51/0/115 169/0/115
f 127/0/116 54/0/116 46/0/116
f 52/0/117 104/0/117 133/0/117
f 52/0/118 170/0/118 160/0/118
f 57/0/119 48/0/119 168/0/119
f 48/0/120 131/0/120 168/0/120
f 21/0/121 15/0/121 128/0/121
f 57/0/122 168/0/122 74/0/122
f 139/0/123 59/0/123 82/0/123
f 82/0/124 171/0/124 139/0/124
f 146/0/125 142/0/125 84/0/125
f 20/0/126 146/0/126 84/0/126
f 61/0/127 49/0/127 172/0/127
f 142/0/128 78/0/128 152/0/128
f 162/0/129 156/0/129 147/0/129
f 61/0/130 156/0/130 20/0/130
f 146/0/131 174/0/131 78/0/131
f 149/0/132 62/0/132 64/0/132
f 63/0/133 134/0/133 49/0/133
f 79/0/134 148/0/134 83/0/134
f 64/0/135 143/0/135 144/0/135
f 19/0/136 83/0/136 62/0/136
f 53/0/137 19/0/137 149/0/137
f 20/0/138 156/0/138 162/0/138
f 2/0/139 24/0/139 1/0/139
f 2/0/140 1/0/140 88/0/140
f 88/0/141 115/0/141 2/0/141
f 3/0/142 4/0/142 112/0/142
f 111/0/143 114/0/143 112/0/143
f 24/0/144 114/0/144 37/0/144
f 37/0/145 1/0/145 24/0/145
f 25/0/146 89/0/146 115/0/146
f 88/0/147 25/0/147 115/0/147
f 4/0/148 66/0/148 65/0/148
f 91/0/149 25/0/149 45/0/149
f 27/0/150 93/0/150 26/0/150
f 91/0/151 7/0/151 68/0/151
f 117/0/152 96/0/152 98/0/152
f 40/0/153 70/0/153 97/0/153
f 157/0/154 41/0/154 117/0/154
f 102/0/155 69/0/155 117/0/155
f 102/0/156 121/0/156 69/0/156
f 40/0/157 97/0/157 123/0/157
f 81/0/158 102/0/158 100/0/158
f 70/0/159 116/0/159 159/0/159
f 70/0/160 159/0/160 103/0/160
f 36/0/161 107/0/161 94/0/161
f 7/0/162 38/0/162 106/0/162
f 7/0/163 34/0/163 38/0/163
f 3/0/164 23/0/164 163/0/164
f 91/0/165 45/0/165 35/0/165
f 34/0/166 9/0/166 38/0/166
f 109/0/167 118/0/167 39/0/167
f 6/0/168 44/0/168 123/0/168
f 70/0/169 103/0/169 30/0/169
f 30/0/170 97/0/170 70/0/170
f 8/0/171 99/0/171 132/0/171
f 120/0/172 31/0/172 6/0/172
f 56/0/173 16/0/173 127/0/173
f 6/0/174 123/0/174 164/0/174
f 71/0/175 10/0/175 124/0/175
f 45/0/176 10/0/176 71/0/176
f 125/0/177 126/0/177 73/0/177
f 58/0/178 75/0/178 54/0/178
f 58/0/179 59/0/179 75/0/179
f 73/0/180 30/0/180 103/0/180
f 11/0/181 12/0/181 103/0/181
f 128/0/182 74/0/182 103/0/182
f 47/0/183 57/0/183 77/0/183
f 129/0/184 86/0/184 13/0/184
f 141/0/185 168/0/185 130/0/185
f 14/0/186 127/0/186 46/0/186
f 61/0/187 56/0/187 47/0/187
f 8/0/188 133/0/188 117/0/188
f 169/0/189 86/0/189 129/0/189
f 58/0/190 137/0/190 59/0/190
f 16/0/191 160/0/191 127/0/191
f 160/0/192 135/0/192 127/0/192
f 52/0/193 133/0/193 76/0/193
f 127/0/194 135/0/194 58/0/194
f 135/0/195 136/0/195 58/0/195
f 138/0/196 170/0/196 139/0/196
f 76/0/197 139/0/197 170/0/197
f 66/0/198 23/0/198 89/0/198
f 56/0/199 48/0/199 57/0/199
f 77/0/200 74/0/200 15/0/200
f 51/0/201 13/0/201 14/0/201
f 140/0/202 141/0/202 51/0/202
f 141/0/203 130/0/203 169/0/203
f 169/0/204 130/0/204 86/0/204
f 13/0/205 86/0/205 14/0/205
f 144/0/206 77/0/206 79/0/206
f 84/0/207 49/0/207 61/0/207
f 84/0/208 150/0/208 49/0/208
f 61/0/209 47/0/209 144/0/209
f 173/0/210 148/0/210 79/0/210
f 78/0/211 174/0/211 147/0/211
f 148/0/212 152/0/212 155/0/212
f 173/0/213 18/0/213 150/0/213
f 66/0/214 96/0/214 28/0/214
f 28/0/215 95/0/215 65/0/215
f 63/0/216 153/0/216 134/0/216
f 18/0/217 161/0/217 153/0/217
f 154/0/218 153/0/218 161/0/218
f 145/0/219 174/0/219 146/0/219
f 21/0/220 49/0/220 15/0/220
f 23/0/221 115/0/221 89/0/221
f 24/0/222 3/0/222 112/0/222
f 37/0/223 92/0/223 158/0/223
f 24/0/224 112/0/224 114/0/224
f 89/0/225 90/0/225 96/0/225
f 163/0/226 66/0/226 4/0/226
f 22/0/227 111/0/227 65/0/227
f 90/0/228 91/0/228 98/0/228
f 120/0/229 121/0/229 165/0/229
f 25/0/230 88/0/230 45/0/230
f 26/0/231 5/0/231 85/0/231
f 69/0/232 27/0/232 26/0/232
f 27/0/233 43/0/233 93/0/233
f 93/0/234 164/0/234 5/0/234
f 97/0/235 68/0/235 106/0/235
f 99/0/236 91/0/236 68/0/236
f 31/0/237 44/0/237 29/0/237
f 102/0/238 117/0/238 41/0/238
f 101/0/239 100/0/239 102/0/239
f 123/0/240 100/0/240 101/0/240
f 81/0/241 100/0/241 122/0/241
f 103/0/242 159/0/242 11/0/242
f 104/0/243 157/0/243 117/0/243
f 32/0/244 67/0/244 94/0/244
f 105/0/245 122/0/245 44/0/245
f 121/0/246 81/0/246 165/0/246
f 71/0/247 124/0/247 33/0/247
f 97/0/248 106/0/248 36/0/248
f 36/0/249 5/0/249 97/0/249
f 124/0/250 158/0/250 67/0/250
f 67/0/251 166/0/251 33/0/251
f 33/0/252 45/0/252 71/0/252
f 33/0/253 166/0/253 35/0/253
f 33/0/254 35/0/254 45/0/254
f 34/0/255 166/0/255 119/0/255
f 119/0/256 9/0/256 34/0/256
f 36/0/257 106/0/257 107/0/257
f 38/0/258 108/0/258 106/0/258
f 38/0/259 9/0/259 108/0/259
f 67/0/260 42/0/260 166/0/260
f 133/0/261 126/0/261 125/0/261
f 125/0/262 54/0/262 75/0/262
f 41/0/263 80/0/263 116/0/263
f 157/0/264 80/0/264 41/0/264
f 116/0/265 101/0/265 41/0/265
f 157/0/266 159/0/266 80/0/266
f 68/0/267 132/0/267 99/0/267
f 68/0/268 30/0/268 132/0/268
f 108/0/269 118/0/269 107/0/269
f 39/0/270 118/0/270 9/0/270
f 39/0/271 9/0/271 110/0/271
f 42/0/272 110/0/272 119/0/272
f 10/0/273 1/0/273 87/0/273
f 50/0/274 79/0/274 77/0/274
f 122/0/275 123/0/275 44/0/275
f 87/0/276 124/0/276 10/0/276
f 14/0/277 125/0/277 140/0/277
f 52/0/278 160/0/278 16/0/278
f 167/0/279 104/0/279 52/0/279
f 47/0/280 56/0/280 57/0/280
f 127/0/281 131/0/281 48/0/281
f 167/0/282 128/0/282 12/0/282
f 141/0/283 73/0/283 74/0/283
f 140/0/284 73/0/284 141/0/284
f 126/0/285 133/0/285 8/0/285
f 8/0/286 132/0/286 126/0/286
f 50/0/287 15/0/287 134/0/287
f 50/0/288 77/0/288 15/0/288
f 170/0/289 52/0/289 76/0/289
f 64/0/290 144/0/290 53/0/290
f 127/0/291 58/0/291 54/0/291
f 170/0/292 138/0/292 160/0/292
f 160/0/293 138/0/293 135/0/293
f 75/0/294 59/0/294 76/0/294
f 171/0/295 82/0/295 55/0/295
f 55/0/296 60/0/296 171/0/296
f 16/0/297 17/0/297 167/0/297
f 167/0/298 17/0/298 128/0/298
f 128/0/299 15/0/299 74/0/299
f 58/0/300 136/0/300 137/0/300
f 55/0/301 136/0/301 60/0/301
f 82/0/302 59/0/302 137/0/302
f 60/0/303 138/0/303 139/0/303
f 60/0/304 136/0/304 138/0/304
f 60/0/305 139/0/305 171/0/305
f 51/0/306 141/0/306 169/0/306
f 144/0/307 47/0/307 77/0/307
f 64/0/308 152/0/308 143/0/308
f 20/0/309 84/0/309 61/0/309
f 142/0/310 150/0/310 84/0/310
f 61/0/311 147/0/311 156/0/311
f 142/0/312 148/0/312 173/0/312
f 147/0/313 144/0/313 143/0/313
f 64/0/314 62/0/314 155/0/314
f 53/0/315 144/0/315 83/0/315
f 62/0/316 148/0/316 155/0/316
f 150/0/317 63/0/317 49/0/317
f 63/0/318 150/0/318 18/0/318
f 150/0/319 142/0/319 173/0/319
f 173/0/320 151/0/320 18/0/320
f 151/0/321 173/0/321 50/0/321
f 50/0/322 154/0/322 151/0/322
f 134/0/323 154/0/323 50/0/323
f 152/0/324 78/0/324 147/0/324
f 152/0/325 147/0/325 143/0/325
f 83/0/326 148/0/326 62/0/326
f 53/0/327 149/0/327 64/0/327
f 145/0/328 20/0/328 162/0/328
f 145/0/329 146/0/329 20/0/329
f 17/0/330 172/0/330 21/0/330
f 49/0/331 21/0/331 172/0/331
f 92/0/332 85/0/332 158/0/332
f 91/0/333 35/0/333 7/0/333
f 3/0/334 115/0/334 23/0/334
f 6/0/335 29/0/335 44/0/335
f 56/0/336 17/0/336 16/0/336
f 66/0/337 163/0/337 23/0/337
f 24/0/338 2/0/338 3/0/338
f 37/0/339 114/0/339 92/0/339
f 120/0/340 43/0/340 121/0/340
f 26/0/341 93/0/341 5/0/341
f 50/0/342 173/0/342 79/0/342
f 64/0/343 155/0/343 152/0/343
f 61/0/344 144/0/344 147/0/344
