# Blender v3.5.1 OBJ File: 'tree-open.blend'
# www.blender.org
mtllib tree_open_up.mtl
o leaves_Icosphere
v -1.558457 7.245957 -0.725373
v -1.969320 6.368321 -0.106906
v -1.532411 6.572922 -0.593628
v -0.544935 6.506113 -0.612323
v -0.510089 6.670286 -0.824163
v -1.474010 6.692822 0.236023
v -1.466781 6.465857 0.179473
v -0.626115 6.634327 -0.271170
v -2.479771 6.408175 -0.718795
v -1.946896 6.535575 0.101458
v -1.882148 6.938511 -0.050031
v -2.560378 6.598518 -0.738905
v -0.819042 6.468480 -1.207523
v -1.633830 6.431607 -1.450714
v -1.527606 6.918940 -1.224793
v -1.331444 7.206260 -0.426713
v -1.713670 7.239682 -0.481117
v -2.446403 6.818326 -0.686066
v -1.966338 6.902480 -1.197783
v -1.550108 6.991273 0.054765
v -0.857249 6.938920 -0.915110
v -0.874650 6.666624 -1.185304
v -0.701722 6.892015 -0.584293
v -2.116694 6.350354 -1.186150
v -1.276377 6.376853 -1.195852
v 0.300755 5.402857 0.224477
v 1.726063 4.140186 -0.286110
v 1.735985 4.090047 0.305205
v 1.567888 4.137124 -0.945939
v 2.099440 4.065081 0.736560
v 2.192920 4.588542 -0.188417
v 1.942536 4.292752 1.121181
v 1.511094 4.704262 0.998574
v -0.575216 4.536742 0.291857
v 0.599758 4.214539 1.359836
v -0.590684 4.727609 0.069722
v -0.236856 5.153210 0.066896
v 1.712508 4.302900 -1.070185
v 0.549874 4.528557 -1.280177
v 0.801745 5.004455 -0.944950
v 0.203134 5.185684 0.883147
v 1.558333 4.926180 0.508408
v 1.730479 4.928132 -0.378097
v 0.140857 5.029604 -0.756351
v 0.517321 5.245061 0.779862
v 1.678836 4.611276 -1.029728
v -0.469306 4.966719 0.362174
v 0.829754 4.905676 1.318282
v 0.985569 4.417190 1.552606
v 2.186224 4.478320 0.732340
v 2.010924 4.850276 0.345256
v 1.199681 4.660562 -1.064701
v 0.609613 4.231134 -1.227620
v -0.069802 4.398228 -0.676693
v -0.203246 4.319136 -0.243275
v 0.065780 4.461699 1.199476
v 1.448614 4.125597 1.319036
v 2.138910 4.289481 0.171878
v 1.052072 4.095755 -0.732452
v -0.321177 4.409666 0.332663
v 0.899349 4.369651 0.359642
v -1.938879 3.647250 0.925525
v -1.099175 4.441572 0.511461
v -0.956636 3.670737 1.397690
v -0.012196 3.797175 0.849790
v -0.737059 3.904552 0.443882
v 0.155367 3.868023 0.120833
v -0.324129 3.836833 1.638270
v -1.042513 3.799874 1.711825
v -1.767971 4.014421 0.276836
v -0.913561 3.923818 -0.649280
v -0.001632 4.218284 0.607367
v -1.151982 4.098463 -0.473608
v -0.209781 4.354177 0.846713
v -0.359933 4.264097 -0.019811
v -1.046076 4.384038 1.034678
v -0.321964 4.217678 1.338069
v 0.173556 3.960569 1.099988
v -1.894498 3.999394 0.805829
v -0.853371 4.105677 1.605768
v -0.284110 3.829638 -0.298459
v -1.911044 3.683492 0.193388
v -1.059789 3.740144 -0.580495
v -1.508896 3.545149 1.054134
v -0.277824 5.946763 -0.556397
v 0.293466 5.967594 -1.036669
v 0.492929 6.173522 -1.166185
v 0.419718 6.051463 -0.792207
v 0.372495 6.322675 -0.770706
v -0.586688 6.354606 -0.734389
v -0.368010 5.975829 -1.728124
v -0.895369 6.199183 -1.094161
v -0.449640 6.374678 -1.581600
v 0.316141 6.409594 -1.249536
v -0.252611 6.574218 -0.938187
v 0.240008 6.108737 -1.666475
v -0.097858 6.206572 -0.449395
v -0.345466 6.180100 -1.733718
v -0.856269 6.023347 -1.095169
v -0.559332 6.050819 -0.616574
v -0.119536 5.909366 -1.607194
v -0.496814 8.697394 -0.888043
v -1.442462 8.825605 -0.215361
v -0.435477 8.330088 1.017202
v -2.128626 8.071336 -0.539429
v -1.331713 8.209851 1.055355
v -1.227221 8.076704 -1.580555
v -2.020511 8.465878 -0.548741
v -1.146212 8.264577 -1.667268
v -1.378287 8.482643 -1.445043
v 0.140551 8.365885 -0.746596
v -0.245399 8.790712 -0.029731
v -1.358966 8.800001 0.282416
v -1.597769 8.326107 -1.430037
v -0.467305 8.718782 0.604020
v 0.125353 8.437531 0.375018
v -2.146187 8.453173 0.023345
v -2.143583 8.152394 0.209370
v -1.024158 8.410539 1.134322
v -0.034450 8.559628 -0.098543
v -0.379520 8.218769 -1.229612
v -0.944780 8.205887 -0.350394
v -0.098924 8.230223 -0.319249
v -1.765899 8.020636 0.287471
v -0.928793 7.428051 0.098644
v -0.829371 7.423103 0.719565
v -0.459761 7.434902 0.677270
v -1.198612 7.471370 -0.563468
v -0.588512 7.607916 -0.227903
v -0.958835 7.834953 0.154680
v -1.294986 7.707065 0.233513
v -0.547989 7.652083 0.354422
v -0.311784 7.382569 0.340794
v -1.351219 7.394256 0.317838
v -0.457052 7.363707 -0.198533
v -0.997598 7.324841 -0.441717
v -1.402539 7.359714 -0.024470
v -0.784271 7.522859 0.784248
v 0.782212 7.771892 -0.268172
v 0.635429 7.869713 0.224629
v 0.091395 7.666985 0.568894
v -0.711894 7.761404 -0.123750
v 0.473855 7.658375 -0.751650
v -0.254868 8.018534 -0.685089
v -0.060145 8.182795 0.015993
v 0.626102 7.992802 -0.288735
v -0.642847 8.008016 -0.049694
v -0.134905 8.046635 0.355987
v 0.478183 7.848451 -0.742175
v -0.152373 7.857567 -0.827291
v -0.348892 7.708561 0.414328
v -0.207089 7.645020 -0.792898
v 0.130277 7.712951 -0.047721
v 0.648960 7.615716 0.125641
vn 0.2977 0.6628 -0.6871
vn 0.2181 0.8226 -0.5252
vn -0.0651 0.8330 -0.5495
vn -0.4341 0.8644 -0.2537
vn -0.4265 0.8670 -0.2576
vn 0.0764 0.9943 0.0741
vn 0.0204 0.9094 0.4153
vn -0.5383 0.7750 0.3311
vn -0.2819 0.8347 0.4730
vn 0.3615 0.9198 -0.1525
vn 0.4302 0.8996 -0.0747
vn 0.4811 0.6982 0.5302
vn 0.6315 0.7517 -0.1903
vn 0.6769 0.2669 -0.6860
vn 0.5836 0.5529 -0.5948
vn -0.0716 0.4323 -0.8989
vn -0.6764 0.4842 -0.5550
vn -0.3327 0.3782 0.8638
vn -0.1899 -0.2431 0.9512
vn -0.3732 0.4102 0.8321
vn 0.4595 0.7370 0.4956
vn 0.2000 0.3759 -0.9048
vn 0.2736 0.1827 -0.9443
vn 0.1673 -0.8893 -0.4257
vn -0.4922 0.1159 -0.8627
vn -0.6539 0.1625 -0.7389
vn -0.7537 -0.3761 -0.5390
vn -0.7483 0.2393 0.6187
vn -0.7488 0.3353 0.5717
vn -0.7863 -0.2745 0.5535
vn -0.6581 -0.5510 0.5131
vn -0.2107 -0.7511 0.6256
vn 0.4581 0.5438 0.7031
vn 0.4935 -0.1954 0.8475
vn 0.8403 0.5003 0.2088
vn 0.9760 0.0623 0.2088
vn 0.7610 -0.5674 -0.3146
vn -0.2785 -0.9418 0.1882
vn 0.2340 -0.9634 0.1312
vn 0.1378 -0.9643 0.2263
vn 0.1958 -0.9544 -0.2255
vn 0.2724 -0.9497 -0.1546
vn 0.1957 -0.9803 -0.0281
vn -0.0972 -0.9390 0.3298
vn -0.0399 -0.9550 0.2940
vn 0.1185 -0.9821 -0.1461
vn 0.4006 0.8619 0.3108
vn 0.2181 0.9485 -0.2297
vn -0.0631 0.9361 -0.3460
vn -0.3328 0.8981 -0.2875
vn -0.4625 0.8602 0.2151
vn -0.0805 0.9501 0.3013
vn 0.3232 0.9359 0.1399
vn 0.0130 0.8493 0.5278
vn 0.3401 0.9379 0.0681
vn 0.3635 0.8350 0.4131
vn 0.1782 0.9833 0.0368
vn 0.6262 0.7630 -0.1606
vn 0.8443 0.1593 -0.5116
vn 0.6437 0.6669 -0.3753
vn -0.1907 0.6308 -0.7522
vn -0.7543 0.6258 -0.1986
vn -0.7989 -0.4826 -0.3590
vn -0.9521 0.1961 0.2348
vn -0.4422 0.8735 0.2036
vn -0.3774 0.4300 0.8202
vn -0.3600 -0.1845 0.9145
vn -0.3256 0.3225 0.8888
vn 0.4565 0.6573 0.5997
vn 0.4466 0.7376 0.5065
vn 0.2947 0.8595 0.4176
vn 0.8698 -0.1780 0.4602
vn 0.1236 0.8885 -0.4418
vn 0.4178 0.6895 -0.5917
vn 0.1788 0.5016 -0.8464
vn 0.0863 0.1389 -0.9865
vn 0.1261 0.1957 -0.9725
vn 0.3313 -0.0993 -0.9383
vn 0.1473 -0.6723 -0.7255
vn -0.6460 -0.2568 -0.7188
vn -0.7028 0.5815 -0.4098
vn -0.7058 0.1481 -0.6928
vn -0.9305 0.2808 -0.2353
vn -0.7123 -0.1502 -0.6857
vn -0.4446 -0.8470 -0.2915
vn -0.8083 0.1043 0.5795
vn -0.6386 0.4066 0.6533
vn -0.4651 -0.8467 0.2584
vn -0.4688 -0.8442 0.2600
vn 0.4095 0.4975 0.7648
vn -0.0325 -0.6557 0.7543
vn 0.4692 0.6650 0.5810
vn 0.3984 -0.0978 0.9120
vn 0.4602 -0.6689 0.5837
vn 0.9785 -0.2056 -0.0133
vn 0.8755 0.4789 0.0637
vn 0.9803 -0.1968 -0.0164
vn 0.8207 -0.4941 -0.2871
vn 0.3293 -0.8851 -0.3287
vn 0.4197 -0.9038 -0.0837
vn 0.5079 -0.8417 -0.1834
vn 0.6813 -0.7143 -0.1600
vn 0.0745 -0.9971 -0.0132
vn -0.0233 -0.9694 -0.2442
vn -0.0888 -0.9690 0.2306
vn -0.0371 -0.9705 0.2382
vn -0.2058 -0.9751 -0.0827
vn -0.1248 -0.9838 0.1291
vn -0.4529 -0.8903 0.0472
vn -0.0288 -0.9864 -0.1616
vn -0.3205 -0.9443 -0.0747
vn -0.1112 -0.9765 -0.1847
vn -0.3198 -0.9457 -0.0575
vn -0.0823 -0.9965 0.0116
vn 0.0587 0.9929 0.1032
vn 0.1226 0.9078 0.4011
vn 0.1443 0.9813 -0.1270
vn -0.0093 0.9445 -0.3285
vn -0.4482 0.8514 -0.2725
vn -0.5110 0.8540 -0.0980
vn -0.4403 0.8865 0.1422
vn 0.2568 0.5974 0.7597
vn -0.0772 0.9650 0.2505
vn 0.5725 0.5056 0.6455
vn 0.5563 0.7592 0.3379
vn 0.4009 0.9015 -0.1632
vn 0.6312 0.7116 -0.3086
vn -0.5349 0.1122 -0.8375
vn -0.8804 0.4307 -0.1984
vn -0.9929 0.1142 -0.0321
vn -0.5420 0.5543 0.6317
vn -0.4655 0.7235 0.5097
vn 0.6572 0.7381 0.1524
vn 0.8762 0.4781 -0.0615
vn 0.6097 -0.7901 0.0634
vn 0.1625 0.8012 -0.5760
vn 0.5691 0.5120 -0.6434
vn 0.4714 0.5329 -0.7027
vn 0.3401 -0.5550 -0.7591
vn -0.6736 0.0467 -0.7376
vn -0.7160 0.4452 -0.5378
vn 0.0223 -0.9986 -0.0486
vn -0.6555 0.3158 0.6860
vn -0.3441 -0.7673 0.5412
vn 0.0835 0.2800 0.9564
vn 0.0878 -0.9127 0.3992
vn 0.2053 -0.9700 0.1300
vn 0.4562 -0.8613 0.2238
vn -0.0822 -0.9899 -0.1151
vn 0.0152 -0.9880 0.1538
vn 0.1313 -0.9902 -0.0470
vn 0.2392 -0.9677 0.0799
vn -0.0093 -0.9707 -0.2401
vn -0.0373 -0.8397 -0.5418
vn 0.3114 -0.9371 -0.1580
vn -0.0224 -0.9268 0.3749
vn 0.0965 0.9419 -0.3217
vn -0.4776 0.8699 -0.1235
vn -0.5159 0.8534 0.0740
vn -0.1286 0.7726 0.6218
vn 0.1784 0.8127 0.5548
vn 0.3402 0.9314 0.1290
vn 0.7834 0.4273 -0.4514
vn -0.4122 0.2969 0.8613
vn -0.2742 -0.1976 0.9411
vn 0.9602 0.1485 0.2364
vn 0.7977 0.6029 0.0156
vn 0.1643 0.7854 -0.5968
vn 0.2662 0.6781 -0.6851
vn 0.1093 -0.0393 -0.9932
vn 0.2104 -0.6073 -0.7661
vn -0.7798 0.0690 -0.6223
vn -0.7879 0.0638 -0.6125
vn -0.7015 -0.1520 -0.6962
vn -0.7825 0.1627 0.6011
vn -0.8298 -0.1875 0.5256
vn -0.3857 -0.8760 0.2896
vn 0.5585 0.0315 0.8289
vn 0.3404 -0.5499 0.7627
vn 0.6812 -0.7248 -0.1032
vn 0.6276 -0.7466 -0.2206
vn 0.4422 -0.8664 -0.2317
vn -0.0551 -0.9885 0.1408
vn -0.2149 -0.9722 -0.0928
vn -0.0434 -0.9946 -0.0948
vn 0.2157 -0.9524 0.2153
vn 0.0217 0.9986 0.0477
vn 0.0441 0.9908 0.1279
vn 0.0478 0.9914 -0.1218
vn -0.0627 0.9605 -0.2712
vn -0.5737 0.7807 -0.2477
vn -0.3645 0.8767 -0.3139
vn -0.4891 0.8677 -0.0882
vn -0.4327 0.8937 0.1186
vn -0.0770 0.8950 0.4394
vn 0.2289 0.7178 0.6576
vn 0.5217 0.6411 0.5629
vn 0.4955 0.8265 0.2673
vn 0.4890 0.8401 -0.2346
vn -0.4768 -0.1905 -0.8581
vn -0.3699 0.4402 -0.8182
vn -0.9457 0.2544 -0.2021
vn -0.9996 -0.0197 -0.0178
vn -0.5456 0.6101 0.5745
vn -0.4818 0.7098 0.5139
vn 0.7265 0.6837 -0.0689
vn 0.7382 0.6746 -0.0023
vn 0.6752 0.7367 -0.0379
vn 0.5710 -0.8188 0.0600
vn 0.1790 0.7892 -0.5875
vn 0.4545 0.5885 -0.6686
vn 0.4258 0.5924 -0.6839
vn 0.3996 -0.5206 -0.7545
vn -0.8638 0.2261 -0.4502
vn -0.6108 -0.5865 -0.5319
vn -0.6797 0.3815 0.6264
vn -0.3452 -0.9338 0.0942
vn -0.3750 -0.8283 0.4162
vn 0.1034 -0.4974 0.8613
vn 0.3535 -0.9304 -0.0973
vn 0.0250 -0.9948 0.0987
vn 0.1828 -0.9822 -0.0440
vn 0.0997 -0.9917 0.0812
vn 0.1367 -0.9847 0.1080
vn 0.3583 -0.9200 0.1590
vn 0.0284 -0.9995 0.0106
vn 0.1307 -0.9844 -0.1177
vn 0.2774 -0.9575 0.0791
vn -0.4156 -0.8465 -0.3326
vn 0.4442 0.8905 -0.0985
vn 0.0591 0.8825 -0.4665
vn -0.4002 0.8645 -0.3041
vn 0.2118 0.8977 0.3863
vn 0.3684 0.8149 0.4475
vn 0.7383 0.6356 0.2258
vn -0.9702 0.2080 0.1245
vn -0.2111 0.8512 0.4805
vn 0.7456 0.6586 -0.1018
vn 0.8651 0.4358 -0.2483
vn 0.4015 0.1068 -0.9096
vn 0.4900 -0.0508 -0.8702
vn -0.8651 0.4428 -0.2356
vn -0.6454 0.3048 0.7004
vn -0.5840 -0.2390 0.7758
vn 0.1111 -0.5756 0.8102
vn 0.0515 -0.9831 0.1755
vn -0.0971 -0.9934 0.0609
vn -0.0146 -0.9818 0.1894
vn 0.0959 -0.9799 0.1750
vn 0.1215 -0.9892 0.0816
vn -0.0751 -0.9972 0.0041
vn 0.0699 -0.9974 -0.0191
vn 0.1467 0.9533 -0.2641
vn -0.3049 0.9054 0.2955
vn 0.2699 0.8719 0.4085
vn 0.3473 0.9133 0.2127
vn 0.8423 0.0077 -0.5390
vn 0.7629 0.5011 -0.4084
vn -0.7965 0.3672 -0.4803
vn -0.2687 0.9517 -0.1483
vn -0.2838 0.3347 0.8986
vn 0.9528 -0.0649 0.2967
vn 0.8048 0.5803 0.1245
vn 0.0568 0.9458 -0.3196
vn 0.2974 0.7315 -0.6136
vn 0.1343 0.0463 -0.9899
vn 0.0630 -0.1752 -0.9825
vn -0.7568 0.0901 -0.6474
vn -0.7898 0.0747 -0.6088
vn -0.8246 0.0620 0.5624
vn -0.5705 0.4765 0.6689
vn 0.2653 0.5870 0.7649
vn 0.5844 -0.2674 0.7661
vn 0.5371 -0.8305 -0.1476
vn 0.0144 -0.9963 0.0843
vn -0.0679 -0.9903 0.1210
vn -0.0517 -0.9967 -0.0630
vn -0.0664 -0.9947 -0.0783
vn -0.1804 -0.9835 -0.0118
vn -0.1567 -0.9841 -0.0832
usemtl tree_green
s off
f 22/0/1 15/0/1 21/0/1
f 1/0/2 21/0/2 15/0/2
f 15/0/3 19/0/3 1/0/3
f 19/0/4 17/0/4 1/0/4
f 19/0/5 18/0/5 17/0/5
f 17/0/6 16/0/6 1/0/6
f 17/0/7 20/0/7 16/0/7
f 18/0/8 11/0/8 17/0/8
f 11/0/9 20/0/9 17/0/9
f 16/0/10 21/0/10 1/0/10
f 16/0/11 23/0/11 21/0/11
f 20/0/12 23/0/12 16/0/12
f 5/0/13 21/0/13 23/0/13
f 13/0/14 22/0/14 5/0/14
f 5/0/15 22/0/15 21/0/15
f 14/0/16 19/0/16 15/0/16
f 12/0/17 18/0/17 19/0/17
f 10/0/18 20/0/18 11/0/18
f 7/0/19 6/0/19 10/0/19
f 10/0/20 6/0/20 20/0/20
f 8/0/21 23/0/21 20/0/21
f 22/0/22 14/0/22 15/0/22
f 13/0/23 14/0/23 22/0/23
f 13/0/24 25/0/24 14/0/24
f 14/0/25 24/0/25 19/0/25
f 24/0/26 12/0/26 19/0/26
f 24/0/27 9/0/27 12/0/27
f 18/0/28 12/0/28 11/0/28
f 12/0/29 10/0/29 11/0/29
f 9/0/30 10/0/30 12/0/30
f 9/0/31 2/0/31 10/0/31
f 2/0/32 7/0/32 10/0/32
f 6/0/33 8/0/33 20/0/33
f 7/0/34 8/0/34 6/0/34
f 8/0/35 5/0/35 23/0/35
f 8/0/36 4/0/36 5/0/36
f 4/0/37 13/0/37 5/0/37
f 3/0/38 14/0/38 25/0/38
f 3/0/39 24/0/39 14/0/39
f 3/0/40 9/0/40 24/0/40
f 3/0/41 2/0/41 9/0/41
f 3/0/42 7/0/42 2/0/42
f 4/0/43 25/0/43 13/0/43
f 4/0/44 8/0/44 25/0/44
f 8/0/45 3/0/45 25/0/45
f 3/0/46 8/0/46 7/0/46
f 48/0/47 33/0/47 45/0/47
f 43/0/48 40/0/48 26/0/48
f 40/0/49 44/0/49 26/0/49
f 44/0/50 37/0/50 26/0/50
f 26/0/51 37/0/51 41/0/51
f 41/0/52 45/0/52 26/0/52
f 26/0/53 45/0/53 42/0/53
f 41/0/54 48/0/54 45/0/54
f 42/0/55 43/0/55 26/0/55
f 45/0/56 33/0/56 42/0/56
f 51/0/57 43/0/57 42/0/57
f 31/0/58 43/0/58 51/0/58
f 38/0/59 46/0/59 31/0/59
f 31/0/60 46/0/60 43/0/60
f 39/0/61 44/0/61 40/0/61
f 36/0/62 47/0/62 37/0/62
f 55/0/63 34/0/63 36/0/63
f 36/0/64 34/0/64 47/0/64
f 47/0/65 41/0/65 37/0/65
f 56/0/66 48/0/66 41/0/66
f 35/0/67 49/0/67 56/0/67
f 56/0/68 49/0/68 48/0/68
f 32/0/69 50/0/69 33/0/69
f 50/0/70 51/0/70 33/0/70
f 51/0/71 42/0/71 33/0/71
f 32/0/72 30/0/72 50/0/72
f 46/0/73 52/0/73 43/0/73
f 43/0/74 52/0/74 40/0/74
f 52/0/75 39/0/75 40/0/75
f 46/0/76 38/0/76 52/0/76
f 38/0/77 53/0/77 52/0/77
f 52/0/78 53/0/78 39/0/78
f 38/0/79 29/0/79 53/0/79
f 53/0/80 54/0/80 39/0/80
f 44/0/81 36/0/81 37/0/81
f 39/0/82 54/0/82 44/0/82
f 54/0/83 55/0/83 44/0/83
f 44/0/84 55/0/84 36/0/84
f 53/0/85 55/0/85 54/0/85
f 34/0/86 56/0/86 47/0/86
f 47/0/87 56/0/87 41/0/87
f 34/0/88 60/0/88 56/0/88
f 60/0/89 35/0/89 56/0/89
f 49/0/90 32/0/90 48/0/90
f 35/0/91 57/0/91 49/0/91
f 48/0/92 32/0/92 33/0/92
f 49/0/93 57/0/93 32/0/93
f 57/0/94 30/0/94 32/0/94
f 30/0/95 58/0/95 50/0/95
f 50/0/96 31/0/96 51/0/96
f 50/0/97 58/0/97 31/0/97
f 58/0/98 38/0/98 31/0/98
f 30/0/99 28/0/99 58/0/99
f 28/0/100 27/0/100 58/0/100
f 58/0/101 27/0/101 38/0/101
f 27/0/102 29/0/102 38/0/102
f 27/0/103 59/0/103 29/0/103
f 59/0/104 53/0/104 29/0/104
f 27/0/105 61/0/105 59/0/105
f 61/0/106 60/0/106 59/0/106
f 59/0/107 55/0/107 53/0/107
f 59/0/108 60/0/108 55/0/108
f 60/0/109 34/0/109 55/0/109
f 61/0/110 35/0/110 60/0/110
f 28/0/111 61/0/111 27/0/111
f 61/0/112 57/0/112 35/0/112
f 61/0/113 28/0/113 57/0/113
f 28/0/114 30/0/114 57/0/114
f 76/0/115 74/0/115 63/0/115
f 80/0/116 74/0/116 76/0/116
f 74/0/117 75/0/117 63/0/117
f 75/0/118 73/0/118 63/0/118
f 73/0/119 70/0/119 63/0/119
f 70/0/120 79/0/120 63/0/120
f 63/0/121 79/0/121 76/0/121
f 68/0/122 77/0/122 80/0/122
f 77/0/123 74/0/123 80/0/123
f 68/0/124 78/0/124 77/0/124
f 78/0/125 74/0/125 77/0/125
f 72/0/126 75/0/126 74/0/126
f 67/0/127 75/0/127 72/0/127
f 71/0/128 83/0/128 73/0/128
f 82/0/129 79/0/129 70/0/129
f 82/0/130 62/0/130 79/0/130
f 69/0/131 80/0/131 79/0/131
f 79/0/132 80/0/132 76/0/132
f 78/0/133 72/0/133 74/0/133
f 78/0/134 67/0/134 72/0/134
f 78/0/135 65/0/135 67/0/135
f 75/0/136 71/0/136 73/0/136
f 67/0/137 81/0/137 75/0/137
f 81/0/138 71/0/138 75/0/138
f 81/0/139 83/0/139 71/0/139
f 83/0/140 82/0/140 73/0/140
f 73/0/141 82/0/141 70/0/141
f 83/0/142 62/0/142 82/0/142
f 62/0/143 69/0/143 79/0/143
f 62/0/144 84/0/144 69/0/144
f 69/0/145 68/0/145 80/0/145
f 69/0/146 64/0/146 68/0/146
f 64/0/147 65/0/147 68/0/147
f 68/0/148 65/0/148 78/0/148
f 66/0/149 67/0/149 65/0/149
f 66/0/150 83/0/150 67/0/150
f 67/0/151 83/0/151 81/0/151
f 66/0/152 62/0/152 83/0/152
f 64/0/153 66/0/153 65/0/153
f 66/0/154 84/0/154 62/0/154
f 66/0/155 64/0/155 84/0/155
f 84/0/156 64/0/156 69/0/156
f 94/0/157 93/0/157 95/0/157
f 93/0/158 92/0/158 95/0/158
f 92/0/159 90/0/159 95/0/159
f 90/0/160 97/0/160 95/0/160
f 95/0/161 97/0/161 89/0/161
f 95/0/162 89/0/162 94/0/162
f 87/0/163 96/0/163 94/0/163
f 100/0/164 97/0/164 90/0/164
f 85/0/165 97/0/165 100/0/165
f 88/0/166 87/0/166 89/0/166
f 87/0/167 94/0/167 89/0/167
f 96/0/168 98/0/168 94/0/168
f 94/0/169 98/0/169 93/0/169
f 96/0/170 91/0/170 98/0/170
f 96/0/171 101/0/171 91/0/171
f 98/0/172 91/0/172 93/0/172
f 91/0/173 99/0/173 93/0/173
f 93/0/174 99/0/174 92/0/174
f 92/0/175 100/0/175 90/0/175
f 92/0/176 99/0/176 100/0/176
f 99/0/177 85/0/177 100/0/177
f 97/0/178 88/0/178 89/0/178
f 97/0/179 85/0/179 88/0/179
f 88/0/180 86/0/180 87/0/180
f 86/0/181 96/0/181 87/0/181
f 86/0/182 101/0/182 96/0/182
f 86/0/183 99/0/183 101/0/183
f 101/0/184 99/0/184 91/0/184
f 86/0/185 85/0/185 99/0/185
f 86/0/186 88/0/186 85/0/186
f 113/0/187 112/0/187 103/0/187
f 115/0/188 112/0/188 113/0/188
f 112/0/189 102/0/189 103/0/189
f 102/0/190 110/0/190 103/0/190
f 114/0/191 103/0/191 110/0/191
f 114/0/192 108/0/192 103/0/192
f 108/0/193 117/0/193 103/0/193
f 103/0/194 117/0/194 113/0/194
f 119/0/195 115/0/195 113/0/195
f 104/0/196 115/0/196 119/0/196
f 104/0/197 116/0/197 115/0/197
f 116/0/198 112/0/198 115/0/198
f 111/0/199 102/0/199 112/0/199
f 107/0/200 114/0/200 109/0/200
f 109/0/201 114/0/201 110/0/201
f 105/0/202 117/0/202 108/0/202
f 105/0/203 118/0/203 117/0/203
f 106/0/204 119/0/204 117/0/204
f 117/0/205 119/0/205 113/0/205
f 116/0/206 120/0/206 112/0/206
f 120/0/207 111/0/207 112/0/207
f 116/0/208 111/0/208 120/0/208
f 116/0/209 123/0/209 111/0/209
f 102/0/210 109/0/210 110/0/210
f 111/0/211 121/0/211 102/0/211
f 121/0/212 109/0/212 102/0/212
f 121/0/213 107/0/213 109/0/213
f 114/0/214 105/0/214 108/0/214
f 107/0/215 105/0/215 114/0/215
f 118/0/216 106/0/216 117/0/216
f 105/0/217 124/0/217 118/0/217
f 124/0/218 106/0/218 118/0/218
f 106/0/219 104/0/219 119/0/219
f 123/0/220 121/0/220 111/0/220
f 122/0/221 107/0/221 123/0/221
f 123/0/222 107/0/222 121/0/222
f 122/0/223 105/0/223 107/0/223
f 106/0/224 123/0/224 104/0/224
f 104/0/225 123/0/225 116/0/225
f 106/0/226 122/0/226 123/0/226
f 105/0/227 122/0/227 124/0/227
f 122/0/228 106/0/228 124/0/228
f 136/0/229 137/0/229 128/0/229
f 130/0/230 132/0/230 129/0/230
f 129/0/231 128/0/231 130/0/231
f 128/0/232 131/0/232 130/0/232
f 130/0/233 138/0/233 132/0/233
f 127/0/234 132/0/234 138/0/234
f 127/0/235 133/0/235 132/0/235
f 137/0/236 134/0/236 131/0/236
f 131/0/237 138/0/237 130/0/237
f 133/0/238 129/0/238 132/0/238
f 133/0/239 135/0/239 129/0/239
f 135/0/240 136/0/240 129/0/240
f 129/0/241 136/0/241 128/0/241
f 128/0/242 137/0/242 131/0/242
f 134/0/243 138/0/243 131/0/243
f 134/0/244 126/0/244 138/0/244
f 126/0/245 127/0/245 138/0/245
f 126/0/246 133/0/246 127/0/246
f 125/0/247 135/0/247 133/0/247
f 125/0/248 136/0/248 135/0/248
f 125/0/249 137/0/249 136/0/249
f 125/0/250 134/0/250 137/0/250
f 126/0/251 125/0/251 133/0/251
f 125/0/252 126/0/252 134/0/252
f 146/0/253 144/0/253 145/0/253
f 147/0/254 148/0/254 145/0/254
f 140/0/255 145/0/255 148/0/255
f 140/0/256 146/0/256 145/0/256
f 143/0/257 149/0/257 139/0/257
f 139/0/258 149/0/258 146/0/258
f 142/0/259 147/0/259 144/0/259
f 144/0/260 147/0/260 145/0/260
f 151/0/261 141/0/261 148/0/261
f 154/0/262 139/0/262 140/0/262
f 140/0/263 139/0/263 146/0/263
f 149/0/264 150/0/264 146/0/264
f 146/0/265 150/0/265 144/0/265
f 149/0/266 143/0/266 150/0/266
f 143/0/267 152/0/267 150/0/267
f 150/0/268 152/0/268 144/0/268
f 152/0/269 142/0/269 144/0/269
f 142/0/270 151/0/270 147/0/270
f 147/0/271 151/0/271 148/0/271
f 141/0/272 140/0/272 148/0/272
f 141/0/273 154/0/273 140/0/273
f 154/0/274 143/0/274 139/0/274
f 153/0/275 152/0/275 143/0/275
f 153/0/276 142/0/276 152/0/276
f 142/0/277 153/0/277 151/0/277
f 153/0/278 141/0/278 151/0/278
f 154/0/279 153/0/279 143/0/279
f 153/0/280 154/0/280 141/0/280
