# Blender v3.5.1 OBJ File: 'tree-pyramidal.blend'
# www.blender.org
mtllib tree_pyramidal_up.mtl
o leaves_Sphere
v 1.676622 4.411403 0.003577
v 2.633625 1.974595 1.616174
v 1.979010 3.905703 0.146467
v 1.774551 4.847308 0.787303
v 1.511292 4.634730 0.679388
v 1.842026 3.974975 1.162423
v 0.803791 6.857496 0.237202
v 0.474936 5.854860 1.195090
v 1.039494 4.811867 1.563232
v 1.179892 4.025852 1.706377
v 1.133808 3.844142 1.684322
v 1.460782 2.027481 2.694978
v 2.040556 1.954923 1.960119
v -0.130107 4.395486 1.679671
v 0.244229 6.684976 0.782145
v 0.074984 2.076870 2.893267
v -0.095593 5.878001 1.328005
v -0.411539 4.610749 1.921229
v -0.080605 3.870463 2.061183
v -0.747358 3.714624 1.797044
v 0.002153 2.910614 2.202585
v -1.322365 2.106933 2.620677
v -0.657298 4.462968 1.507661
v -1.199410 2.011816 2.103060
v -2.196826 2.087348 1.952137
v -0.790736 5.968542 0.882508
v -1.390133 5.099632 0.818091
v -1.157985 4.878158 0.706955
v -1.160715 6.737535 0.649124
v -2.118251 2.817873 0.755812
v -2.880529 3.009066 -0.291578
v -1.181028 6.857593 -0.030343
v -1.445048 6.251153 0.103335
v -1.507700 4.776822 0.182618
v -2.049202 3.956687 0.128546
v -0.779900 6.997540 -0.796637
v -1.223579 6.064855 -0.736664
v -0.698588 6.097543 -1.386722
v -1.375746 3.940722 -1.811017
v -0.363399 6.758262 -0.993921
v -1.040678 4.862715 -1.751953
v -0.372386 3.978144 -2.131188
v -1.374174 2.881558 -2.630545
v -0.236071 1.890975 -3.237411
v 0.045720 4.847840 -2.145716
v -0.711528 4.015123 -2.199144
v 0.930222 2.946718 -2.811446
v 0.676673 4.614679 -1.549174
v 1.953745 1.974534 -2.426598
v 1.845638 4.039686 -1.144795
v 1.112062 5.804192 -1.242298
v 1.043978 5.692770 -1.049219
v 2.148738 1.993002 -1.437964
v 1.799968 4.583851 -0.698672
v 1.877558 3.893864 -0.512963
v 2.958235 1.981020 -0.400249
v 0.254910 6.702961 -1.135821
v -0.916821 6.770484 -0.242937
v 0.850239 6.944809 0.551739
v 2.097602 2.697969 0.942362
v 1.576914 2.710708 1.800242
v 0.268993 3.070576 2.552536
v -0.862468 3.870776 1.902249
v -0.964840 4.803607 1.531248
v -1.602498 4.104139 0.960574
v -1.689635 3.843084 0.715024
v -2.545012 2.908175 -0.153830
v -1.926650 3.785995 0.154198
v -2.667033 1.998390 -0.580238
v -1.483117 4.597223 -0.586854
v -1.015795 2.518229 -2.364724
v 0.609775 2.587833 -2.410794
v 0.503718 1.906179 -3.126865
v 0.525418 3.999839 -2.243808
v 0.017940 2.222680 -1.011305
v 0.912926 3.749909 -1.979756
v 1.777658 4.744861 -1.136568
v 1.472211 4.599372 -0.942337
v 1.002750 6.994615 -0.244303
v 0.444238 7.751752 -0.091518
v 1.307364 6.128342 0.108712
v 1.987869 4.676939 -0.164095
v 2.683613 3.028661 0.146142
v 2.413980 2.908004 1.504804
v 0.111205 2.304201 -0.084056
v 1.054219 6.105654 0.809021
v 1.020062 5.952235 0.690020
v 1.801891 3.739353 1.111670
v 0.388801 7.690077 0.151705
v 0.263203 5.986091 1.436729
v 1.887032 2.920251 2.143339
v 0.148737 3.859126 1.863226
v 0.719180 4.678689 1.387991
v -0.106598 7.934909 0.219401
v 0.142201 4.717950 1.956096
v -0.874894 2.943974 2.551212
v -0.561761 6.592135 0.775135
v -0.827313 6.068458 1.062786
v -1.426330 2.944052 1.798103
v -1.362306 6.239955 0.632393
v -1.972270 3.012052 1.732859
v -1.001452 6.639684 0.487051
v -1.813808 5.021248 0.243462
v -0.514415 7.794700 0.060929
v -3.279941 2.071262 -0.360396
v -1.320654 6.088514 0.100413
v -1.629587 4.801476 -1.061718
v -3.205750 2.028319 -1.035131
v 0.059250 8.926373 -0.235884
v -0.304190 7.854005 -0.391965
v -1.774873 4.011112 -1.230402
v -1.864489 3.901910 -0.820942
v -2.669402 3.136692 -1.126136
v -2.417833 2.801258 -0.883039
v -1.336383 1.909999 -2.955517
v -1.030993 5.883158 -0.973549
v -1.067219 3.711852 -1.896709
v -0.402720 5.897243 -1.390041
v -0.799778 4.703813 -1.580408
v -0.395359 3.175658 -2.833884
v 0.007447 7.804153 -0.681817
v 0.340072 6.010985 -1.626628
v 0.130571 4.698232 -1.775519
v 0.202815 5.882297 -1.455623
v 0.305836 7.805464 -0.654208
v 1.198196 3.912805 -1.890763
v 1.481242 2.987979 -2.551765
v 1.990258 2.860672 -1.420057
v 2.735096 2.033599 -1.491844
v 0.442369 7.728207 -0.404710
v 1.756251 3.837051 -0.994162
v 0.725782 6.651148 -0.758937
v 1.306757 5.931921 -0.097451
v 2.410902 3.007540 -1.417445
v 2.272699 2.733932 -0.339455
v 0.423533 6.839828 0.843268
v -0.589034 6.712855 0.965122
v -0.093318 6.848259 -1.356188
v 0.504115 6.792362 -1.320549
v 0.789429 6.730419 -1.064034
vn 0.5420 -0.8389 0.0505
vn 0.8781 -0.3477 0.3287
vn 0.0345 -0.9994 0.0024
vn 0.7055 -0.6532 0.2751
vn 0.4824 -0.7897 0.3790
vn 0.8318 0.5544 -0.0284
vn 0.7188 0.6170 0.3203
vn 0.5190 -0.8544 0.0271
vn 0.9699 -0.1963 0.1442
vn 0.8988 0.3300 0.2885
vn 0.7399 0.6411 0.2038
vn 0.8574 -0.4207 0.2963
vn 0.4672 -0.7851 0.4067
vn 0.3571 -0.9053 0.2302
vn 0.4312 0.6328 0.6431
vn 0.6083 -0.2459 0.7547
vn 0.5665 0.6875 0.4543
vn 0.3450 0.6007 0.7212
vn 0.5386 0.6345 0.5544
vn 0.5276 0.5221 0.6701
vn 0.0204 -0.8613 0.5076
vn 0.2158 0.4987 0.8395
vn 0.3418 -0.9358 0.0865
vn 0.1945 -0.9403 0.2792
vn 0.0396 0.5090 0.8598
vn -0.0129 -0.9946 0.1027
vn -0.2165 -0.8719 0.4393
vn -0.3906 0.5675 0.7248
vn 0.0787 0.5909 0.8029
vn -0.1645 0.7037 0.6912
vn -0.1365 0.6249 0.7687
vn -0.3941 0.4684 0.7908
vn -0.4250 0.4881 0.7623
vn -0.4166 0.6701 0.6143
vn -0.5082 0.5925 0.6250
vn -0.5934 0.5372 0.5994
vn -0.6395 -0.6941 0.3305
vn -0.3724 0.5861 0.7196
vn -0.5064 0.5715 0.6457
vn -0.6859 0.4296 0.5874
vn -0.7276 -0.6678 0.1567
vn -0.5191 -0.7879 0.3313
vn -0.4542 0.7477 0.4843
vn -0.7394 0.5513 0.3866
vn -0.9168 -0.0646 0.3940
vn -0.4465 -0.8933 0.0509
vn -0.7231 -0.5603 0.4040
vn -0.7071 0.4472 0.5477
vn -0.7577 0.4174 0.5017
vn -0.4838 -0.7409 0.4659
vn -0.7355 0.5473 0.3994
vn -0.4943 -0.7347 0.4647
vn -0.6750 0.7063 0.2134
vn -0.3061 -0.9507 0.0492
vn -0.7131 0.6896 0.1261
vn -0.7976 -0.5909 -0.1211
vn -0.6828 0.7288 0.0514
vn -0.5953 -0.7865 0.1646
vn -0.7927 -0.6050 -0.0748
vn -0.7687 0.5743 -0.2816
vn -0.7304 0.6718 -0.1231
vn -0.6610 0.7172 -0.2205
vn -0.0994 -0.9937 0.0523
vn -0.8200 0.4793 -0.3128
vn -0.4941 0.7163 -0.4927
vn -0.5385 -0.7743 -0.3323
vn -0.7778 -0.0051 -0.6284
vn -0.4558 -0.3008 -0.8377
vn 0.1040 -0.9854 0.1350
vn -0.4745 0.5367 -0.6977
vn -0.4547 0.6783 -0.5772
vn -0.3345 0.6262 -0.7042
vn -0.1579 0.7296 -0.6654
vn -0.2946 0.4723 -0.8307
vn 0.0019 -0.5821 -0.8131
vn -0.2172 -0.6882 -0.6923
vn -0.0017 -0.9890 0.1476
vn -0.0614 -0.7683 -0.6372
vn 0.1252 0.6516 -0.7482
vn 0.2052 0.7061 -0.6777
vn 0.0740 0.5581 -0.8265
vn 0.0890 0.7148 -0.6936
vn 0.0148 -0.9259 -0.3776
vn 0.4691 0.4397 -0.7659
vn 0.3731 0.6529 -0.6592
vn 0.2624 0.6968 -0.6675
vn 0.2948 -0.8168 -0.4958
vn 0.4861 0.5446 -0.6834
vn 0.2974 0.6692 -0.6810
vn 0.3150 0.7067 -0.6336
vn 0.0398 -0.8715 -0.4889
vn -0.0806 -0.9883 0.1293
vn 0.5137 0.6527 -0.5569
vn 0.5454 -0.7357 -0.4016
vn 0.6344 0.5076 -0.5830
vn 0.6421 -0.6192 -0.4520
vn -0.5385 -0.4780 0.6939
vn 0.6919 0.6758 -0.2542
vn 0.7303 0.6739 -0.1118
vn 0.7328 0.6702 -0.1175
vn 0.8543 -0.5199 0.0012
vn 0.8800 0.3427 -0.3291
vn 0.7251 0.5934 -0.3493
vn 0.8551 -0.4941 -0.1572
vn 0.8650 0.4776 -0.1536
vn 0.6208 -0.7797 -0.0824
vn 0.7989 0.5994 -0.0498
vn 0.6584 -0.7453 -0.1048
vn -0.1615 -0.9867 -0.0162
vn -0.0004 -0.9999 -0.0112
vn 0.7788 -0.6273 -0.0005
vn -0.5939 -0.6821 -0.4266
vn -0.5745 -0.6976 -0.4281
vn -0.4531 -0.8669 -0.2079
vn -0.3010 -0.8238 0.4803
vn -0.2814 -0.9184 0.2780
vn 0.4909 -0.7460 0.4499
vn 0.7051 -0.7032 0.0911
vn -0.0661 -0.9521 0.2985
vn 0.8080 0.5578 0.1897
vn 0.7937 0.5803 -0.1824
vn 0.2494 0.5863 0.7708
vn 0.8758 0.4694 0.1123
vn 0.7837 0.5590 0.2709
vn 0.8652 0.4945 0.0829
vn 0.4904 -0.8694 -0.0598
vn 0.6887 0.7181 0.1004
vn 0.8073 0.5033 0.3081
vn 0.6254 0.4811 0.6144
vn 0.2197 -0.9273 0.3031
vn 0.5217 0.6586 0.5423
vn 0.2414 -0.9458 0.2174
vn 0.5768 0.7432 0.3390
vn 0.5999 -0.2648 0.7550
vn 0.5499 0.6518 0.5222
vn 0.4252 0.6249 0.6548
vn 0.6853 -0.1891 0.7032
vn 0.5574 -0.5828 0.5914
vn 0.1604 -0.9619 0.2215
vn 0.5159 0.6412 0.5681
vn 0.3145 0.4628 0.8288
vn 0.1697 0.5261 0.8333
vn 0.1739 -0.1620 0.9713
vn 0.2974 0.3569 0.8855
vn 0.3886 0.5909 0.7070
vn 0.2509 0.7534 0.6078
vn -0.1635 0.5698 0.8054
vn 0.0174 -0.9143 0.4047
vn 0.0907 -0.8397 0.5355
vn -0.0242 -0.9966 0.0793
vn -0.0238 -0.9889 -0.1465
vn 0.3262 -0.7588 0.5638
vn 0.1312 0.6392 0.7578
vn -0.0728 0.6501 0.7564
vn 0.1027 -0.9320 0.3477
vn -0.1959 0.6675 0.7184
vn -0.0540 -0.9843 0.1681
vn -0.1424 0.4485 0.8823
vn 0.0884 -0.6903 0.7181
vn -0.2582 -0.8509 0.4575
vn -0.5954 -0.5763 0.5598
vn -0.1346 -0.9860 0.0984
vn 0.1397 -0.9661 0.2172
vn -0.1552 -0.6281 0.7625
vn -0.0657 0.5058 0.8601
vn -0.1858 0.6768 0.7123
vn -0.6760 0.7345 -0.0587
vn -0.0982 -0.9827 0.1572
vn 0.1199 -0.9909 -0.0606
vn -0.6785 -0.7333 0.0440
vn -0.3851 0.5866 0.7124
vn -0.3898 0.6045 0.6947
vn -0.6610 0.6590 0.3590
vn -0.7330 -0.3200 0.6003
vn -0.4520 0.4336 0.7796
vn -0.4598 0.6296 0.6263
vn -0.1459 -0.9659 0.2138
vn -0.7955 0.5030 0.3380
vn -0.7446 -0.4622 0.4817
vn -0.7140 0.6174 0.3301
vn -0.0823 -0.9956 0.0455
vn -0.0973 -0.9936 0.0582
vn -0.7091 0.6297 0.3172
vn -0.8142 0.5671 0.1245
vn -0.5342 -0.8103 0.2409
vn -0.8197 0.5514 -0.1549
vn -0.9003 0.3902 -0.1928
vn -0.7995 -0.6006 -0.0117
vn -0.9782 0.0733 -0.1945
vn -0.8675 0.3460 -0.3574
vn -0.5268 0.6458 -0.5526
vn 0.7389 0.6631 0.1195
vn -0.7676 0.5673 -0.2982
vn -0.3181 -0.9444 0.0830
vn -0.6633 -0.6963 -0.2743
vn -0.7627 0.5591 -0.3251
vn -0.7258 -0.6848 -0.0648
vn 0.0954 -0.9924 0.0777
vn -0.8151 0.5617 -0.1420
vn -0.6337 0.6091 -0.4769
vn -0.5032 0.6692 -0.5467
vn -0.5691 -0.7177 -0.4014
vn -0.6330 0.6069 -0.4807
vn -0.3252 -0.8764 -0.3552
vn -0.0589 -0.9983 0.0041
vn -0.7036 0.4352 -0.5617
vn -0.6227 0.6981 -0.3534
vn 0.5280 0.6778 -0.5117
vn -0.6029 -0.7282 -0.3261
vn -0.6197 -0.7104 -0.3337
vn -0.4643 0.5582 -0.6876
vn -0.5023 0.5814 -0.6400
vn -0.4554 0.5448 -0.7041
vn -0.0090 -0.9994 0.0321
vn -0.4252 -0.6170 -0.6622
vn -0.1947 -0.8407 -0.5053
vn -0.6190 0.3145 -0.7196
vn 0.0548 -0.7365 -0.6742
vn 0.0076 -0.5856 -0.8106
vn -0.1381 0.5570 -0.8190
vn -0.1416 0.5610 -0.8156
vn -0.0511 0.7887 -0.6126
vn -0.1101 -0.1463 -0.9831
vn -0.0754 0.5613 -0.8242
vn -0.0806 -0.9304 -0.3575
vn -0.1523 0.6496 -0.7448
vn -0.0234 0.5476 -0.8364
vn -0.0251 -0.9253 -0.3783
vn 0.1018 0.5663 -0.8179
vn 0.0842 0.3646 -0.9273
vn -0.1082 -0.6959 -0.7099
vn 0.4723 0.4361 -0.7660
vn 0.3163 -0.7212 -0.6164
vn 0.4230 0.6309 -0.6505
vn 0.4213 -0.2637 -0.8678
vn 0.0626 -0.8210 -0.5675
vn 0.0421 -0.9991 0.0104
vn 0.5048 0.5710 -0.6474
vn 0.3666 -0.8918 -0.2652
vn 0.5435 0.5891 -0.5980
vn 0.8220 0.4841 -0.2999
vn 0.3208 -0.9143 -0.2471
vn 0.6016 0.5886 -0.5400
vn 0.0695 -0.9976 0.0049
vn -0.0877 -0.9915 0.0960
vn 0.2370 -0.9079 -0.3459
vn 0.8674 0.3299 -0.3725
vn 0.7762 0.5126 -0.3672
vn 0.3245 -0.9259 -0.1934
vn 0.0634 -0.9961 -0.0609
vn 0.8535 -0.4734 -0.2176
vn 0.1159 -0.9691 -0.2176
vn 0.8193 0.5698 -0.0638
vn 0.9152 -0.3802 -0.1340
vn 0.9509 0.3081 -0.0288
vn 0.7763 0.6138 -0.1437
vn 0.8231 0.5136 -0.2422
vn 0.7045 -0.7039 0.0906
vn 0.0813 -0.9687 -0.2347
vn 0.0926 -0.9395 -0.3298
vn -0.0521 -0.8696 -0.4911
vn -0.1629 -0.9222 -0.3506
vn -0.5945 -0.5556 -0.5813
vn -0.6060 -0.7862 -0.1208
vn 0.0914 -0.8345 0.5434
vn 0.1662 -0.5225 0.8363
vn 0.4442 -0.8780 0.1781
vn 0.1434 0.6636 0.7342
vn -0.1819 0.5881 0.7881
vn -0.0295 -0.9993 0.0215
vn -0.6446 0.7629 0.0496
vn -0.4150 0.7370 -0.5335
vn 0.7402 0.6614 0.1213
vn -0.2941 -0.9076 -0.2997
vn -0.6141 0.6135 -0.4965
vn 0.5261 0.7255 -0.4437
usemtl Material
s off
f 60/0/1 135/0/1 83/0/1
f 81/0/2 87/0/2 133/0/2
f 13/0/3 56/0/3 2/0/3
f 1/0/4 82/0/4 4/0/4
f 4/0/5 5/0/5 1/0/5
f 5/0/6 3/0/6 50/0/6
f 89/0/7 59/0/7 80/0/7
f 60/0/8 83/0/8 84/0/8
f 6/0/9 88/0/9 3/0/9
f 109/0/10 89/0/10 80/0/10
f 83/0/11 88/0/11 84/0/11
f 87/0/12 81/0/12 86/0/12
f 4/0/13 9/0/13 5/0/13
f 91/0/14 61/0/14 60/0/14
f 15/0/15 86/0/15 7/0/15
f 11/0/16 88/0/16 10/0/16
f 91/0/17 84/0/17 11/0/17
f 59/0/18 89/0/18 136/0/18
f 61/0/19 12/0/19 2/0/19
f 9/0/20 87/0/20 8/0/20
f 91/0/21 21/0/21 61/0/21
f 17/0/22 95/0/22 8/0/22
f 93/0/23 9/0/23 14/0/23
f 10/0/24 19/0/24 92/0/24
f 136/0/25 94/0/25 137/0/25
f 13/0/26 16/0/26 24/0/26
f 90/0/27 98/0/27 26/0/27
f 26/0/28 17/0/28 90/0/28
f 93/0/29 14/0/29 19/0/29
f 92/0/30 20/0/30 96/0/30
f 16/0/31 21/0/31 22/0/31
f 17/0/32 64/0/32 18/0/32
f 64/0/33 17/0/33 26/0/33
f 20/0/34 101/0/34 96/0/34
f 63/0/35 23/0/35 28/0/35
f 28/0/36 65/0/36 63/0/36
f 63/0/37 65/0/37 20/0/37
f 94/0/38 29/0/38 137/0/38
f 22/0/39 99/0/39 25/0/39
f 26/0/40 27/0/40 64/0/40
f 64/0/41 27/0/41 23/0/41
f 26/0/42 98/0/42 100/0/42
f 101/0/43 20/0/43 66/0/43
f 34/0/44 65/0/44 28/0/44
f 66/0/45 65/0/45 68/0/45
f 26/0/46 100/0/46 33/0/46
f 33/0/47 106/0/47 26/0/47
f 27/0/48 26/0/48 106/0/48
f 27/0/49 106/0/49 103/0/49
f 27/0/50 34/0/50 28/0/50
f 67/0/51 105/0/51 30/0/51
f 27/0/52 103/0/52 34/0/52
f 66/0/53 68/0/53 31/0/53
f 31/0/54 67/0/54 30/0/54
f 102/0/55 33/0/55 100/0/55
f 35/0/56 112/0/56 68/0/56
f 33/0/57 102/0/57 58/0/57
f 34/0/58 103/0/58 70/0/58
f 37/0/59 106/0/59 33/0/59
f 32/0/60 104/0/60 110/0/60
f 108/0/61 105/0/61 67/0/61
f 67/0/62 114/0/62 108/0/62
f 69/0/63 105/0/63 108/0/63
f 106/0/64 116/0/64 107/0/64
f 112/0/65 117/0/65 113/0/65
f 43/0/66 71/0/66 113/0/66
f 116/0/67 37/0/67 38/0/67
f 39/0/68 46/0/68 117/0/68
f 75/0/69 69/0/69 44/0/69
f 41/0/70 116/0/70 118/0/70
f 43/0/71 117/0/71 42/0/71
f 42/0/72 120/0/72 43/0/72
f 71/0/73 44/0/73 115/0/73
f 41/0/74 118/0/74 45/0/74
f 120/0/75 72/0/75 71/0/75
f 124/0/76 38/0/76 122/0/76
f 73/0/77 75/0/77 44/0/77
f 42/0/78 74/0/78 76/0/78
f 47/0/79 120/0/79 42/0/79
f 42/0/80 76/0/80 47/0/80
f 121/0/81 125/0/81 139/0/81
f 72/0/82 73/0/82 44/0/82
f 48/0/83 123/0/83 45/0/83
f 45/0/84 124/0/84 52/0/84
f 48/0/85 74/0/85 123/0/85
f 76/0/86 127/0/86 47/0/86
f 72/0/87 47/0/87 127/0/87
f 122/0/88 57/0/88 51/0/88
f 49/0/89 73/0/89 72/0/89
f 49/0/90 72/0/90 128/0/90
f 51/0/91 52/0/91 124/0/91
f 75/0/92 73/0/92 53/0/92
f 126/0/93 48/0/93 50/0/93
f 126/0/94 131/0/94 76/0/94
f 139/0/95 125/0/95 140/0/95
f 131/0/96 126/0/96 50/0/96
f 78/0/97 48/0/97 54/0/97
f 131/0/98 55/0/98 134/0/98
f 128/0/99 135/0/99 56/0/99
f 56/0/100 129/0/100 128/0/100
f 52/0/101 51/0/101 81/0/101
f 81/0/102 133/0/102 52/0/102
f 77/0/103 52/0/103 133/0/103
f 55/0/104 131/0/104 50/0/104
f 82/0/105 77/0/105 133/0/105
f 54/0/106 82/0/106 1/0/106
f 80/0/107 79/0/107 130/0/107
f 134/0/108 83/0/108 135/0/108
f 13/0/109 85/0/109 53/0/109
f 53/0/110 56/0/110 13/0/110
f 132/0/111 140/0/111 79/0/111
f 36/0/112 40/0/112 58/0/112
f 58/0/113 32/0/113 36/0/113
f 102/0/114 32/0/114 58/0/114
f 97/0/115 137/0/115 29/0/115
f 29/0/116 102/0/116 97/0/116
f 136/0/117 15/0/117 59/0/117
f 7/0/118 79/0/118 59/0/118
f 1/0/119 5/0/119 50/0/119
f 80/0/120 59/0/120 79/0/120
f 81/0/121 132/0/121 7/0/121
f 11/0/122 62/0/122 91/0/122
f 4/0/123 82/0/123 133/0/123
f 133/0/124 87/0/124 4/0/124
f 5/0/125 6/0/125 3/0/125
f 3/0/126 88/0/126 55/0/126
f 83/0/127 55/0/127 88/0/127
f 7/0/128 86/0/128 81/0/128
f 4/0/129 87/0/129 9/0/129
f 5/0/130 9/0/130 93/0/130
f 5/0/131 93/0/131 6/0/131
f 91/0/132 60/0/132 84/0/132
f 2/0/133 60/0/133 61/0/133
f 88/0/134 6/0/134 10/0/134
f 11/0/135 84/0/135 88/0/135
f 15/0/136 90/0/136 86/0/136
f 90/0/137 8/0/137 87/0/137
f 87/0/138 86/0/138 90/0/138
f 13/0/139 2/0/139 12/0/139
f 10/0/140 6/0/140 93/0/140
f 8/0/141 95/0/141 9/0/141
f 93/0/142 19/0/142 10/0/142
f 10/0/143 92/0/143 11/0/143
f 109/0/144 94/0/144 89/0/144
f 136/0/145 89/0/145 94/0/145
f 61/0/146 21/0/146 12/0/146
f 14/0/147 63/0/147 19/0/147
f 62/0/148 21/0/148 91/0/148
f 90/0/149 17/0/149 8/0/149
f 13/0/150 12/0/150 16/0/150
f 13/0/151 24/0/151 85/0/151
f 14/0/152 9/0/152 95/0/152
f 16/0/153 12/0/153 21/0/153
f 92/0/154 96/0/154 62/0/154
f 62/0/155 96/0/155 21/0/155
f 98/0/156 90/0/156 15/0/156
f 16/0/157 22/0/157 24/0/157
f 18/0/158 95/0/158 17/0/158
f 18/0/159 14/0/159 95/0/159
f 23/0/160 14/0/160 18/0/160
f 18/0/161 64/0/161 23/0/161
f 99/0/162 96/0/162 101/0/162
f 20/0/163 92/0/163 19/0/163
f 19/0/164 63/0/164 20/0/164
f 15/0/165 97/0/165 98/0/165
f 22/0/166 21/0/166 99/0/166
f 31/0/167 112/0/167 113/0/167
f 22/0/168 25/0/168 24/0/168
f 85/0/169 24/0/169 69/0/169
f 23/0/170 27/0/170 28/0/170
f 100/0/171 98/0/171 97/0/171
f 97/0/172 102/0/172 100/0/172
f 25/0/173 99/0/173 30/0/173
f 66/0/174 20/0/174 65/0/174
f 109/0/175 104/0/175 94/0/175
f 29/0/176 94/0/176 104/0/176
f 101/0/177 30/0/177 99/0/177
f 34/0/178 35/0/178 65/0/178
f 65/0/179 35/0/179 68/0/179
f 30/0/180 105/0/180 25/0/180
f 24/0/181 25/0/181 105/0/181
f 69/0/182 24/0/182 105/0/182
f 66/0/183 31/0/183 101/0/183
f 104/0/184 32/0/184 29/0/184
f 31/0/185 30/0/185 101/0/185
f 35/0/186 34/0/186 70/0/186
f 106/0/187 107/0/187 103/0/187
f 70/0/188 103/0/188 107/0/188
f 35/0/189 111/0/189 112/0/189
f 104/0/190 109/0/190 110/0/190
f 114/0/191 115/0/191 108/0/191
f 60/0/192 56/0/192 135/0/192
f 36/0/193 32/0/193 110/0/193
f 114/0/194 67/0/194 31/0/194
f 31/0/195 113/0/195 114/0/195
f 58/0/196 37/0/196 33/0/196
f 37/0/197 116/0/197 106/0/197
f 75/0/198 85/0/198 69/0/198
f 35/0/199 70/0/199 111/0/199
f 58/0/200 40/0/200 37/0/200
f 117/0/201 43/0/201 113/0/201
f 71/0/202 114/0/202 113/0/202
f 38/0/203 37/0/203 40/0/203
f 119/0/204 107/0/204 41/0/204
f 69/0/205 108/0/205 115/0/205
f 116/0/206 41/0/206 107/0/206
f 119/0/207 111/0/207 70/0/207
f 134/0/208 76/0/208 131/0/208
f 112/0/209 111/0/209 39/0/209
f 39/0/210 117/0/210 112/0/210
f 119/0/211 46/0/211 39/0/211
f 36/0/212 110/0/212 121/0/212
f 121/0/213 138/0/213 36/0/213
f 44/0/214 69/0/214 115/0/214
f 118/0/215 116/0/215 38/0/215
f 119/0/216 41/0/216 45/0/216
f 110/0/217 109/0/217 121/0/217
f 42/0/218 117/0/218 46/0/218
f 43/0/219 120/0/219 71/0/219
f 40/0/220 57/0/220 38/0/220
f 57/0/221 122/0/221 38/0/221
f 71/0/222 72/0/222 44/0/222
f 124/0/223 118/0/223 38/0/223
f 45/0/224 118/0/224 124/0/224
f 123/0/225 119/0/225 45/0/225
f 46/0/226 119/0/226 123/0/226
f 123/0/227 74/0/227 46/0/227
f 42/0/228 46/0/228 74/0/228
f 121/0/229 139/0/229 138/0/229
f 121/0/230 109/0/230 125/0/230
f 47/0/231 72/0/231 120/0/231
f 52/0/232 77/0/232 45/0/232
f 48/0/233 45/0/233 77/0/233
f 48/0/234 126/0/234 74/0/234
f 76/0/235 74/0/235 126/0/235
f 124/0/236 122/0/236 51/0/236
f 53/0/237 73/0/237 49/0/237
f 48/0/238 78/0/238 50/0/238
f 127/0/239 128/0/239 72/0/239
f 51/0/240 57/0/240 132/0/240
f 140/0/241 125/0/241 130/0/241
f 128/0/242 127/0/242 134/0/242
f 128/0/243 129/0/243 49/0/243
f 49/0/244 129/0/244 53/0/244
f 53/0/245 85/0/245 75/0/245
f 54/0/246 48/0/246 77/0/246
f 125/0/247 109/0/247 130/0/247
f 79/0/248 140/0/248 130/0/248
f 134/0/249 135/0/249 128/0/249
f 53/0/250 129/0/250 56/0/250
f 54/0/251 77/0/251 82/0/251
f 54/0/252 1/0/252 78/0/252
f 50/0/253 78/0/253 1/0/253
f 55/0/254 50/0/254 3/0/254
f 130/0/255 109/0/255 80/0/255
f 83/0/256 134/0/256 55/0/256
f 81/0/257 51/0/257 132/0/257
f 7/0/258 132/0/258 79/0/258
f 140/0/259 132/0/259 57/0/259
f 57/0/260 139/0/260 140/0/260
f 138/0/261 139/0/261 57/0/261
f 40/0/262 138/0/262 57/0/262
f 36/0/263 138/0/263 40/0/263
f 102/0/264 29/0/264 32/0/264
f 97/0/265 15/0/265 137/0/265
f 15/0/266 136/0/266 137/0/266
f 59/0/267 15/0/267 7/0/267
f 11/0/268 92/0/268 62/0/268
f 14/0/269 23/0/269 63/0/269
f 99/0/270 21/0/270 96/0/270
f 31/0/271 68/0/271 112/0/271
f 114/0/272 71/0/272 115/0/272
f 60/0/273 2/0/273 56/0/273
f 119/0/274 70/0/274 107/0/274
f 119/0/275 39/0/275 111/0/275
f 134/0/276 127/0/276 76/0/276
