# Blender v3.4.1 OBJ File: 'BLEND_crate.blend'
# www.blender.org
mtllib vendor_crate.mtl
o base_caixote_Cube.002
v 0.133545 0.156528 0.264606
v 0.156994 0.156528 0.264606
v 0.133545 0.156528 0.290645
v 0.156994 0.156528 0.290645
v 0.133545 0.156528 -0.290651
v 0.133545 0.156528 -0.265784
v 0.156994 0.156528 -0.290651
v 0.156994 0.156528 -0.265784
v 0.158286 0.123012 0.290645
v 0.158286 0.036256 0.290645
v 0.158286 0.036256 -0.290651
v 0.158286 0.123012 -0.290651
v 0.164811 0.036256 0.290645
v 0.164811 0.123012 0.290645
v 0.164811 0.123012 -0.290651
v 0.164811 0.036256 -0.290651
v 0.156994 0.108965 0.290736
v 0.156994 0.016669 0.290736
v 0.156994 0.108965 0.297261
v 0.156994 0.016669 0.297261
v 0.156994 0.107984 -0.290861
v 0.156994 0.017141 -0.290861
v 0.156994 0.017141 -0.297386
v 0.156994 0.107984 -0.297386
v 0.156994 0.157703 -0.290651
v 0.156994 0.157703 -0.265784
v 0.156994 0.161618 -0.290651
v 0.156994 0.161618 -0.265784
v 0.156994 0.157703 0.264606
v 0.156994 0.157703 0.290645
v 0.156994 0.161618 0.264606
v 0.156994 0.161618 0.290645
v -0.133545 0.156528 0.264606
v -0.156994 0.156528 0.264606
v -0.133545 0.156528 0.290645
v -0.156994 0.156528 0.290645
v -0.133545 0.156528 -0.290651
v -0.133545 0.156528 -0.265784
v -0.156994 0.156528 -0.290651
v -0.156994 0.156528 -0.265784
v -0.158286 0.123012 0.290645
v -0.158286 0.036256 0.290645
v -0.158286 0.036256 -0.290651
v -0.158286 0.123012 -0.290651
v -0.164811 0.036256 0.290645
v -0.164811 0.123012 0.290645
v -0.164811 0.123012 -0.290651
v -0.164811 0.036256 -0.290651
v -0.156994 0.016669 0.290736
v -0.156994 0.108965 0.290736
v -0.156994 0.108965 0.297261
v -0.156994 0.016669 0.297261
v -0.156994 0.107984 -0.290861
v -0.156994 0.017141 -0.290861
v -0.156994 0.017141 -0.297386
v -0.156994 0.107984 -0.297386
v -0.156994 0.157703 -0.290651
v -0.156994 0.157703 -0.265784
v -0.156994 0.161618 -0.290651
v -0.156994 0.161618 -0.265784
v -0.156994 0.157703 0.264606
v -0.156994 0.157703 0.290645
v -0.156994 0.161618 0.264606
v -0.156994 0.161618 0.290645
v 0.156994 -0.000727 0.264606
v 0.156994 -0.000727 0.290645
v 0.156994 0.003189 0.264606
v 0.156994 0.003189 0.290645
v -0.156994 -0.000727 0.264606
v -0.156994 -0.000727 0.290645
v -0.156994 0.003189 0.264606
v -0.156994 0.003189 0.290645
v 0.156994 -0.000727 -0.290651
v 0.156994 -0.000727 -0.265784
v 0.156994 0.003189 -0.290651
v 0.156994 0.003189 -0.265784
v -0.156994 -0.000727 -0.290651
v -0.156994 -0.000727 -0.265784
v -0.156994 0.003189 -0.290651
v -0.156994 0.003189 -0.265784
v 0.156994 0.016905 -0.290651
v 0.156994 0.016905 -0.265784
v 0.133545 0.016905 -0.265784
v 0.133545 0.016905 -0.290651
v -0.156994 0.016905 -0.290651
v -0.156994 0.016905 -0.265784
v -0.133545 0.016905 -0.265784
v -0.133545 0.016905 -0.290651
v -0.133545 0.016905 0.264606
v -0.156994 0.016905 0.264606
v -0.156994 0.016905 0.290645
v -0.133545 0.016905 0.290645
v 0.133545 0.016905 0.264606
v 0.156994 0.016905 0.264606
v 0.156994 0.016905 0.290645
v 0.133545 0.016905 0.290645
v -0.157315 0.003238 0.291194
v -0.157315 0.016555 0.291194
v -0.157315 0.003238 -0.290967
v -0.157315 0.016555 -0.290967
v -0.077951 0.003238 0.291194
v -0.077951 0.016555 0.291194
v -0.077951 0.003238 -0.290967
v -0.077951 0.016555 -0.290967
v -0.050748 0.003238 0.291194
v -0.050748 0.016555 0.291194
v -0.050748 0.003238 -0.290967
v -0.050748 0.016555 -0.290967
v 0.050795 0.003238 0.291194
v 0.050795 0.016555 0.291194
v 0.050795 0.003238 -0.290967
v 0.050795 0.016555 -0.290967
v 0.077999 0.003238 0.291194
v 0.077999 0.016555 0.291194
v 0.077999 0.003238 -0.290967
v 0.077999 0.016555 -0.290967
v 0.157362 0.003238 0.291194
v 0.157362 0.016555 0.291194
v 0.157362 0.003238 -0.290967
v 0.157362 0.016555 -0.290967
vt 0.443526 0.940779
vt 0.475122 0.763370
vt 0.475123 0.940779
vt 0.239652 0.941620
vt 0.269447 0.764210
vt 0.269447 0.941620
vt 0.239652 0.731124
vt 0.269447 0.731124
vt 0.504918 0.731772
vt 0.475122 0.731772
vt 0.504918 0.940779
vt 0.536515 0.763370
vt 0.536515 0.940779
vt 0.504918 0.763369
vt 0.302533 0.764210
vt 0.302533 0.941620
vt 0.206566 0.941620
vt 0.239652 0.764210
vt 0.176771 0.941620
vt 0.206566 0.764210
vt 0.566310 0.763369
vt 0.566310 0.940779
vt 0.528751 0.594439
vt 0.520408 0.116434
vt 0.528751 0.116391
vt 0.449061 0.594481
vt 0.520408 0.594481
vt 0.440717 0.116477
vt 0.440717 0.594524
vt 0.440150 0.005543
vt 0.449061 0.116434
vt 0.449629 0.705416
vt 0.441285 0.705459
vt 0.811272 0.706917
vt 0.817110 0.987892
vt 0.811272 0.987892
vt 0.722841 0.706917
vt 0.640250 0.987892
vt 0.640249 0.706917
vt 0.728680 0.706917
vt 0.722842 0.987892
vt 0.728680 0.993731
vt 0.811272 0.993731
vt 0.822950 0.706917
vt 0.904241 0.987892
vt 0.822950 0.987892
vt 0.904241 0.706917
vt 0.910080 0.987892
vt 0.817111 0.706917
vt 0.817111 0.987892
vt 0.822950 0.993731
vt 0.904241 0.993731
vt 0.910080 0.706917
vt 0.991372 0.987892
vt 0.969638 0.389479
vt 0.991211 0.661868
vt 0.969638 0.661868
vt 0.964755 0.359302
vt 0.969509 0.359281
vt 0.940671 0.320924
vt 0.963282 0.048273
vt 0.963282 0.320924
vt 0.968040 0.320904
vt 0.935912 0.048293
vt 0.935912 0.320944
vt 0.968041 0.048252
vt 0.963146 0.016622
vt 0.967905 0.016602
vt 0.342605 0.940782
vt 0.311007 0.763372
vt 0.342605 0.763372
vt 0.075775 0.764210
vt 0.105570 0.941620
vt 0.075775 0.941619
vt 0.105570 0.731124
vt 0.105571 0.764210
vt 0.372400 0.972380
vt 0.342605 0.972380
vt 0.403997 0.940782
vt 0.372400 0.763372
vt 0.403997 0.763372
vt 0.372400 0.940782
vt 0.042689 0.764210
vt 0.042689 0.941619
vt 0.138656 0.941620
vt 0.138656 0.764210
vt 0.168451 0.941620
vt 0.433792 0.940782
vt 0.433792 0.763372
vt 0.356144 0.120388
vt 0.364488 0.598394
vt 0.356144 0.598436
vt 0.284797 0.120388
vt 0.276454 0.598384
vt 0.276454 0.120336
vt 0.284797 0.598436
vt 0.275762 0.709315
vt 0.285488 0.009458
vt 0.277145 0.009406
vt 0.728680 0.701078
vt 0.811272 0.701078
vt 0.822950 0.701078
vt 0.904241 0.701078
vt 0.943311 0.389499
vt 0.964884 0.661888
vt 0.943311 0.661888
vt 0.938557 0.389519
vt 0.938557 0.661908
vt 0.964884 0.389499
vt 0.965013 0.692085
vt 0.969767 0.692065
vt 0.990651 0.320904
vt 0.963417 0.352575
vt 0.968176 0.352554
vt 0.895847 0.050226
vt 0.873236 0.322877
vt 0.873236 0.050226
vt 0.868477 0.050246
vt 0.900606 0.322856
vt 0.900605 0.050205
vt 0.900741 0.354507
vt 0.895847 0.322877
vt 0.923217 0.322856
vt 0.923217 0.050205
vt 0.900470 0.018555
vt 0.921108 0.391455
vt 0.899535 0.663844
vt 0.899535 0.391455
vt 0.925862 0.663824
vt 0.925862 0.391434
vt 0.894781 0.663821
vt 0.894781 0.391431
vt 0.899384 0.694041
vt 0.894630 0.694017
vt 0.873208 0.391431
vt 0.899685 0.361258
vt 0.894931 0.361234
vt 0.239652 0.974706
vt 0.269447 0.974706
vt 0.504918 0.972377
vt 0.205107 0.598384
vt 0.369370 0.594524
vt 0.369371 0.116477
vt 0.372400 0.731775
vt 0.342605 0.731775
vt 0.105570 0.974706
vt 0.774138 0.102750
vt 0.762900 0.594045
vt 0.762900 0.102750
vt 0.774138 0.594045
vt 0.762900 0.661025
vt 0.841115 0.594045
vt 0.852353 0.102750
vt 0.852353 0.594045
vt 0.774138 0.035773
vt 0.762900 0.035773
vt 0.695923 0.594045
vt 0.841114 0.102750
vt 0.104268 0.598119
vt 0.115506 0.106824
vt 0.115506 0.598119
vt 0.104268 0.106824
vt 0.115506 0.021125
vt 0.018573 0.106824
vt 0.007335 0.598120
vt 0.007335 0.106824
vt 0.104268 0.683814
vt 0.115506 0.683814
vt 0.201201 0.106824
vt 0.018574 0.598120
vt 0.678826 0.594045
vt 0.690064 0.102750
vt 0.690064 0.594045
vt 0.611849 0.035773
vt 0.600611 0.102750
vt 0.600611 0.035773
vt 0.611849 0.102750
vt 0.600611 0.594045
vt 0.611849 0.594045
vt 0.600611 0.661025
vt 0.533634 0.594045
vt 0.533634 0.102750
vt 0.678825 0.102750
vt 0.443525 0.763370
vt 0.176771 0.764210
vt 0.448493 0.005500
vt 0.817111 0.706917
vt 0.728680 0.987892
vt 0.991372 0.706917
vt 0.991211 0.389479
vt 0.940671 0.048273
vt 0.311007 0.940782
vt 0.075775 0.731124
vt 0.168451 0.764210
vt 0.364488 0.120345
vt 0.284106 0.709367
vt 0.990651 0.048252
vt 0.868477 0.322897
vt 0.895982 0.354527
vt 0.895711 0.018575
vt 0.921108 0.663844
vt 0.873208 0.663821
vt 0.475123 0.972377
vt 0.205107 0.120336
vt 0.075775 0.974706
vt 0.774138 0.661025
vt 0.695923 0.102750
vt 0.104267 0.021125
vt 0.201201 0.598119
vt 0.611849 0.661025
vn 1.0000 0.0000 0.0000
vn 0.0000 0.0000 -1.0000
vn 0.0000 1.0000 0.0000
vn -1.0000 0.0000 0.0000
vn 0.0000 0.0000 1.0000
vn 0.0000 -1.0000 0.0000
usemtl crate_mat_0001
s off
f 81/1/1 8/2/1 82/3/1
f 93/4/2 2/5/2 94/6/2
f 2/5/3 3/7/3 4/8/3
f 5/9/3 8/2/3 7/10/3
f 83/11/4 5/12/4 84/13/4
f 82/3/5 6/14/5 83/11/5
f 94/6/1 4/15/1 95/16/1
f 96/17/4 1/18/4 93/4/4
f 95/19/5 3/20/5 96/17/5
f 84/13/2 7/21/2 81/22/2
f 11/23/6 13/24/6 10/25/6
f 15/26/1 13/24/1 16/27/1
f 9/28/3 15/26/3 12/29/3
f 10/30/5 14/31/5 9/28/5
f 12/29/2 16/32/2 11/33/2
f 52/34/6 18/35/6 20/36/6
f 50/37/2 18/38/2 49/39/2
f 20/36/5 51/40/5 52/34/5
f 51/40/3 17/41/3 50/37/3
f 17/42/1 20/36/1 18/43/1
f 55/44/2 24/45/2 23/46/2
f 56/47/3 21/48/3 24/45/3
f 54/49/6 23/46/6 22/50/6
f 22/51/1 24/45/1 21/52/1
f 53/53/5 22/54/5 21/48/5
f 25/55/6 58/56/6 57/57/6
f 25/55/1 28/58/1 26/59/1
f 64/60/3 31/61/3 63/62/3
f 31/61/2 61/63/2 63/62/2
f 30/64/5 64/60/5 62/65/5
f 29/66/1 32/67/1 30/68/1
f 40/69/4 85/70/4 86/71/4
f 34/72/2 89/73/2 90/74/2
f 34/72/3 35/75/3 33/76/3
f 40/69/3 37/77/3 39/78/3
f 37/79/1 87/80/1 88/81/1
f 38/82/5 86/71/5 87/80/5
f 36/83/4 90/74/4 91/84/4
f 33/76/1 92/85/1 89/73/1
f 35/86/5 91/87/5 92/85/5
f 39/88/2 88/81/2 85/89/2
f 48/90/6 42/91/6 45/92/6
f 45/92/4 47/93/4 48/90/4
f 47/93/3 41/94/3 44/95/3
f 46/96/5 42/97/5 41/94/5
f 48/98/2 44/95/2 43/99/2
f 52/34/4 50/100/4 49/101/4
f 56/47/4 54/102/4 53/103/4
f 28/104/3 59/105/3 60/106/3
f 26/107/5 60/106/5 58/108/5
f 27/109/2 57/57/2 59/105/2
f 60/110/4 57/57/4 58/111/4
f 29/66/6 62/112/6 61/63/6
f 64/113/4 61/63/4 62/114/4
f 72/115/3 67/116/3 71/117/3
f 67/116/2 69/118/2 71/117/2
f 66/119/5 72/115/5 70/120/5
f 65/121/1 68/122/1 66/119/1
f 65/123/6 70/120/6 69/124/6
f 72/115/4 69/125/4 70/120/4
f 80/126/3 75/127/3 79/128/3
f 74/129/5 80/126/5 78/130/5
f 79/128/2 73/131/2 77/132/2
f 73/131/1 76/133/1 74/134/1
f 73/131/6 78/135/6 77/132/6
f 80/136/4 77/132/4 78/137/4
f 96/138/6 94/6/6 95/139/6
f 84/140/6 82/3/6 83/11/6
f 42/141/1 44/95/1 41/94/1
f 9/28/4 11/142/4 10/143/4
f 88/144/6 86/71/6 85/145/6
f 92/146/6 90/74/6 89/73/6
f 98/147/4 99/148/4 97/149/4
f 100/150/2 103/151/2 99/148/2
f 104/152/1 101/153/1 103/154/1
f 102/155/5 97/149/5 101/156/5
f 103/157/6 97/149/6 99/148/6
f 100/150/3 102/158/3 104/152/3
f 106/159/4 107/160/4 105/161/4
f 108/162/2 111/163/2 107/160/2
f 112/164/1 109/165/1 111/166/1
f 110/167/5 105/161/5 109/168/5
f 111/169/6 105/161/6 107/160/6
f 108/162/3 110/170/3 112/164/3
f 114/171/4 115/172/4 113/173/4
f 116/174/2 119/175/2 115/176/2
f 120/177/1 117/178/1 119/175/1
f 118/179/5 113/180/5 117/178/5
f 119/175/6 113/181/6 115/182/6
f 116/183/3 118/179/3 120/177/3
f 81/1/1 7/184/1 8/2/1
f 93/4/2 1/18/2 2/5/2
f 2/5/3 1/18/3 3/7/3
f 5/9/3 6/14/3 8/2/3
f 83/11/4 6/14/4 5/12/4
f 82/3/5 8/2/5 6/14/5
f 94/6/1 2/5/1 4/15/1
f 96/17/4 3/20/4 1/18/4
f 95/19/5 4/185/5 3/20/5
f 84/13/2 5/12/2 7/21/2
f 11/23/6 16/27/6 13/24/6
f 15/26/1 14/31/1 13/24/1
f 9/28/3 14/31/3 15/26/3
f 10/30/5 13/186/5 14/31/5
f 12/29/2 15/26/2 16/32/2
f 52/34/6 49/187/6 18/35/6
f 50/37/2 17/41/2 18/38/2
f 20/36/5 19/188/5 51/40/5
f 51/40/3 19/188/3 17/41/3
f 17/42/1 19/188/1 20/36/1
f 55/44/2 56/47/2 24/45/2
f 56/47/3 53/53/3 21/48/3
f 54/49/6 55/44/6 23/46/6
f 22/51/1 23/46/1 24/45/1
f 53/53/5 54/189/5 22/54/5
f 25/55/6 26/190/6 58/56/6
f 25/55/1 27/109/1 28/58/1
f 64/60/3 32/191/3 31/61/3
f 31/61/2 29/66/2 61/63/2
f 30/64/5 32/191/5 64/60/5
f 29/66/1 31/61/1 32/67/1
f 40/69/4 39/192/4 85/70/4
f 34/72/2 33/76/2 89/73/2
f 34/72/3 36/193/3 35/75/3
f 40/69/3 38/82/3 37/77/3
f 37/79/1 38/82/1 87/80/1
f 38/82/5 40/69/5 86/71/5
f 36/83/4 34/72/4 90/74/4
f 33/76/1 35/86/1 92/85/1
f 35/86/5 36/194/5 91/87/5
f 39/88/2 37/79/2 88/81/2
f 48/90/6 43/195/6 42/91/6
f 45/92/4 46/96/4 47/93/4
f 47/93/3 46/96/3 41/94/3
f 46/96/5 45/196/5 42/97/5
f 48/98/2 47/93/2 44/95/2
f 52/34/4 51/40/4 50/100/4
f 56/47/4 55/44/4 54/102/4
f 28/104/3 27/109/3 59/105/3
f 26/107/5 28/104/5 60/106/5
f 27/109/2 25/55/2 57/57/2
f 60/110/4 59/105/4 57/57/4
f 29/66/6 30/197/6 62/112/6
f 64/113/4 63/62/4 61/63/4
f 72/115/3 68/122/3 67/116/3
f 67/116/2 65/198/2 69/118/2
f 66/119/5 68/122/5 72/115/5
f 65/121/1 67/199/1 68/122/1
f 65/123/6 66/119/6 70/120/6
f 72/115/4 71/200/4 69/125/4
f 80/126/3 76/201/3 75/127/3
f 74/129/5 76/201/5 80/126/5
f 79/128/2 75/127/2 73/131/2
f 73/131/1 75/127/1 76/133/1
f 73/131/6 74/202/6 78/135/6
f 80/136/4 79/128/4 77/132/4
f 96/138/6 93/4/6 94/6/6
f 84/140/6 81/203/6 82/3/6
f 42/141/1 43/204/1 44/95/1
f 9/28/4 12/29/4 11/142/4
f 88/144/6 87/80/6 86/71/6
f 92/146/6 91/205/6 90/74/6
f 98/147/4 100/150/4 99/148/4
f 100/150/2 104/206/2 103/151/2
f 104/152/1 102/158/1 101/153/1
f 102/155/5 98/147/5 97/149/5
f 103/157/6 101/207/6 97/149/6
f 100/150/3 98/147/3 102/158/3
f 106/159/4 108/162/4 107/160/4
f 108/162/2 112/208/2 111/163/2
f 112/164/1 110/170/1 109/165/1
f 110/167/5 106/159/5 105/161/5
f 111/169/6 109/209/6 105/161/6
f 108/162/3 106/159/3 110/170/3
f 114/171/4 116/183/4 115/172/4
f 116/174/2 120/177/2 119/175/2
f 120/177/1 118/179/1 117/178/1
f 118/179/5 114/210/5 113/180/5
f 119/175/6 117/178/6 113/181/6
f 116/183/3 114/171/3 118/179/3
