# Blender v3.4.1 OBJ File: 'Cloud1.blend'
# www.blender.org
mtllib cloud1.mtl
o Icosphere.003_Icosphere.022
v 0.695687 -1.111769 -0.633005
v 2.071235 -0.216252 -0.470409
v 1.159957 -0.339868 0.587390
v -0.285878 -0.398584 0.465413
v 1.032572 -0.182355 -1.531105
v 1.864143 1.000158 0.080786
v -0.740171 -0.211010 -0.891985
v -0.690912 -0.221285 -0.613040
v 0.310046 1.304031 0.631541
v 1.399686 1.336934 -1.253225
v -0.652445 -0.174360 -0.953228
v -0.797395 1.080985 -0.222284
v -0.798100 0.699017 -0.429438
v -0.691142 0.553450 -0.197680
v -0.688811 0.545020 -0.195451
v -0.618151 -0.133022 -0.354807
v -0.645232 -0.218522 -0.479191
v 0.056300 1.440634 -1.290367
v -0.635487 -0.167830 -0.959427
v -0.527586 0.090210 -1.011462
v -0.549257 0.298649 -1.016140
v 0.594657 2.053055 -0.308852
v -0.517192 0.432037 -0.990915
v -0.567052 0.594110 -0.828745
v -0.795317 0.700735 -0.432622
v -2.720052 -0.232482 -0.284853
v -2.795301 -0.173144 -0.404806
v -2.672540 -0.169206 -0.443964
v -2.612286 -0.155477 -0.313663
v -2.815622 -0.169837 -0.241708
v -2.752134 -0.067223 -0.460156
v -2.689552 -0.153155 -0.171945
v -2.631389 -0.046217 -0.396666
v -2.832218 -0.057724 -0.327870
v -2.645993 -0.037997 -0.242853
v -2.764330 -0.036457 -0.211846
v -2.728552 0.012058 -0.346017
v -1.386206 -0.456092 -0.693030
v -0.687296 -0.170066 -1.120363
v -1.192880 -0.030790 -0.085907
v -1.605717 -0.088165 -1.234308
v -1.991572 0.035938 -0.521780
v -1.076265 0.509902 -1.331159
v -1.546481 0.658469 -0.278643
v -1.721595 0.676634 -0.947277
v -0.945910 0.898551 -0.746985
vn 0.4884 -0.8094 0.3261
vn -0.0111 -0.8432 0.5375
vn 0.5084 -0.6866 -0.5198
vn 0.7571 -0.1583 0.6338
vn -0.5386 -0.8401 0.0642
vn -0.0811 -0.0686 0.9943
vn 0.7131 -0.0443 -0.6997
vn -0.2567 -0.6219 -0.7398
vn 0.3574 0.1601 0.9201
vn 0.9278 0.2731 -0.2541
vn -0.9311 -0.1726 0.3213
vn -0.6222 0.1427 0.7697
vn 0.0404 0.1703 -0.9846
vn -0.3241 -0.0549 -0.9444
vn 0.3604 0.6734 0.6455
vn 0.6437 0.7646 -0.0311
vn -0.7927 0.2918 -0.5353
vn -0.4938 0.7468 0.4454
vn 0.0792 0.8257 -0.5586
vn -0.5703 0.8000 -0.1864
vn 0.3281 -0.9401 -0.0926
vn 0.1083 -0.8301 0.5470
vn -0.0042 -0.8278 -0.5610
vn 0.8666 -0.4175 -0.2732
vn 0.3923 -0.1715 0.9037
vn -0.3898 -0.6913 0.6084
vn 0.0981 -0.2431 -0.9650
vn -0.6521 -0.7233 -0.2272
vn 0.5231 0.0353 -0.8515
vn -0.0624 0.2390 0.9690
vn -0.4791 -0.0003 0.8778
vn -0.4449 0.2548 -0.8586
vn -0.8748 0.0484 -0.4821
vn 0.4402 0.6991 -0.5634
vn 0.0567 0.8570 0.5121
vn -0.8319 0.5043 0.2316
vn -0.1017 0.8386 -0.5352
vn 0.6392 0.7508 0.1663
vn -0.2983 0.9488 0.1039
vn -0.0958 -0.9148 -0.3924
vn 0.5439 -0.8228 -0.1648
vn -0.5642 -0.8239 -0.0536
vn -0.2737 -0.3555 -0.8937
vn 0.6052 -0.7190 0.3417
vn 0.9035 -0.1476 -0.4023
vn -0.9659 -0.2318 -0.1156
vn -0.2309 -0.7657 0.6003
vn 0.4296 0.1953 -0.8816
vn -0.8507 0.0748 -0.5204
vn 0.8771 -0.0369 0.4788
vn 0.9699 0.2302 0.0798
vn -0.8582 0.2269 0.4605
vn -0.4831 -0.0102 0.8755
vn 0.1701 0.7925 -0.5856
vn -0.5600 0.7302 -0.3915
vn 0.2324 0.4447 0.8650
vn 0.5156 0.8569 0.0032
vn -0.5320 0.8317 0.1589
vn 0.1072 0.9255 0.3632
vn -0.9311 -0.1725 0.3213
vn -0.9311 -0.1725 0.3215
vn -0.7926 0.2918 -0.5354
vn 0.0568 0.8570 0.5121
usemtl Material.007
s off
f 1/0/1 2/0/1 3/0/1
f 1/0/2 3/0/2 4/0/2
f 2/0/3 1/0/3 5/0/3
f 3/0/4 2/0/4 6/0/4
f 1/0/5 8/0/5 7/0/5
f 4/0/6 3/0/6 9/0/6
f 2/0/7 5/0/7 10/0/7
f 11/0/8 1/0/8 7/0/8
f 3/0/9 6/0/9 9/0/9
f 2/0/10 10/0/10 6/0/10
f 4/0/11 15/0/11 16/0/11
f 4/0/12 9/0/12 12/0/12
f 5/0/13 18/0/13 10/0/13
f 5/0/14 19/0/14 20/0/14
f 9/0/15 6/0/15 22/0/15
f 6/0/16 10/0/16 22/0/16
f 12/0/17 18/0/17 24/0/17
f 12/0/18 9/0/18 22/0/18
f 10/0/19 18/0/19 22/0/19
f 18/0/20 12/0/20 22/0/20
f 38/0/21 7/0/21 8/0/21
f 40/0/22 17/0/22 16/0/22
f 39/0/23 38/0/23 41/0/23
f 19/0/24 39/0/24 20/0/24
f 15/0/25 40/0/25 16/0/25
f 38/0/26 40/0/26 42/0/26
f 39/0/27 41/0/27 43/0/27
f 38/0/28 42/0/28 41/0/28
f 43/0/29 23/0/29 21/0/29
f 14/0/30 40/0/30 15/0/30
f 42/0/31 40/0/31 44/0/31
f 41/0/32 45/0/32 43/0/32
f 41/0/33 42/0/33 45/0/33
f 43/0/34 24/0/34 23/0/34
f 13/0/35 25/0/35 46/0/35
f 42/0/36 44/0/36 45/0/36
f 43/0/37 45/0/37 46/0/37
f 24/0/38 46/0/38 25/0/38
f 45/0/39 44/0/39 46/0/39
f 26/0/40 27/0/40 28/0/40
f 26/0/41 28/0/41 29/0/41
f 27/0/42 26/0/42 30/0/42
f 28/0/43 27/0/43 31/0/43
f 26/0/44 29/0/44 32/0/44
f 29/0/45 28/0/45 33/0/45
f 27/0/46 30/0/46 34/0/46
f 26/0/47 32/0/47 30/0/47
f 28/0/48 31/0/48 33/0/48
f 27/0/49 34/0/49 31/0/49
f 32/0/50 29/0/50 35/0/50
f 29/0/51 33/0/51 35/0/51
f 30/0/52 36/0/52 34/0/52
f 30/0/53 32/0/53 36/0/53
f 33/0/54 31/0/54 37/0/54
f 31/0/55 34/0/55 37/0/55
f 32/0/56 35/0/56 36/0/56
f 35/0/57 33/0/57 37/0/57
f 34/0/58 36/0/58 37/0/58
f 36/0/59 35/0/59 37/0/59
f 1/0/5 4/0/5 8/0/5
f 11/0/8 5/0/8 1/0/8
f 17/0/60 8/0/60 4/0/60
f 12/0/11 13/0/11 14/0/11
f 12/0/61 14/0/61 15/0/61
f 16/0/11 17/0/11 4/0/11
f 4/0/11 12/0/11 15/0/11
f 5/0/14 11/0/14 19/0/14
f 20/0/14 21/0/14 5/0/14
f 21/0/14 18/0/14 5/0/14
f 25/0/62 13/0/62 12/0/62
f 18/0/17 21/0/17 23/0/17
f 24/0/17 25/0/17 12/0/17
f 18/0/17 23/0/17 24/0/17
f 38/0/21 39/0/21 7/0/21
f 39/0/21 19/0/21 11/0/21
f 39/0/21 11/0/21 7/0/21
f 8/0/21 17/0/21 38/0/21
f 40/0/22 38/0/22 17/0/22
f 20/0/29 39/0/29 21/0/29
f 39/0/29 43/0/29 21/0/29
f 14/0/30 44/0/30 40/0/30
f 43/0/34 46/0/34 24/0/34
f 46/0/63 44/0/63 13/0/63
f 44/0/63 14/0/63 13/0/63
