# Blender v3.4.1 OBJ File: 'tree-round.blend'
# www.blender.org
mtllib tree_round.mtl
o leaves_Icosphere.002
v -0.262365 4.206862 0.346429
v -1.181274 3.607048 2.282067
v -1.507961 3.665589 -2.124026
v -0.101107 6.045513 2.400663
v -2.535206 5.383346 -1.826754
v 2.442608 6.253155 0.023190
v -0.591082 7.963504 -0.114734
v -0.906482 3.639888 1.210450
v 0.760289 3.742337 2.191859
v 2.116135 3.600985 1.098719
v -0.369516 3.938058 -0.689469
v 1.161262 3.955021 -1.719622
v -0.789106 4.018748 0.385062
v -2.253344 3.834440 1.685130
v -2.722421 3.793841 0.653962
v -1.378745 3.932271 -0.388178
v -0.238622 3.769677 -1.980554
v 0.175016 3.811855 -1.483014
v 3.037497 5.143692 0.491466
v 3.085383 4.058761 0.581732
v 3.022784 5.023809 -0.624839
v 0.618614 5.312798 3.103650
v 2.037277 3.662377 2.038445
v 1.977491 4.064149 2.468516
v -3.314045 3.824429 1.389544
v -3.397763 3.598495 1.092662
v -1.335608 4.484900 2.707002
v -2.138413 4.731421 2.416873
v -2.041586 5.272121 2.189951
v -3.222312 4.448834 -1.873704
v -2.330137 3.932498 -2.311235
v -3.351956 3.684818 -0.545270
v -3.811520 4.244428 -0.769058
v -3.459105 5.242414 -0.703082
v 0.851037 4.379606 -2.547184
v -0.730793 4.257931 -2.802676
v 0.388763 5.591202 -2.682850
v 2.488245 5.913327 1.258143
v 1.773070 6.137354 2.043215
v 0.752552 6.318754 2.415054
v -0.434265 5.681380 -2.630116
v 1.551476 5.693401 -1.608936
v 2.527031 5.744837 -0.846394
v 0.023434 7.883810 0.606615
v 1.226303 7.374259 0.159888
v 0.036821 7.853139 -0.274384
v -1.467955 7.597692 0.306265
v -1.573983 6.415035 2.106590
v -1.907491 6.194436 1.976390
v -1.967094 7.441780 -0.818307
v -2.717819 6.478015 -1.155083
v 0.347585 6.512843 -2.314184
v -0.831889 7.596352 -1.070408
v -1.674584 6.849865 -1.792537
v -2.813706 6.673599 -0.206749
v -2.458084 6.563536 0.489291
v -0.486671 7.532323 1.097025
v 0.662223 7.004156 1.848643
v 1.577157 7.137270 0.975662
v 2.447361 4.948838 -1.397339
v 1.317047 4.353246 -1.992719
v -2.158282 4.097260 -2.570721
v -3.922764 4.094387 0.547669
v -1.064711 4.923511 2.758853
v 2.354805 4.927997 2.024844
v 0.263376 4.606065 -2.729375
v -3.237877 3.902216 -1.406791
v -2.309661 3.913240 2.243135
v 0.492200 4.538439 3.238724
v -0.310492 3.463484 2.895090
v 0.986734 3.833433 2.672825
v 2.774392 4.279346 -0.917307
v 2.779606 3.580198 -0.033597
v 2.423639 3.736372 -0.494231
v -1.099617 3.509888 -1.214013
v -1.697319 3.758518 -0.853936
v -2.132097 4.205885 0.777800
v 0.503356 3.606806 -0.881585
v 1.402542 3.979770 0.493259
v 0.463971 4.598632 0.714900
v -0.312752 3.357638 1.944835
v 0.491393 4.454821 1.408855
vn 0.3236 -0.9354 -0.1422
vn 0.0780 -0.9669 0.2428
vn -0.5647 -0.4379 0.6996
vn 0.0180 -0.8868 -0.4617
vn 0.2512 -0.9669 -0.0439
vn -0.2072 0.6068 0.7674
vn -0.7644 0.2397 -0.5985
vn -0.0189 0.3706 -0.9286
vn 0.4683 0.7695 -0.4343
vn 0.6120 0.7072 -0.3540
vn 0.4195 0.6953 -0.5836
vn 0.6672 0.5973 -0.4450
vn 0.6295 0.3127 -0.7113
vn 0.0679 0.9255 -0.3727
vn -0.1953 0.9310 -0.3085
vn 0.2232 0.8299 -0.5113
vn -0.0558 0.7260 -0.6854
vn -0.2320 0.7988 -0.5550
vn -0.5570 0.6250 -0.5470
vn -0.1466 0.4688 -0.8711
vn -0.3763 0.2417 -0.8944
vn -0.5763 0.3554 -0.7359
vn -0.3702 0.9283 0.0356
vn -0.7353 0.6452 -0.2074
vn -0.5990 0.7852 0.1570
vn -0.6170 0.6652 0.4204
vn -0.6245 0.6692 0.4028
vn -0.6091 0.6871 0.3961
vn -0.8711 0.4560 -0.1821
vn -0.2383 0.9221 0.3049
vn -0.3500 0.7923 0.4998
vn -0.2476 0.8908 0.3809
vn -0.1123 0.7241 0.6805
vn -0.0392 0.5219 0.8521
vn 0.1652 0.9858 -0.0318
vn 0.3816 0.9239 -0.0264
vn -0.0044 0.8150 0.5795
vn 0.3004 0.8444 0.4436
vn 0.4151 0.9058 0.0846
vn 0.6713 0.7374 -0.0745
vn 0.3634 0.6215 0.6941
vn 0.4418 0.6938 0.5688
vn 0.6694 0.5995 0.4387
vn 0.7786 0.6118 0.1396
vn 0.8343 0.5074 -0.2156
vn 0.8031 -0.0342 -0.5949
vn 0.4461 -0.6183 -0.6471
vn 0.7414 0.3302 -0.5843
vn 0.5375 0.4429 -0.7176
vn 0.5598 -0.2845 -0.7782
vn 0.3753 0.1939 -0.9064
vn 0.5988 -0.5989 -0.5317
vn 0.7657 0.0497 -0.6412
vn 0.6605 0.1701 -0.7313
vn -0.1819 0.2384 -0.9540
vn -0.0265 -0.7379 -0.6744
vn -0.0608 0.0287 -0.9977
vn -0.3769 0.3785 -0.8454
vn -0.1249 -0.7981 -0.5895
vn -0.4270 0.3557 -0.8313
vn -0.9413 0.3351 -0.0413
vn -0.7377 -0.6609 -0.1376
vn -0.9150 0.4022 0.0300
vn -0.7586 0.4609 0.4605
vn -0.6530 -0.7551 -0.0581
vn -0.8119 -0.3310 0.4809
vn -0.6704 0.4123 0.6169
vn -0.8959 0.2197 0.3862
vn -0.3159 0.0834 0.9451
vn -0.4971 0.2637 0.8266
vn -0.3427 0.4151 0.8428
vn -0.4242 0.2373 0.8739
vn -0.0908 0.3728 0.9234
vn -0.2837 0.5040 0.8158
vn -0.1964 0.5715 0.7967
vn 0.5477 0.1804 0.8170
vn 0.5440 0.4234 0.7244
vn 0.3630 0.1607 0.9178
vn 0.7404 0.3474 0.5754
vn 0.7961 -0.3831 0.4685
vn 0.8564 -0.1156 0.5032
vn 0.9071 0.0745 0.4143
vn 0.8821 0.2090 0.4221
vn 0.8567 0.5046 0.1072
vn 0.2986 0.0071 -0.9544
vn 0.0597 0.0395 -0.9974
vn -0.1523 -0.8286 -0.5388
vn 0.5691 -0.7112 -0.4128
vn 0.3009 -0.7300 -0.6137
vn 0.1305 -0.8162 -0.5629
vn -0.6865 0.5298 -0.4980
vn -0.8572 0.3289 -0.3963
vn -0.5888 -0.4467 -0.6736
vn -0.5983 -0.5105 -0.6176
vn -0.7783 -0.3949 -0.4882
vn -0.6920 -0.6729 -0.2614
vn -0.7699 0.4032 0.4947
vn -0.7561 0.3637 0.5441
vn -0.4666 -0.6355 0.6152
vn -0.6460 -0.0268 0.7629
vn -0.3694 -0.1184 0.9217
vn 0.2356 -0.9694 -0.0690
vn 0.1240 -0.9807 0.1510
vn -0.1530 -0.4522 0.8787
vn -0.2417 0.2049 0.9485
vn -0.1833 -0.0030 0.9830
vn 0.4778 0.0747 0.8753
vn -0.3099 -0.0716 0.9481
vn 0.2785 -0.4748 0.8349
vn 0.2822 -0.4723 0.8350
vn 0.2966 -0.6770 0.6736
vn 0.2817 -0.9583 0.0489
vn -0.0369 -0.9785 0.2027
vn -0.0551 -0.9966 0.0605
vn 0.8901 0.4518 -0.0603
vn 0.9796 0.0267 -0.1993
vn 0.6317 -0.7319 0.2553
vn 0.9457 -0.3243 0.0224
vn 0.9276 -0.2903 -0.2352
vn 0.4191 -0.7108 -0.5649
vn 0.4225 -0.7110 -0.5621
vn 0.0929 -0.9930 0.0727
vn -0.2522 -0.9589 -0.1302
vn 0.0525 -0.9361 -0.3478
vn -0.3737 -0.9210 -0.1100
vn 0.2839 -0.8975 0.3375
vn 0.2109 -0.9731 -0.0929
vn 0.1037 -0.9716 -0.2128
vn 0.1513 -0.8584 0.4902
vn -0.3031 -0.9526 -0.0270
vn -0.3603 -0.9317 0.0452
vn -0.0594 -0.9939 -0.0929
vn -0.1219 -0.8998 0.4190
vn -0.0025 -0.9695 -0.2450
vn 0.2439 -0.9514 0.1881
vn 0.0558 -0.9966 0.0613
vn 0.4394 -0.7690 0.4643
vn 0.5890 -0.7724 -0.2375
vn -0.0855 -0.9809 0.1749
vn -0.2391 -0.8870 -0.3951
vn -0.2766 -0.8579 -0.4331
vn -0.1678 -0.9831 -0.0732
vn -0.2638 -0.9584 0.1087
vn 0.1237 -0.9470 -0.2964
vn -0.3626 -0.9201 -0.1482
vn 0.0142 -0.9673 0.2531
vn -0.4031 -0.7818 0.4757
vn -0.2035 -0.8339 0.5130
vn -0.5312 -0.8414 0.0997
vn 0.3878 -0.9012 0.1937
vn -0.3133 -0.9433 -0.1093
vn 0.5120 -0.8059 -0.2971
vn -0.2354 -0.9659 0.1081
vn 0.3143 -0.9436 0.1044
vn 0.4598 -0.6385 -0.6172
vn 0.3797 -0.6156 -0.6906
vn 0.3351 -0.9420 -0.0179
vn 0.5394 -0.8201 -0.1913
vn -0.4829 -0.8610 -0.1594
vn -0.4761 -0.7256 -0.4967
o trunk_Cube
v -0.089158 0.014365 0.286430
v 0.101507 0.797952 -0.146869
v -0.195173 0.399806 -0.122140
v -0.243139 0.436995 0.019576
v -0.016801 0.436875 -0.246871
v -0.471648 1.329176 -0.044524
v -0.546869 2.047113 -0.065373
v 0.181235 0.750953 0.049433
v -0.110882 1.646151 0.072614
v -0.365448 1.668151 -0.181926
v -0.578142 2.255295 0.199761
v -0.499948 1.869352 0.169700
v -0.020683 3.092245 -0.241687
v -0.182810 3.077532 -0.097200
v -0.961287 2.523022 0.035845
v -0.632976 2.208482 0.161820
v -0.414262 2.399113 0.080926
v -0.232445 4.213794 -0.240428
v -0.075511 4.181825 -0.165224
v -1.103992 3.837814 -0.067104
v -1.041414 3.859818 -0.141071
v -0.166624 1.833604 0.133178
v -0.465294 1.309094 0.091548
v 0.088859 0.014816 -0.286509
v 0.282679 -0.008845 0.100379
v 0.245507 -0.013375 -0.182483
v -0.286477 0.014379 -0.088943
v -0.365930 2.422250 -0.047303
v -0.224311 2.500243 0.031797
v -0.376514 2.070706 -0.187377
v -0.223265 2.086282 -0.196825
v -0.161526 0.405729 0.169418
v 0.118129 -0.019494 0.262411
v -0.432145 2.458956 0.616233
v -0.181285 2.222929 0.137340
v -0.375246 1.980313 0.257816
v -0.353341 4.073875 0.812777
v -0.539357 4.034371 0.847657
v -1.001091 2.569423 -0.139911
v -0.815598 3.925965 -0.894308
v -0.931910 3.898137 -0.094233
v -1.023683 2.842872 0.078323
v -0.740977 2.688214 0.098390
v -0.284179 3.068774 0.722452
v -0.001016 3.368435 -0.080917
v -0.045092 3.744430 -0.311865
v -0.195907 4.239047 -0.122328
v -0.173710 3.779411 -0.157855
v -0.762775 3.946643 -0.875230
v -0.876455 3.429180 -0.673017
v -0.825819 3.434871 -0.764561
v -0.273675 2.657114 0.808537
v -0.245297 3.037546 0.861433
v -0.432009 2.629781 0.658225
v -0.403355 2.722816 0.637283
v -0.923636 2.782379 -0.201466
v -0.934843 2.582525 -0.188785
v -0.761139 2.871180 -0.115055
v -0.763510 2.650599 -0.142126
v -0.297755 3.053204 0.872105
v -0.379591 3.004106 0.898818
v -0.126932 3.795918 1.747832
v -0.072175 3.151673 1.081717
v -0.184727 3.155742 1.093800
v -0.136706 3.844457 1.697291
v -0.209354 3.835088 1.727976
v -0.200925 3.780694 1.801643
v -0.111997 3.429596 1.318902
v -0.180176 3.099213 1.143384
v -0.100988 3.342382 1.271031
v -0.077002 3.387970 1.374476
v -0.097645 3.289147 1.351508
v 0.136623 3.548833 1.278816
v 0.206396 3.710666 1.212470
v 0.370503 4.048187 1.264959
v 0.445463 4.026676 1.278310
v 0.152366 3.512485 1.251367
v 0.393354 4.024649 1.315964
v 0.177375 0.033093 0.247338
v -0.079582 2.501797 -0.011573
v -0.336145 2.302544 0.144005
v -0.230441 2.644236 0.534216
v -0.443139 4.034450 0.907052
v -0.183300 2.651088 0.698569
v -0.461752 2.883864 0.816372
v -0.472449 4.095640 0.743031
v -0.188317 3.400436 1.495898
v -0.596918 2.388186 -0.158932
v -0.150781 2.131756 0.174520
v -0.249685 -0.017496 0.172527
v -0.164406 -0.026694 -0.250462
v -0.170671 1.935080 -0.128335
v -0.136311 4.162867 -0.330612
v -1.003546 3.873068 0.048769
v -0.318435 2.431098 -0.152161
v -0.314020 2.847364 0.623050
v -0.812092 3.364068 -0.624786
v -0.697082 2.594771 -0.084560
v -0.998573 2.869858 -0.127478
v -0.754635 3.937196 -0.964730
v -0.779226 2.815120 -0.200214
v -0.244802 2.967786 0.837483
v -0.353949 2.897519 0.897894
vn -0.1025 -0.9110 0.3993
vn 0.4162 0.1135 -0.9022
vn 0.9257 0.1789 -0.3331
vn 0.8234 0.1467 0.5482
vn -0.9971 -0.0668 0.0367
vn -0.6662 -0.0913 -0.7402
vn 0.9403 0.3028 0.1556
vn -0.4541 -0.1052 0.8847
vn -0.8703 -0.2564 0.4205
vn 0.9957 -0.0879 0.0292
vn -0.5796 -0.0270 -0.8145
vn 0.5079 -0.2026 -0.8372
vn 0.2203 0.2377 -0.9460
vn 0.7665 0.5115 -0.3885
vn 0.0717 0.5855 0.8075
vn -0.0600 -0.0152 -0.9981
vn 0.1390 -0.1008 -0.9851
vn 0.2862 0.0506 0.9568
vn -0.4393 0.2259 0.8695
vn -0.1937 0.9756 0.1030
vn -0.7271 -0.2218 -0.6498
vn -0.3307 0.9437 0.0010
vn 0.1175 0.0852 0.9894
vn 0.0169 -0.6333 0.7737
vn 0.0945 -0.9157 -0.3905
vn -0.3863 -0.9206 -0.0579
vn -0.4276 0.8962 -0.1181
vn 0.2620 0.3785 0.8878
vn 0.1592 0.3097 0.9374
vn 0.3870 0.7029 0.5968
vn -0.4295 0.2076 -0.8789
vn 0.3155 0.6699 -0.6721
vn -0.0373 0.9341 0.3551
vn -0.2329 0.8968 0.3762
vn -0.9928 0.0133 -0.1194
vn -0.9641 -0.2097 0.1630
vn 0.9935 -0.0263 -0.1109
vn -0.1429 0.6001 0.7870
vn -0.0089 0.5895 0.8077
vn -0.9982 0.0544 -0.0253
vn -0.8483 -0.2176 -0.4827
vn -0.9861 -0.0991 -0.1333
vn 0.3643 0.0918 -0.9268
vn -0.7257 -0.0408 -0.6868
vn -0.1598 0.0314 0.9866
vn 0.9738 0.1765 0.1435
vn 0.8831 0.1558 -0.4426
vn -0.8422 -0.0009 -0.5391
vn -0.2414 0.0624 -0.9684
vn 0.9936 0.0597 0.0963
vn 0.8652 0.1036 -0.4906
vn 0.9876 0.0202 -0.1556
vn -0.7741 -0.1957 -0.6020
vn -0.5772 -0.0906 0.8116
vn -0.2550 0.4000 0.8803
vn 0.9303 0.2405 -0.2769
vn 0.0194 0.4073 -0.9131
vn 0.9635 0.2395 -0.1195
vn 0.5420 -0.1278 0.8306
vn 0.7625 -0.1299 0.6338
vn -0.5225 -0.3928 0.7567
vn -0.5913 -0.0180 -0.8063
vn 0.9311 0.1808 -0.3168
vn 0.5976 -0.7840 0.1679
vn 0.1597 0.8624 -0.4803
vn 0.3089 0.7151 0.6271
vn 0.1403 0.8041 0.5777
vn -0.9972 -0.0661 0.0335
vn 0.8899 0.3352 -0.3094
vn 0.9868 0.1572 -0.0398
vn 0.4451 -0.5521 0.7050
vn 0.5781 -0.4817 0.6586
vn -0.2294 0.7042 0.6719
vn -0.9474 0.1645 0.2745
vn -0.0466 0.4761 -0.8781
vn 0.0647 -0.2091 -0.9757
vn 0.5675 -0.2970 0.7679
vn 0.4539 -0.7344 -0.5046
vn -0.0410 0.3941 0.9182
vn 0.2048 0.9204 0.3330
vn 0.5354 -0.3489 0.7691
vn 0.1915 0.0592 -0.9797
vn -0.8697 0.4542 0.1932
vn 0.6148 -0.5235 0.5899
vn 0.0711 -0.9974 0.0066
vn 0.9203 0.2255 -0.3198
vn -0.0102 -0.9998 0.0197
vn -0.9871 0.0636 0.1467
vn -0.5889 0.1936 -0.7847
vn -0.9688 -0.2475 0.0087
vn -0.1496 0.0553 -0.9872
vn 0.5668 0.2166 -0.7949
vn 0.9837 0.1225 -0.1312
vn -0.9875 -0.0999 0.1215
vn -0.6040 -0.1295 -0.7864
vn 0.9870 -0.1440 -0.0711
vn 0.6596 0.1965 0.7255
vn 0.1604 0.1007 0.9819
vn -0.6285 -0.1455 0.7641
vn -0.4495 -0.4968 -0.7424
vn 0.9453 0.1971 0.2600
vn 0.9622 0.2585 0.0854
vn -0.7544 -0.6564 -0.0024
vn 0.1902 0.1825 -0.9646
vn 0.0094 0.0957 -0.9954
vn -0.7995 -0.3015 0.5195
vn -0.9263 -0.3655 -0.0915
vn -0.5509 0.8096 -0.2028
vn -0.0582 -0.0328 -0.9978
vn -0.9627 0.1753 -0.2062
vn -0.2258 0.0868 0.9703
vn -0.9788 0.2047 0.0079
vn 0.3429 0.3345 0.8778
vn 0.6696 0.5167 -0.5335
vn -0.1526 0.9882 0.0143
vn 0.6394 0.7360 -0.2225
vn -0.5200 -0.2114 0.8276
vn -0.8475 0.1802 0.4992
vn 0.3488 0.9080 -0.2323
vn 0.2378 0.9322 -0.2729
vn -0.9487 -0.0697 0.3084
vn 0.9156 0.1836 -0.3577
vn -0.3309 0.9437 -0.0003
vn 0.4295 -0.1464 0.8911
vn -0.4738 0.8804 -0.0197
vn -0.9019 0.1549 0.4032
vn 0.0482 0.3618 0.9310
vn 0.1613 0.4185 0.8938
vn 0.9740 -0.0811 0.2114
vn 0.5896 -0.1541 -0.7929
vn -0.2805 0.7852 -0.5520
vn -0.9254 -0.0898 0.3683
vn -0.2447 -0.5673 0.7863
vn -0.0440 0.7575 -0.6514
vn -0.5248 -0.0392 0.8503
vn 0.9524 0.2441 -0.1828
vn 0.8929 0.3596 -0.2711
vn 0.0156 -0.6325 0.7744
vn 0.5927 -0.5600 0.5789
vn 0.6443 -0.5229 0.5581
vn 0.9935 0.1077 0.0362
vn 0.4150 -0.5451 -0.7284
vn 0.3409 0.1455 -0.9288
vn -0.3210 0.9384 -0.1282
vn -0.7566 -0.0417 -0.6525
vn 0.4290 0.0896 -0.8988
vn 0.9759 0.2147 -0.0381
vn -0.7602 0.0335 0.6488
vn 0.8589 0.2099 0.4671
vn -0.9633 -0.0579 -0.2621
vn -0.7851 0.3715 0.4956
vn 0.3042 0.0112 0.9525
vn 0.7050 0.0794 0.7047
vn 0.3072 0.9433 0.1260
vn 0.5197 0.1469 -0.8416
vn 0.9950 0.0860 -0.0500
vn -0.7718 -0.0448 -0.6343
vn 0.3871 0.1301 0.9128
vn 0.9549 -0.2164 -0.2034
vn 0.9945 -0.0433 0.0950
vn -0.7236 -0.2049 -0.6591
vn -0.8710 -0.0703 -0.4862
vn -0.4474 0.4091 0.7953
vn -0.4203 -0.4361 0.7957
vn -0.9517 0.0740 -0.2979
vn -0.8806 0.1718 -0.4416
vn 0.9641 0.0923 -0.2490
vn -0.6805 0.0360 -0.7318
vn -0.1856 0.8384 -0.5125
vn 0.5110 -0.2424 -0.8247
vn 0.5413 -0.7960 0.2708
vn 0.7009 0.2361 -0.6731
vn -0.0160 0.8929 -0.4500
vn -0.5379 0.8355 -0.1122
vn -0.4956 -0.4656 0.7333
vn -0.9954 -0.0782 0.0562
vn -0.6498 0.4568 -0.6075
vn -0.3732 0.6130 -0.6964
vn 0.8642 -0.2780 0.4193
vn 0.5778 -0.7038 0.4132
vn 0.1045 -0.7549 0.6475
vn 0.9927 0.1152 0.0350
vn -0.0512 0.6997 -0.7126
vn 0.5816 -0.3146 0.7502
vn -0.5568 0.3446 -0.7558
vn 0.5563 -0.3564 0.7507
vn 0.6100 -0.3095 -0.7295
vn -0.8046 0.3127 0.5048
vn 0.0332 -0.9994 -0.0042
vn -0.9149 0.1859 -0.3584
vn -0.7748 0.1303 -0.6187
vn -0.9339 -0.2570 -0.2486
vn -0.5568 -0.0967 -0.8250
vn 0.9853 -0.1376 -0.1009
vn -0.4571 -0.5007 -0.7351
vn -0.7169 -0.6672 0.2022
vn -0.5594 -0.0164 0.8287
vn -0.5907 0.1289 0.7965
vn -0.9261 0.2155 -0.3098
vn -0.6580 -0.0648 0.7502
vn 0.1867 0.0607 -0.9805
vn -0.7929 0.1343 0.5943
usemtl tree_bark_light
s off
f 83/0/161 172/0/161 115/0/161
f 84/0/162 108/0/162 87/0/162
f 84/0/163 90/0/163 108/0/163
f 107/0/164 90/0/164 161/0/164
f 105/0/165 94/0/165 88/0/165
f 89/0/166 92/0/166 88/0/166
f 174/0/167 91/0/167 90/0/167
f 114/0/168 115/0/168 94/0/168
f 114/0/169 105/0/169 86/0/169
f 127/0/170 162/0/170 95/0/170
f 92/0/171 89/0/171 112/0/171
f 92/0/172 113/0/172 174/0/172
f 112/0/173 139/0/173 170/0/173
f 141/0/174 180/0/174 170/0/174
f 163/0/175 99/0/175 93/0/175
f 112/0/176 113/0/176 92/0/176
f 95/0/177 112/0/177 128/0/177
f 111/0/178 162/0/178 127/0/178
f 127/0/179 96/0/179 111/0/179
f 110/0/180 170/0/180 99/0/180
f 175/0/181 130/0/181 100/0/181
f 123/0/182 103/0/182 102/0/182
f 94/0/183 161/0/183 104/0/183
f 104/0/184 118/0/184 94/0/184
f 106/0/185 108/0/185 173/0/185
f 109/0/186 173/0/186 172/0/186
f 110/0/187 111/0/187 177/0/187
f 117/0/188 162/0/188 111/0/188
f 83/0/189 115/0/189 114/0/189
f 117/0/190 99/0/190 163/0/190
f 178/0/191 164/0/191 137/0/191
f 117/0/192 163/0/192 164/0/192
f 165/0/193 119/0/193 168/0/193
f 120/0/194 165/0/194 168/0/194
f 121/0/195 124/0/195 181/0/195
f 121/0/196 97/0/196 124/0/196
f 183/0/197 133/0/197 179/0/197
f 138/0/198 183/0/198 179/0/198
f 179/0/199 132/0/199 138/0/199
f 139/0/200 138/0/200 132/0/200
f 132/0/201 133/0/201 139/0/201
f 181/0/202 124/0/202 102/0/202
f 138/0/203 103/0/203 123/0/203
f 138/0/204 181/0/204 103/0/204
f 124/0/205 98/0/205 176/0/205
f 180/0/206 123/0/206 125/0/206
f 140/0/207 123/0/207 180/0/207
f 137/0/208 120/0/208 168/0/208
f 168/0/209 178/0/209 137/0/209
f 142/0/210 126/0/210 119/0/210
f 126/0/211 178/0/211 119/0/211
f 127/0/212 95/0/212 128/0/212
f 175/0/213 128/0/213 130/0/213
f 129/0/214 130/0/214 127/0/214
f 131/0/215 132/0/215 179/0/215
f 126/0/216 166/0/216 164/0/216
f 178/0/217 126/0/217 164/0/217
f 126/0/218 184/0/218 166/0/218
f 184/0/219 185/0/219 134/0/219
f 166/0/220 184/0/220 134/0/220
f 185/0/221 167/0/221 116/0/221
f 138/0/222 139/0/222 121/0/222
f 140/0/223 180/0/223 183/0/223
f 185/0/224 184/0/224 145/0/224
f 146/0/225 135/0/225 142/0/225
f 149/0/226 144/0/226 147/0/226
f 147/0/227 148/0/227 149/0/227
f 169/0/228 148/0/228 151/0/228
f 147/0/229 153/0/229 150/0/229
f 147/0/230 144/0/230 153/0/230
f 169/0/231 154/0/231 149/0/231
f 144/0/232 149/0/232 154/0/232
f 153/0/233 155/0/233 150/0/233
f 151/0/234 152/0/234 146/0/234
f 152/0/235 151/0/235 150/0/235
f 152/0/236 156/0/236 159/0/236
f 154/0/237 155/0/237 153/0/237
f 152/0/238 159/0/238 154/0/238
f 156/0/239 150/0/239 155/0/239
f 160/0/240 158/0/240 157/0/240
f 159/0/241 160/0/241 155/0/241
f 156/0/242 157/0/242 158/0/242
f 160/0/243 156/0/243 155/0/243
f 115/0/244 107/0/244 161/0/244
f 115/0/245 108/0/245 107/0/245
f 84/0/246 174/0/246 90/0/246
f 173/0/247 115/0/247 172/0/247
f 86/0/248 109/0/248 172/0/248
f 173/0/249 85/0/249 87/0/249
f 88/0/250 86/0/250 105/0/250
f 106/0/251 173/0/251 87/0/251
f 87/0/252 108/0/252 106/0/252
f 107/0/253 108/0/253 90/0/253
f 88/0/254 94/0/254 89/0/254
f 87/0/255 88/0/255 92/0/255
f 174/0/256 162/0/256 104/0/256
f 90/0/257 91/0/257 161/0/257
f 94/0/258 115/0/258 161/0/258
f 114/0/259 94/0/259 105/0/259
f 139/0/260 89/0/260 121/0/260
f 104/0/261 161/0/261 91/0/261
f 91/0/262 174/0/262 104/0/262
f 89/0/263 97/0/263 121/0/263
f 170/0/264 139/0/264 141/0/264
f 112/0/265 170/0/265 177/0/265
f 98/0/266 94/0/266 116/0/266
f 98/0/267 89/0/267 94/0/267
f 98/0/268 116/0/268 93/0/268
f 95/0/269 113/0/269 112/0/269
f 128/0/270 112/0/270 177/0/270
f 127/0/271 130/0/271 96/0/271
f 128/0/272 177/0/272 96/0/272
f 125/0/273 93/0/273 99/0/273
f 99/0/274 170/0/274 180/0/274
f 110/0/275 177/0/275 170/0/275
f 180/0/276 125/0/276 99/0/276
f 124/0/277 97/0/277 98/0/277
f 172/0/278 114/0/278 86/0/278
f 175/0/279 129/0/279 101/0/279
f 175/0/280 100/0/280 129/0/280
f 100/0/281 130/0/281 129/0/281
f 101/0/282 128/0/282 175/0/282
f 176/0/283 123/0/283 102/0/283
f 104/0/284 171/0/284 118/0/284
f 110/0/285 99/0/285 111/0/285
f 111/0/286 96/0/286 177/0/286
f 117/0/287 111/0/287 99/0/287
f 117/0/288 171/0/288 162/0/288
f 104/0/289 162/0/289 171/0/289
f 95/0/290 174/0/290 113/0/290
f 136/0/291 163/0/291 93/0/291
f 116/0/292 136/0/292 93/0/292
f 116/0/293 94/0/293 134/0/293
f 137/0/294 164/0/294 163/0/294
f 120/0/295 143/0/295 165/0/295
f 166/0/296 171/0/296 117/0/296
f 164/0/297 166/0/297 117/0/297
f 134/0/298 94/0/298 118/0/298
f 134/0/299 118/0/299 171/0/299
f 171/0/300 166/0/300 134/0/300
f 183/0/301 141/0/301 133/0/301
f 139/0/302 133/0/302 141/0/302
f 92/0/303 84/0/303 87/0/303
f 122/0/304 131/0/304 182/0/304
f 102/0/305 103/0/305 181/0/305
f 123/0/306 140/0/306 138/0/306
f 176/0/307 98/0/307 125/0/307
f 176/0/308 102/0/308 124/0/308
f 125/0/309 123/0/309 176/0/309
f 137/0/310 167/0/310 120/0/310
f 143/0/311 151/0/311 146/0/311
f 165/0/312 143/0/312 142/0/312
f 142/0/313 119/0/313 165/0/313
f 142/0/314 135/0/314 126/0/314
f 119/0/315 178/0/315 168/0/315
f 127/0/316 128/0/316 101/0/316
f 130/0/317 128/0/317 96/0/317
f 129/0/318 127/0/318 101/0/318
f 179/0/319 133/0/319 182/0/319
f 182/0/320 131/0/320 179/0/320
f 132/0/321 122/0/321 182/0/321
f 132/0/322 182/0/322 133/0/322
f 132/0/323 131/0/323 122/0/323
f 134/0/324 185/0/324 116/0/324
f 116/0/325 167/0/325 136/0/325
f 137/0/326 136/0/326 167/0/326
f 135/0/327 184/0/327 126/0/327
f 138/0/328 121/0/328 181/0/328
f 138/0/329 140/0/329 183/0/329
f 183/0/330 180/0/330 141/0/330
f 185/0/331 145/0/331 151/0/331
f 145/0/332 184/0/332 135/0/332
f 146/0/333 145/0/333 135/0/333
f 142/0/334 143/0/334 146/0/334
f 167/0/335 185/0/335 151/0/335
f 169/0/336 149/0/336 148/0/336
f 150/0/337 151/0/337 148/0/337
f 150/0/338 148/0/338 147/0/338
f 154/0/339 153/0/339 144/0/339
f 145/0/340 154/0/340 151/0/340
f 154/0/341 169/0/341 151/0/341
f 152/0/342 154/0/342 145/0/342
f 152/0/343 145/0/343 146/0/343
f 155/0/344 154/0/344 159/0/344
f 152/0/345 150/0/345 156/0/345
f 159/0/346 158/0/346 160/0/346
f 158/0/347 159/0/347 156/0/347
f 160/0/348 157/0/348 156/0/348
f 115/0/349 173/0/349 108/0/349
f 86/0/350 85/0/350 109/0/350
f 173/0/351 109/0/351 85/0/351
f 88/0/352 85/0/352 86/0/352
f 87/0/353 85/0/353 88/0/353
f 174/0/354 95/0/354 162/0/354
f 139/0/355 112/0/355 89/0/355
f 89/0/356 98/0/356 97/0/356
f 125/0/357 98/0/357 93/0/357
f 172/0/358 83/0/358 114/0/358
f 136/0/359 137/0/359 163/0/359
f 120/0/360 167/0/360 143/0/360
f 92/0/361 174/0/361 84/0/361
f 143/0/362 167/0/362 151/0/362
