v -8.861116 0.012115 7.479341
v -8.861116 5.012115 7.479341
v -8.861116 0.012115 -7.520659
v -8.861116 5.012115 -7.520659
v -3.861116 0.012115 7.479341
v -3.861116 5.012115 7.479341
v -3.861116 0.012115 -7.520659
v -3.861116 5.012115 -7.520659
v -4.861116 0.012115 -6.620658
v -4.861116 5.012115 -6.620658
v -4.861116 0.012115 -7.420659
v -4.861116 5.012115 -7.420659
v 7.138884 0.012115 -6.620658
v 7.138884 5.012115 -6.620658
v 7.138884 0.012115 -7.420659
v 7.138884 5.012115 -7.420659
v -4.861116 0.012115 7.379341
v -4.861116 5.012115 7.379341
v -4.861116 0.012115 6.579340
v -4.861116 5.012115 6.579340
v 7.138884 0.012115 7.379341
v 7.138884 5.012115 7.379341
v 7.138884 0.012115 6.579340
v 7.138884 5.012115 6.579340
v 5.138885 0.012115 7.479340
v 5.138885 5.012115 7.479340
v 5.138885 0.012115 -7.520659
v 5.138885 5.012115 -7.520659
v 6.138884 0.012115 7.479340
v 6.138884 5.012115 7.479340
v 6.138884 0.012115 -7.520659
v 6.138884 5.012115 -7.520659
vt 0.625000 0.000000
vt 0.375000 0.250000
vt 0.375000 0.000000
vt 0.625000 0.250000
vt 0.375000 0.500000
vt 0.625000 0.500000
vt 0.375000 0.750000
vt 0.625000 0.750000
vt 0.375000 1.000000
vt 0.125000 0.750000
vt 0.125000 0.500000
vt 0.875000 0.500000
vt 0.625000 0.000000
vt 0.375000 0.250000
vt 0.375000 0.000000
vt 0.625000 0.250000
vt 0.375000 0.500000
vt 0.625000 0.500000
vt 0.375000 0.750000
vt 0.625000 0.750000
vt 0.375000 1.000000
vt 0.125000 0.750000
vt 0.125000 0.500000
vt 0.875000 0.500000
vt 0.625000 0.000000
vt 0.375000 0.250000
vt 0.375000 0.000000
vt 0.625000 0.250000
vt 0.375000 0.500000
vt 0.625000 0.500000
vt 0.375000 0.750000
vt 0.625000 0.750000
vt 0.375000 1.000000
vt 0.125000 0.750000
vt 0.125000 0.500000
vt 0.875000 0.500000
vt 0.625000 0.000000
vt 0.375000 0.250000
vt 0.375000 0.000000
vt 0.625000 0.250000
vt 0.375000 0.500000
vt 0.625000 0.500000
vt 0.375000 0.750000
vt 0.625000 0.750000
vt 0.375000 1.000000
vt 0.125000 0.750000
vt 0.125000 0.500000
vt 0.875000 0.500000
vt 0.625000 1.000000
vt 0.875000 0.750000
vt 0.625000 1.000000
vt 0.875000 0.750000
vt 0.625000 1.000000
vt 0.875000 0.750000
vt 0.625000 1.000000
vt 0.875000 0.750000
vn -1.0000 0.0000 0.0000
vn 0.0000 0.0000 -1.0000
vn 1.0000 0.0000 0.0000
vn 0.0000 0.0000 1.0000
vn 0.0000 -1.0000 0.0000
vn 0.0000 1.0000 0.0000
v 5.138884 0.012115 -7.020659
v 5.138884 12.012115 -7.020659
v 5.138884 0.012115 -8.020658
v 5.138884 12.012115 -8.020658
v 6.138884 0.012115 -7.020659
v 6.138884 12.012115 -7.020659
v 6.138884 0.012115 -8.020658
v 6.138884 12.012115 -8.020658
v -6.861116 0.012115 -7.020658
v -6.861116 12.012115 -7.020658
v -6.861116 0.012115 -8.020658
v -6.861116 12.012115 -8.020658
v -5.861116 0.012115 -7.020658
v -5.861116 12.012115 -7.020658
v -5.861116 0.012115 -8.020658
v -5.861116 12.012115 -8.020658
v -6.861116 0.012115 7.979341
v -6.861116 12.012115 7.979341
v -6.861116 0.012115 6.979341
v -6.861116 12.012115 6.979341
v -5.861116 0.012115 7.979341
v -5.861116 12.012115 7.979341
v -5.861116 0.012115 6.979341
v -5.861116 12.012115 6.979341
v 5.138884 0.012115 7.979341
v 5.138884 12.012115 7.979341
v 5.138884 0.012115 6.979341
v 5.138884 12.012115 6.979341
v 6.138884 0.012115 7.979341
v 6.138884 12.012115 7.979341
v 6.138884 0.012115 6.979341
v 6.138884 12.012115 6.979341
vt 0.625000 0.000000
vt 0.375000 0.250000
vt 0.375000 0.000000
vt 0.625000 0.250000
vt 0.375000 0.500000
vt 0.625000 0.500000
vt 0.375000 0.750000
vt 0.625000 0.750000
vt 0.375000 1.000000
vt 0.125000 0.750000
vt 0.125000 0.500000
vt 0.875000 0.500000
vt 0.625000 0.000000
vt 0.375000 0.250000
vt 0.375000 0.000000
vt 0.625000 0.250000
vt 0.375000 0.500000
vt 0.625000 0.500000
vt 0.375000 0.750000
vt 0.625000 0.750000
vt 0.375000 1.000000
vt 0.125000 0.750000
vt 0.125000 0.500000
vt 0.875000 0.500000
vt 0.625000 0.000000
vt 0.375000 0.250000
vt 0.375000 0.000000
vt 0.625000 0.250000
vt 0.375000 0.500000
vt 0.625000 0.500000
vt 0.375000 0.750000
vt 0.625000 0.750000
vt 0.375000 1.000000
vt 0.125000 0.750000
vt 0.125000 0.500000
vt 0.875000 0.500000
vt 0.625000 0.000000
vt 0.375000 0.250000
vt 0.375000 0.000000
vt 0.625000 0.250000
vt 0.375000 0.500000
vt 0.625000 0.500000
vt 0.375000 0.750000
vt 0.625000 0.750000
vt 0.375000 1.000000
vt 0.125000 0.750000
vt 0.125000 0.500000
vt 0.875000 0.500000
vt 0.625000 1.000000
vt 0.875000 0.750000
vt 0.625000 1.000000
vt 0.875000 0.750000
vt 0.625000 1.000000
vt 0.875000 0.750000
vt 0.625000 1.000000
vt 0.875000 0.750000
vn -1.0000 0.0000 0.0000
vn 0.0000 0.0000 -1.0000
vn 1.0000 0.0000 0.0000
vn 0.0000 0.0000 1.0000
vn 0.0000 -1.0000 0.0000
vn 0.0000 1.0000 0.0000
usemtl None
s off
f 34/57/7 35/58/7 33/59/7
f 36/60/8 39/61/8 35/58/8
f 40/62/9 37/63/9 39/61/9
f 38/64/10 33/65/10 37/63/10
f 39/61/11 33/66/11 35/67/11
f 36/68/12 38/64/12 40/62/12
f 42/69/7 43/70/7 41/71/7
f 44/72/8 47/73/8 43/70/8
f 48/74/9 45/75/9 47/73/9
f 46/76/10 41/77/10 45/75/10
f 47/73/11 41/78/11 43/79/11
f 44/80/12 46/76/12 48/74/12
f 50/81/7 51/82/7 49/83/7
f 52/84/8 55/85/8 51/82/8
f 56/86/9 53/87/9 55/85/9
f 54/88/10 49/89/10 53/87/10
f 55/85/11 49/90/11 51/91/11
f 52/92/12 54/88/12 56/86/12
f 58/93/7 59/94/7 57/95/7
f 60/96/8 63/97/8 59/94/8
f 64/98/9 61/99/9 63/97/9
f 62/100/10 57/101/10 61/99/10
f 63/97/11 57/102/11 59/103/11
f 60/104/12 62/100/12 64/98/12
f 34/57/7 36/60/7 35/58/7
f 36/60/8 40/62/8 39/61/8
f 40/62/9 38/64/9 37/63/9
f 38/64/10 34/105/10 33/65/10
f 39/61/11 37/63/11 33/66/11
f 36/68/12 34/106/12 38/64/12
f 42/69/7 44/72/7 43/70/7
f 44/72/8 48/74/8 47/73/8
f 48/74/9 46/76/9 45/75/9
f 46/76/10 42/107/10 41/77/10
f 47/73/11 45/75/11 41/78/11
f 44/80/12 42/108/12 46/76/12
f 50/81/7 52/84/7 51/82/7
f 52/84/8 56/86/8 55/85/8
f 56/86/9 54/88/9 53/87/9
f 54/88/10 50/109/10 49/89/10
f 55/85/11 53/87/11 49/90/11
f 52/92/12 50/110/12 54/88/12
f 58/93/7 60/96/7 59/94/7
f 60/96/8 64/98/8 63/97/8
f 64/98/9 62/100/9 61/99/9
f 62/100/10 58/111/10 57/101/10
f 63/97/11 61/99/11 57/102/11
f 60/104/12 58/112/12 62/100/12