# Blender v3.4.1 OBJ File: 'tree-round.blend'
# www.blender.org
mtllib tree_round.mtl
o leaves_Icosphere.002
v -0.262365 4.206862 0.346429
v -1.181274 3.607048 2.282067
v -1.507961 3.665589 -2.124026
v -0.101107 6.045513 2.400663
v -2.535206 5.383346 -1.826754
v 2.442608 6.253155 0.023190
v -0.591082 7.963504 -0.114734
v -0.906482 3.639888 1.210450
v 0.760289 3.742337 2.191859
v 2.116135 3.600985 1.098719
v -0.369516 3.938058 -0.689469
v 1.161262 3.955021 -1.719622
v -0.789106 4.018748 0.385062
v -2.253344 3.834440 1.685130
v -2.722421 3.793841 0.653962
v -1.378745 3.932271 -0.388178
v -0.238622 3.769677 -1.980554
v 0.175016 3.811855 -1.483014
v 3.037497 5.143692 0.491466
v 3.085383 4.058761 0.581732
v 3.022784 5.023809 -0.624839
v 0.618614 5.312798 3.103650
v 2.037277 3.662377 2.038445
v 1.977491 4.064149 2.468516
v -3.314045 3.824429 1.389544
v -3.397763 3.598495 1.092662
v -1.335608 4.484900 2.707002
v -2.138413 4.731421 2.416873
v -2.041586 5.272121 2.189951
v -3.222312 4.448834 -1.873704
v -2.330137 3.932498 -2.311235
v -3.351956 3.684818 -0.545270
v -3.811520 4.244428 -0.769058
v -3.459105 5.242414 -0.703082
v 0.851037 4.379606 -2.547184
v -0.730793 4.257931 -2.802676
v 0.388763 5.591202 -2.682850
v 2.488245 5.913327 1.258143
v 1.773070 6.137354 2.043215
v 0.752552 6.318754 2.415054
v -0.434265 5.681380 -2.630116
v 1.551476 5.693401 -1.608936
v 2.527031 5.744837 -0.846394
v 0.023434 7.883810 0.606615
v 1.226303 7.374259 0.159888
v 0.036821 7.853139 -0.274384
v -1.467955 7.597692 0.306265
v -1.573983 6.415035 2.106590
v -1.907491 6.194436 1.976390
v -1.967094 7.441780 -0.818307
v -2.717819 6.478015 -1.155083
v 0.347585 6.512843 -2.314184
v -0.831889 7.596352 -1.070408
v -1.674584 6.849865 -1.792537
v -2.813706 6.673599 -0.206749
v -2.458084 6.563536 0.489291
v -0.486671 7.532323 1.097025
v 0.662223 7.004156 1.848643
v 1.577157 7.137270 0.975662
v 2.447361 4.948838 -1.397339
v 1.317047 4.353246 -1.992719
v -2.158282 4.097260 -2.570721
v -3.922764 4.094387 0.547669
v -1.064711 4.923511 2.758853
v 2.354805 4.927997 2.024844
v 0.263376 4.606065 -2.729375
v -3.237877 3.902216 -1.406791
v -2.309661 3.913240 2.243135
v 0.492200 4.538439 3.238724
v -0.310492 3.463484 2.895090
v 0.986734 3.833433 2.672825
v 2.774392 4.279346 -0.917307
v 2.779606 3.580198 -0.033597
v 2.423639 3.736372 -0.494231
v -1.099617 3.509888 -1.214013
v -1.697319 3.758518 -0.853936
v -2.132097 4.205885 0.777800
v 0.503356 3.606806 -0.881585
v 1.402542 3.979770 0.493259
v 0.463971 4.598632 0.714900
v -0.312752 3.357638 1.944835
v 0.491393 4.454821 1.408855
vn 0.3236 -0.9354 -0.1422
vn 0.0780 -0.9669 0.2428
vn -0.5647 -0.4379 0.6996
vn 0.0180 -0.8868 -0.4617
vn 0.2512 -0.9669 -0.0439
vn -0.2072 0.6068 0.7674
vn -0.7644 0.2397 -0.5985
vn -0.0189 0.3706 -0.9286
vn 0.4683 0.7695 -0.4343
vn 0.6120 0.7072 -0.3540
vn 0.4195 0.6953 -0.5836
vn 0.6672 0.5973 -0.4450
vn 0.6295 0.3127 -0.7113
vn 0.0679 0.9255 -0.3727
vn -0.1953 0.9310 -0.3085
vn 0.2232 0.8299 -0.5113
vn -0.0558 0.7260 -0.6854
vn -0.2320 0.7988 -0.5550
vn -0.5570 0.6250 -0.5470
vn -0.1466 0.4688 -0.8711
vn -0.3763 0.2417 -0.8944
vn -0.5763 0.3554 -0.7359
vn -0.3702 0.9283 0.0356
vn -0.7353 0.6452 -0.2074
vn -0.5990 0.7852 0.1570
vn -0.6170 0.6652 0.4204
vn -0.6245 0.6692 0.4028
vn -0.6091 0.6871 0.3961
vn -0.8711 0.4560 -0.1821
vn -0.2383 0.9221 0.3049
vn -0.3500 0.7923 0.4998
vn -0.2476 0.8908 0.3809
vn -0.1123 0.7241 0.6805
vn -0.0392 0.5219 0.8521
vn 0.1652 0.9858 -0.0318
vn 0.3816 0.9239 -0.0264
vn -0.0044 0.8150 0.5795
vn 0.3004 0.8444 0.4436
vn 0.4151 0.9058 0.0846
vn 0.6713 0.7374 -0.0745
vn 0.3634 0.6215 0.6941
vn 0.4418 0.6938 0.5688
vn 0.6694 0.5995 0.4387
vn 0.7786 0.6118 0.1396
vn 0.8343 0.5074 -0.2156
vn 0.8031 -0.0342 -0.5949
vn 0.4461 -0.6183 -0.6471
vn 0.7414 0.3302 -0.5843
vn 0.5375 0.4429 -0.7176
vn 0.5598 -0.2845 -0.7782
vn 0.3753 0.1939 -0.9064
vn 0.5988 -0.5989 -0.5317
vn 0.7657 0.0497 -0.6412
vn 0.6605 0.1701 -0.7313
vn -0.1819 0.2384 -0.9540
vn -0.0265 -0.7379 -0.6744
vn -0.0608 0.0287 -0.9977
vn -0.3769 0.3785 -0.8454
vn -0.1249 -0.7981 -0.5895
vn -0.4270 0.3557 -0.8313
vn -0.9413 0.3351 -0.0413
vn -0.7377 -0.6609 -0.1376
vn -0.9150 0.4022 0.0300
vn -0.7586 0.4609 0.4605
vn -0.6530 -0.7551 -0.0581
vn -0.8119 -0.3310 0.4809
vn -0.6704 0.4123 0.6169
vn -0.8959 0.2197 0.3862
vn -0.3159 0.0834 0.9451
vn -0.4971 0.2637 0.8266
vn -0.3427 0.4151 0.8428
vn -0.4242 0.2373 0.8739
vn -0.0908 0.3728 0.9234
vn -0.2837 0.5040 0.8158
vn -0.1964 0.5715 0.7967
vn 0.5477 0.1804 0.8170
vn 0.5440 0.4234 0.7244
vn 0.3630 0.1607 0.9178
vn 0.7404 0.3474 0.5754
vn 0.7961 -0.3831 0.4685
vn 0.8564 -0.1156 0.5032
vn 0.9071 0.0745 0.4143
vn 0.8821 0.2090 0.4221
vn 0.8567 0.5046 0.1072
vn 0.2986 0.0071 -0.9544
vn 0.0597 0.0395 -0.9974
vn -0.1523 -0.8286 -0.5388
vn 0.5691 -0.7112 -0.4128
vn 0.3009 -0.7300 -0.6137
vn 0.1305 -0.8162 -0.5629
vn -0.6865 0.5298 -0.4980
vn -0.8572 0.3289 -0.3963
vn -0.5888 -0.4467 -0.6736
vn -0.5983 -0.5105 -0.6176
vn -0.7783 -0.3949 -0.4882
vn -0.6920 -0.6729 -0.2614
vn -0.7699 0.4032 0.4947
vn -0.7561 0.3637 0.5441
vn -0.4666 -0.6355 0.6152
vn -0.6460 -0.0268 0.7629
vn -0.3694 -0.1184 0.9217
vn 0.2356 -0.9694 -0.0690
vn 0.1240 -0.9807 0.1510
vn -0.1530 -0.4522 0.8787
vn -0.2417 0.2049 0.9485
vn -0.1833 -0.0030 0.9830
vn 0.4778 0.0747 0.8753
vn -0.3099 -0.0716 0.9481
vn 0.2785 -0.4748 0.8349
vn 0.2822 -0.4723 0.8350
vn 0.2966 -0.6770 0.6736
vn 0.2817 -0.9583 0.0489
vn -0.0369 -0.9785 0.2027
vn -0.0551 -0.9966 0.0605
vn 0.8901 0.4518 -0.0603
vn 0.9796 0.0267 -0.1993
vn 0.6317 -0.7319 0.2553
vn 0.9457 -0.3243 0.0224
vn 0.9276 -0.2903 -0.2352
vn 0.4191 -0.7108 -0.5649
vn 0.4225 -0.7110 -0.5621
vn 0.0929 -0.9930 0.0727
vn -0.2522 -0.9589 -0.1302
vn 0.0525 -0.9361 -0.3478
vn -0.3737 -0.9210 -0.1100
vn 0.2839 -0.8975 0.3375
vn 0.2109 -0.9731 -0.0929
vn 0.1037 -0.9716 -0.2128
vn 0.1513 -0.8584 0.4902
vn -0.3031 -0.9526 -0.0270
vn -0.3603 -0.9317 0.0452
vn -0.0594 -0.9939 -0.0929
vn -0.1219 -0.8998 0.4190
vn -0.0025 -0.9695 -0.2450
vn 0.2439 -0.9514 0.1881
vn 0.0558 -0.9966 0.0613
vn 0.4394 -0.7690 0.4643
vn 0.5890 -0.7724 -0.2375
vn -0.0855 -0.9809 0.1749
vn -0.2391 -0.8870 -0.3951
vn -0.2766 -0.8579 -0.4331
vn -0.1678 -0.9831 -0.0732
vn -0.2638 -0.9584 0.1087
vn 0.1237 -0.9470 -0.2964
vn -0.3626 -0.9201 -0.1482
vn 0.0142 -0.9673 0.2531
vn -0.4031 -0.7818 0.4757
vn -0.2035 -0.8339 0.5130
vn -0.5312 -0.8414 0.0997
vn 0.3878 -0.9012 0.1937
vn -0.3133 -0.9433 -0.1093
vn 0.5120 -0.8059 -0.2971
vn -0.2354 -0.9659 0.1081
vn 0.3143 -0.9436 0.1044
vn 0.4598 -0.6385 -0.6172
vn 0.3797 -0.6156 -0.6906
vn 0.3351 -0.9420 -0.0179
vn 0.5394 -0.8201 -0.1913
vn -0.4829 -0.8610 -0.1594
vn -0.4761 -0.7256 -0.4967
usemtl tree_green
f 1/0/1 13/0/1 16/0/1
f 1/0/2 16/0/2 11/0/2
f 2/0/3 70/0/3 27/0/3
f 12/0/4 18/0/4 35/0/4
f 15/0/5 26/0/5 32/0/5
f 4/0/6 40/0/6 58/0/6
f 5/0/7 34/0/7 51/0/7
f 37/0/8 41/0/8 52/0/8
f 45/0/9 52/0/9 46/0/9
f 6/0/10 43/0/10 45/0/10
f 43/0/11 42/0/11 45/0/11
f 45/0/12 42/0/12 52/0/12
f 42/0/13 37/0/13 52/0/13
f 46/0/14 53/0/14 7/0/14
f 53/0/15 50/0/15 7/0/15
f 46/0/16 52/0/16 53/0/16
f 52/0/17 54/0/17 53/0/17
f 53/0/18 54/0/18 50/0/18
f 54/0/19 51/0/19 50/0/19
f 52/0/20 41/0/20 54/0/20
f 41/0/21 5/0/21 54/0/21
f 54/0/22 5/0/22 51/0/22
f 50/0/23 47/0/23 7/0/23
f 51/0/24 55/0/24 50/0/24
f 50/0/25 55/0/25 47/0/25
f 55/0/26 56/0/26 47/0/26
f 47/0/27 56/0/27 48/0/27
f 56/0/28 49/0/28 48/0/28
f 51/0/29 34/0/29 55/0/29
f 47/0/30 44/0/30 7/0/30
f 48/0/31 57/0/31 47/0/31
f 47/0/32 57/0/32 44/0/32
f 48/0/33 58/0/33 57/0/33
f 48/0/34 4/0/34 58/0/34
f 44/0/35 46/0/35 7/0/35
f 44/0/36 45/0/36 46/0/36
f 57/0/37 58/0/37 44/0/37
f 58/0/38 59/0/38 44/0/38
f 44/0/39 59/0/39 45/0/39
f 59/0/40 6/0/40 45/0/40
f 40/0/41 39/0/41 58/0/41
f 58/0/42 39/0/42 59/0/42
f 39/0/43 38/0/43 59/0/43
f 59/0/44 38/0/44 6/0/44
f 21/0/45 43/0/45 6/0/45
f 72/0/46 60/0/46 21/0/46
f 12/0/47 61/0/47 72/0/47
f 21/0/48 60/0/48 43/0/48
f 60/0/49 42/0/49 43/0/49
f 72/0/50 61/0/50 60/0/50
f 60/0/51 61/0/51 42/0/51
f 12/0/52 35/0/52 61/0/52
f 61/0/53 35/0/53 42/0/53
f 35/0/54 37/0/54 42/0/54
f 36/0/55 62/0/55 37/0/55
f 3/0/56 62/0/56 36/0/56
f 37/0/57 62/0/57 41/0/57
f 62/0/58 5/0/58 41/0/58
f 3/0/59 31/0/59 62/0/59
f 62/0/60 30/0/60 5/0/60
f 33/0/61 63/0/61 34/0/61
f 32/0/62 63/0/62 33/0/62
f 63/0/63 55/0/63 34/0/63
f 63/0/64 56/0/64 55/0/64
f 32/0/65 26/0/65 63/0/65
f 26/0/66 25/0/66 63/0/66
f 63/0/67 25/0/67 56/0/67
f 29/0/68 49/0/68 56/0/68
f 27/0/69 64/0/69 28/0/69
f 29/0/70 48/0/70 49/0/70
f 28/0/71 64/0/71 29/0/71
f 29/0/72 64/0/72 48/0/72
f 64/0/73 4/0/73 48/0/73
f 64/0/74 22/0/74 4/0/74
f 22/0/75 40/0/75 4/0/75
f 24/0/76 65/0/76 22/0/76
f 22/0/77 65/0/77 40/0/77
f 65/0/78 39/0/78 40/0/78
f 65/0/79 38/0/79 39/0/79
f 23/0/80 20/0/80 24/0/80
f 24/0/81 20/0/81 65/0/81
f 20/0/82 19/0/82 65/0/82
f 65/0/83 19/0/83 38/0/83
f 19/0/84 6/0/84 38/0/84
f 35/0/85 66/0/85 37/0/85
f 66/0/86 36/0/86 37/0/86
f 35/0/87 18/0/87 66/0/87
f 18/0/88 17/0/88 66/0/88
f 66/0/89 17/0/89 36/0/89
f 17/0/90 3/0/90 36/0/90
f 30/0/91 34/0/91 5/0/91
f 30/0/92 33/0/92 34/0/92
f 62/0/93 31/0/93 30/0/93
f 31/0/94 67/0/94 30/0/94
f 30/0/95 67/0/95 33/0/95
f 67/0/96 32/0/96 33/0/96
f 25/0/97 29/0/97 56/0/97
f 25/0/98 28/0/98 29/0/98
f 26/0/99 68/0/99 25/0/99
f 25/0/100 68/0/100 28/0/100
f 68/0/101 27/0/101 28/0/101
f 15/0/102 14/0/102 26/0/102
f 26/0/103 14/0/103 68/0/103
f 68/0/104 2/0/104 27/0/104
f 64/0/105 69/0/105 22/0/105
f 27/0/106 70/0/106 64/0/106
f 69/0/107 24/0/107 22/0/107
f 64/0/108 70/0/108 69/0/108
f 70/0/109 71/0/109 69/0/109
f 69/0/110 71/0/110 24/0/110
f 71/0/111 23/0/111 24/0/111
f 70/0/112 9/0/112 71/0/112
f 71/0/113 9/0/113 23/0/113
f 9/0/114 10/0/114 23/0/114
f 19/0/115 21/0/115 6/0/115
f 20/0/116 72/0/116 19/0/116
f 23/0/117 73/0/117 20/0/117
f 19/0/118 72/0/118 21/0/118
f 20/0/119 73/0/119 72/0/119
f 73/0/120 74/0/120 72/0/120
f 74/0/121 12/0/121 72/0/121
f 23/0/122 10/0/122 73/0/122
f 10/0/123 74/0/123 73/0/123
f 78/0/124 18/0/124 12/0/124
f 78/0/125 11/0/125 18/0/125
f 11/0/126 75/0/126 18/0/126
f 18/0/127 75/0/127 17/0/127
f 75/0/128 3/0/128 17/0/128
f 16/0/129 75/0/129 11/0/129
f 75/0/130 31/0/130 3/0/130
f 75/0/131 76/0/131 31/0/131
f 76/0/132 67/0/132 31/0/132
f 75/0/133 16/0/133 76/0/133
f 76/0/134 32/0/134 67/0/134
f 16/0/135 15/0/135 76/0/135
f 76/0/136 15/0/136 32/0/136
f 16/0/137 77/0/137 15/0/137
f 77/0/138 14/0/138 15/0/138
f 16/0/139 13/0/139 77/0/139
f 13/0/140 14/0/140 77/0/140
f 13/0/141 8/0/141 14/0/141
f 8/0/142 2/0/142 14/0/142
f 14/0/143 2/0/143 68/0/143
f 74/0/144 78/0/144 12/0/144
f 10/0/145 79/0/145 74/0/145
f 74/0/146 79/0/146 78/0/146
f 79/0/147 80/0/147 78/0/147
f 80/0/148 11/0/148 78/0/148
f 10/0/149 80/0/149 79/0/149
f 80/0/150 1/0/150 11/0/150
f 8/0/151 81/0/151 2/0/151
f 13/0/152 82/0/152 8/0/152
f 2/0/153 81/0/153 70/0/153
f 81/0/154 9/0/154 70/0/154
f 8/0/155 82/0/155 81/0/155
f 81/0/156 82/0/156 9/0/156
f 13/0/157 1/0/157 82/0/157
f 1/0/158 80/0/158 82/0/158
f 80/0/159 10/0/159 82/0/159
f 82/0/160 10/0/160 9/0/160
